#N canvas 56 58 1310 639 10;
#X obj 552 257 hradio 15 1 0 16 empty empty empty 0 -8 0 10 -262144
-1 -1 12;
#X obj 525 281 sel 0 1 2 3 4 5 6 7 8 9 10 11 12 13 14 15;
#X obj 102 103 tgl 15 0 empty empty empty 17 7 0 10 -262144 -1 -1 1
1;
#X obj 303 347 spigot;
#X obj 102 119 bng 15 250 50 0 empty empty empty 17 7 0 10 -262144
-1 -1;
#X obj 118 103 tgl 15 0 empty empty empty 17 7 0 10 -262144 -1 -1 1
1;
#X obj 347 348 spigot;
#X obj 118 119 bng 15 250 50 0 empty empty empty 17 7 0 10 -262144
-1 -1;
#X obj 134 103 tgl 15 0 empty empty empty 17 7 0 10 -262144 -1 -1 1
1;
#X obj 392 348 spigot;
#X obj 134 119 bng 15 250 50 0 empty empty empty 17 7 0 10 -262144
-1 -1;
#X obj 150 103 tgl 15 0 empty empty empty 17 7 0 10 -262144 -1 -1 1
1;
#X obj 436 349 spigot;
#X obj 150 119 bng 15 250 50 0 empty empty empty 17 7 0 10 -262144
-1 -1;
#X obj 166 103 tgl 15 0 empty empty empty 17 7 0 10 -262144 -1 -1 1
1;
#X obj 481 350 spigot;
#X obj 166 119 bng 15 250 50 0 empty empty empty 17 7 0 10 -262144
-1 -1;
#X obj 182 103 tgl 15 0 empty empty empty 17 7 0 10 -262144 -1 -1 1
1;
#X obj 525 351 spigot;
#X obj 182 119 bng 15 250 50 0 empty empty empty 17 7 0 10 -262144
-1 -1;
#X obj 198 103 tgl 15 0 empty empty empty 17 7 0 10 -262144 -1 -1 1
1;
#X obj 570 351 spigot;
#X obj 198 119 bng 15 250 50 0 empty empty empty 17 7 0 10 -262144
-1 -1;
#X obj 214 103 tgl 15 0 empty empty empty 17 7 0 10 -262144 -1 -1 1
1;
#X obj 614 352 spigot;
#X obj 214 119 bng 15 250 50 0 empty empty empty 17 7 0 10 -262144
-1 -1;
#X obj 230 103 tgl 15 0 empty empty empty 17 7 0 10 -262144 -1 -1 1
1;
#X obj 659 351 spigot;
#X obj 230 119 bng 15 250 50 0 empty empty empty 17 7 0 10 -262144
-1 -1;
#X obj 246 103 tgl 15 0 empty empty empty 17 7 0 10 -262144 -1 -1 1
1;
#X obj 703 352 spigot;
#X obj 246 119 bng 15 250 50 0 empty empty empty 17 7 0 10 -262144
-1 -1;
#X obj 262 103 tgl 15 0 empty empty empty 17 7 0 10 -262144 -1 -1 1
1;
#X obj 748 352 spigot;
#X obj 262 119 bng 15 250 50 0 empty empty empty 17 7 0 10 -262144
-1 -1;
#X obj 278 103 tgl 15 0 empty empty empty 17 7 0 10 -262144 -1 -1 1
1;
#X obj 792 353 spigot;
#X obj 278 119 bng 15 250 50 0 empty empty empty 17 7 0 10 -262144
-1 -1;
#X obj 294 103 tgl 15 0 empty empty empty 17 7 0 10 -262144 -1 -1 1
1;
#X obj 837 354 spigot;
#X obj 294 119 bng 15 250 50 0 empty empty empty 17 7 0 10 -262144
-1 -1;
#X obj 310 103 tgl 15 0 empty empty empty 17 7 0 10 -262144 -1 -1 1
1;
#X obj 881 355 spigot;
#X obj 310 119 bng 15 250 50 0 empty empty empty 17 7 0 10 -262144
-1 -1;
#X obj 326 103 tgl 15 0 empty empty empty 17 7 0 10 -262144 -1 -1 1
1;
#X obj 926 355 spigot;
#X obj 326 119 bng 15 250 50 0 empty empty empty 17 7 0 10 -262144
-1 -1;
#X obj 342 103 tgl 15 0 empty empty empty 17 7 0 10 -262144 -1 -1 1
1;
#X obj 970 356 spigot;
#X obj 342 119 bng 15 250 50 0 empty empty empty 17 7 0 10 -262144
-1 -1;
#X obj 410 93 inlet;
#X obj 277 451 outlet;
#X obj 338 454 outlet;
#X obj 385 454 outlet;
#X obj 446 457 outlet;
#X obj 492 455 outlet;
#X obj 553 458 outlet;
#X obj 600 458 outlet;
#X obj 661 461 outlet;
#X obj 714 461 outlet;
#X obj 775 464 outlet;
#X obj 822 464 outlet;
#X obj 883 467 outlet;
#X obj 929 465 outlet;
#X obj 990 468 outlet;
#X obj 1037 468 outlet;
#X obj 1098 471 outlet;
#X text 399 65 time in;
#X connect 0 0 1 0;
#X connect 1 0 3 0;
#X connect 1 1 6 0;
#X connect 1 2 9 0;
#X connect 1 3 12 0;
#X connect 1 4 15 0;
#X connect 1 5 18 0;
#X connect 1 6 21 0;
#X connect 1 7 24 0;
#X connect 1 8 27 0;
#X connect 1 9 30 0;
#X connect 1 10 33 0;
#X connect 1 11 36 0;
#X connect 1 12 39 0;
#X connect 1 13 42 0;
#X connect 1 14 45 0;
#X connect 1 15 48 0;
#X connect 2 0 3 1;
#X connect 3 0 4 0;
#X connect 4 0 51 0;
#X connect 5 0 6 1;
#X connect 6 0 7 0;
#X connect 7 0 52 0;
#X connect 8 0 9 1;
#X connect 9 0 10 0;
#X connect 10 0 53 0;
#X connect 11 0 12 1;
#X connect 12 0 13 0;
#X connect 13 0 54 0;
#X connect 14 0 15 1;
#X connect 15 0 16 0;
#X connect 16 0 55 0;
#X connect 17 0 18 1;
#X connect 18 0 19 0;
#X connect 19 0 56 0;
#X connect 20 0 21 1;
#X connect 21 0 22 0;
#X connect 22 0 57 0;
#X connect 23 0 24 1;
#X connect 24 0 25 0;
#X connect 25 0 58 0;
#X connect 26 0 27 1;
#X connect 27 0 28 0;
#X connect 28 0 59 0;
#X connect 29 0 30 1;
#X connect 30 0 31 0;
#X connect 31 0 60 0;
#X connect 32 0 33 1;
#X connect 33 0 34 0;
#X connect 34 0 61 0;
#X connect 35 0 36 1;
#X connect 36 0 37 0;
#X connect 37 0 62 0;
#X connect 38 0 39 1;
#X connect 39 0 40 0;
#X connect 40 0 63 0;
#X connect 41 0 42 1;
#X connect 42 0 43 0;
#X connect 43 0 64 0;
#X connect 44 0 45 1;
#X connect 45 0 46 0;
#X connect 46 0 65 0;
#X connect 47 0 48 1;
#X connect 48 0 49 0;
#X connect 49 0 66 0;
#X connect 50 0 0 0;
#X coords 0 -1 1 1 260 40 1 100 100;
