#N canvas 73 131 969 511 10;
#X obj 101 101 cnv 15 300 40 empty empty empty 20 12 0 14 -136339 -66577
0;
#X obj 103 105 cnv 15 35 15 empty empty time_in 0 8 0 8 -159808 -262144
0;
#X obj 102 123 cnv 15 39 15 empty empty trig_out 0 8 0 8 -13330 -262144
0;
#X obj 142 105 hradio 16 1 0 16 empty empty empty 0 -8 0 10 -262144
-1 -1 5;
#X obj 142 76 inlet;
#X obj 721 556 outlet;
#X obj 20 244 == 0;
#X floatatom 141 166 5 0 0 0 - - -;
#X obj 177 166 s \$0-num;
#X floatatom 20 265 5 0 0 0 - - -;
#X obj 13 322 outlet;
#X obj 18 294 change;
#X obj 18 215 r \$0-num;
#X floatatom 77 265 5 0 0 0 - - -;
#X obj 70 322 outlet;
#X obj 75 294 change;
#X obj 75 215 r \$0-num;
#X floatatom 133 265 5 0 0 0 - - -;
#X obj 126 322 outlet;
#X obj 131 294 change;
#X obj 131 215 r \$0-num;
#X floatatom 190 265 5 0 0 0 - - -;
#X obj 183 322 outlet;
#X obj 188 294 change;
#X obj 188 215 r \$0-num;
#X floatatom 246 264 5 0 0 0 - - -;
#X obj 239 321 outlet;
#X obj 244 293 change;
#X obj 244 214 r \$0-num;
#X floatatom 303 264 5 0 0 0 - - -;
#X obj 296 321 outlet;
#X obj 301 293 change;
#X obj 301 214 r \$0-num;
#X floatatom 359 264 5 0 0 0 - - -;
#X obj 352 321 outlet;
#X obj 357 293 change;
#X obj 357 214 r \$0-num;
#X floatatom 416 264 5 0 0 0 - - -;
#X obj 409 321 outlet;
#X obj 414 293 change;
#X obj 414 214 r \$0-num;
#X floatatom 475 264 5 0 0 0 - - -;
#X obj 468 321 outlet;
#X obj 473 293 change;
#X obj 473 214 r \$0-num;
#X floatatom 532 264 5 0 0 0 - - -;
#X obj 525 321 outlet;
#X obj 530 293 change;
#X obj 530 214 r \$0-num;
#X floatatom 588 264 5 0 0 0 - - -;
#X obj 581 321 outlet;
#X obj 586 293 change;
#X obj 586 214 r \$0-num;
#X floatatom 645 264 5 0 0 0 - - -;
#X obj 638 321 outlet;
#X obj 643 293 change;
#X obj 643 214 r \$0-num;
#X floatatom 701 263 5 0 0 0 - - -;
#X obj 694 320 outlet;
#X obj 699 292 change;
#X obj 699 213 r \$0-num;
#X floatatom 758 263 5 0 0 0 - - -;
#X obj 751 320 outlet;
#X obj 756 292 change;
#X obj 756 213 r \$0-num;
#X floatatom 814 263 5 0 0 0 - - -;
#X obj 807 320 outlet;
#X obj 812 292 change;
#X obj 812 213 r \$0-num;
#X floatatom 871 263 5 0 0 0 - - -;
#X obj 864 320 outlet;
#X obj 869 292 change;
#X obj 869 213 r \$0-num;
#X obj 77 244 == 1;
#X obj 133 244 == 2;
#X obj 190 244 == 3;
#X obj 246 243 == 4;
#X obj 303 243 == 5;
#X obj 359 244 == 6;
#X obj 416 243 == 7;
#X obj 475 243 == 8;
#X obj 532 243 == 9;
#X obj 588 243 == 10;
#X obj 645 243 == 11;
#X obj 701 242 == 12;
#X obj 758 242 == 13;
#X obj 814 242 == 14;
#X obj 871 242 == 15;
#X connect 3 0 7 0;
#X connect 3 0 8 0;
#X connect 4 0 3 0;
#X connect 6 0 9 0;
#X connect 9 0 11 0;
#X connect 11 0 10 0;
#X connect 12 0 6 0;
#X connect 13 0 15 0;
#X connect 15 0 14 0;
#X connect 16 0 73 0;
#X connect 17 0 19 0;
#X connect 19 0 18 0;
#X connect 20 0 74 0;
#X connect 21 0 23 0;
#X connect 23 0 22 0;
#X connect 24 0 75 0;
#X connect 25 0 27 0;
#X connect 27 0 26 0;
#X connect 28 0 76 0;
#X connect 29 0 31 0;
#X connect 31 0 30 0;
#X connect 32 0 77 0;
#X connect 33 0 35 0;
#X connect 35 0 34 0;
#X connect 36 0 78 0;
#X connect 37 0 39 0;
#X connect 39 0 38 0;
#X connect 40 0 79 0;
#X connect 41 0 43 0;
#X connect 43 0 42 0;
#X connect 44 0 80 0;
#X connect 45 0 47 0;
#X connect 47 0 46 0;
#X connect 48 0 81 0;
#X connect 49 0 51 0;
#X connect 51 0 50 0;
#X connect 52 0 82 0;
#X connect 53 0 55 0;
#X connect 55 0 54 0;
#X connect 56 0 83 0;
#X connect 57 0 59 0;
#X connect 59 0 58 0;
#X connect 60 0 84 0;
#X connect 61 0 63 0;
#X connect 63 0 62 0;
#X connect 64 0 85 0;
#X connect 65 0 67 0;
#X connect 67 0 66 0;
#X connect 68 0 86 0;
#X connect 69 0 71 0;
#X connect 71 0 70 0;
#X connect 72 0 87 0;
#X connect 73 0 13 0;
#X connect 74 0 17 0;
#X connect 75 0 21 0;
#X connect 76 0 25 0;
#X connect 77 0 29 0;
#X connect 78 0 33 0;
#X connect 79 0 37 0;
#X connect 80 0 41 0;
#X connect 81 0 45 0;
#X connect 82 0 49 0;
#X connect 83 0 53 0;
#X connect 84 0 57 0;
#X connect 85 0 61 0;
#X connect 86 0 65 0;
#X connect 87 0 69 0;
#X coords 0 -1 1 1 302 50 1 100 100;
