#N canvas 4 58 1325 639 10;
#X msg 442 175 1;
#X obj 436 202 +;
#X floatatom 515 251 5 0 0 0 - - -;
#X obj 469 251 % 16;
#X obj 552 257 hradio 15 1 0 16 empty empty empty 0 -8 0 10 -262144
-1 -1 0;
#X obj 525 281 sel 0 1 2 3 4 5 6 7 8 9 10 11 12 13 14 15;
#X obj 102 103 tgl 15 0 empty empty empty 17 7 0 10 -262144 -1 -1 0
1;
#X obj 303 347 spigot;
#X obj 102 119 bng 15 250 50 0 empty empty empty 17 7 0 10 -262144
-1 -1;
#X obj 118 103 tgl 15 0 empty empty empty 17 7 0 10 -262144 -1 -1 0
1;
#X obj 347 348 spigot;
#X obj 118 119 bng 15 250 50 0 empty empty empty 17 7 0 10 -262144
-1 -1;
#X obj 134 103 tgl 15 0 empty empty empty 17 7 0 10 -262144 -1 -1 0
1;
#X obj 392 348 spigot;
#X obj 134 119 bng 15 250 50 0 empty empty empty 17 7 0 10 -262144
-1 -1;
#X obj 150 103 tgl 15 0 empty empty empty 17 7 0 10 -262144 -1 -1 0
1;
#X obj 436 349 spigot;
#X obj 150 119 bng 15 250 50 0 empty empty empty 17 7 0 10 -262144
-1 -1;
#X obj 166 103 tgl 15 0 empty empty empty 17 7 0 10 -262144 -1 -1 0
1;
#X obj 481 350 spigot;
#X obj 166 119 bng 15 250 50 0 empty empty empty 17 7 0 10 -262144
-1 -1;
#X obj 182 103 tgl 15 0 empty empty empty 17 7 0 10 -262144 -1 -1 0
1;
#X obj 525 351 spigot;
#X obj 182 119 bng 15 250 50 0 empty empty empty 17 7 0 10 -262144
-1 -1;
#X obj 198 103 tgl 15 0 empty empty empty 17 7 0 10 -262144 -1 -1 0
1;
#X obj 570 351 spigot;
#X obj 198 119 bng 15 250 50 0 empty empty empty 17 7 0 10 -262144
-1 -1;
#X obj 214 103 tgl 15 0 empty empty empty 17 7 0 10 -262144 -1 -1 0
1;
#X obj 614 352 spigot;
#X obj 214 119 bng 15 250 50 0 empty empty empty 17 7 0 10 -262144
-1 -1;
#X obj 230 103 tgl 15 0 empty empty empty 17 7 0 10 -262144 -1 -1 0
1;
#X obj 659 351 spigot;
#X obj 230 119 bng 15 250 50 0 empty empty empty 17 7 0 10 -262144
-1 -1;
#X obj 246 103 tgl 15 0 empty empty empty 17 7 0 10 -262144 -1 -1 0
1;
#X obj 703 352 spigot;
#X obj 246 119 bng 15 250 50 0 empty empty empty 17 7 0 10 -262144
-1 -1;
#X obj 262 103 tgl 15 0 empty empty empty 17 7 0 10 -262144 -1 -1 0
1;
#X obj 748 352 spigot;
#X obj 262 119 bng 15 250 50 0 empty empty empty 17 7 0 10 -262144
-1 -1;
#X obj 278 103 tgl 15 0 empty empty empty 17 7 0 10 -262144 -1 -1 0
1;
#X obj 792 353 spigot;
#X obj 278 119 bng 15 250 50 0 empty empty empty 17 7 0 10 -262144
-1 -1;
#X obj 294 103 tgl 15 0 empty empty empty 17 7 0 10 -262144 -1 -1 0
1;
#X obj 837 354 spigot;
#X obj 294 119 bng 15 250 50 0 empty empty empty 17 7 0 10 -262144
-1 -1;
#X obj 310 103 tgl 15 0 empty empty empty 17 7 0 10 -262144 -1 -1 0
1;
#X obj 881 355 spigot;
#X obj 310 119 bng 15 250 50 0 empty empty empty 17 7 0 10 -262144
-1 -1;
#X obj 326 103 tgl 15 0 empty empty empty 17 7 0 10 -262144 -1 -1 0
1;
#X obj 926 355 spigot;
#X obj 326 119 bng 15 250 50 0 empty empty empty 17 7 0 10 -262144
-1 -1;
#X obj 342 103 tgl 15 0 empty empty empty 17 7 0 10 -262144 -1 -1 0
1;
#X obj 970 356 spigot;
#X obj 342 119 bng 15 250 50 0 empty empty empty 17 7 0 10 -262144
-1 -1;
#X obj 410 93 inlet;
#X obj 534 89 inlet;
#X msg 559 133 0;
#X obj 98 291 outlet;
#X text 399 65 metro in;
#X text 539 59 reset to 0;
#X connect 0 0 1 0;
#X connect 1 0 2 0;
#X connect 2 0 1 1;
#X connect 2 0 3 0;
#X connect 3 0 4 0;
#X connect 4 0 5 0;
#X connect 5 0 7 0;
#X connect 5 1 10 0;
#X connect 5 2 13 0;
#X connect 5 3 16 0;
#X connect 5 4 19 0;
#X connect 5 5 22 0;
#X connect 5 6 25 0;
#X connect 5 7 28 0;
#X connect 5 8 31 0;
#X connect 5 9 34 0;
#X connect 5 10 37 0;
#X connect 5 11 40 0;
#X connect 5 12 43 0;
#X connect 5 13 46 0;
#X connect 5 14 49 0;
#X connect 5 15 52 0;
#X connect 6 0 7 1;
#X connect 7 0 8 0;
#X connect 8 0 57 0;
#X connect 9 0 10 1;
#X connect 10 0 11 0;
#X connect 11 0 57 0;
#X connect 12 0 13 1;
#X connect 13 0 14 0;
#X connect 14 0 57 0;
#X connect 15 0 16 1;
#X connect 16 0 17 0;
#X connect 17 0 57 0;
#X connect 18 0 19 1;
#X connect 19 0 20 0;
#X connect 20 0 57 0;
#X connect 21 0 22 1;
#X connect 22 0 23 0;
#X connect 23 0 57 0;
#X connect 24 0 25 1;
#X connect 25 0 26 0;
#X connect 26 0 57 0;
#X connect 27 0 28 1;
#X connect 28 0 29 0;
#X connect 29 0 57 0;
#X connect 30 0 31 1;
#X connect 31 0 32 0;
#X connect 32 0 57 0;
#X connect 33 0 34 1;
#X connect 34 0 35 0;
#X connect 35 0 57 0;
#X connect 36 0 37 1;
#X connect 37 0 38 0;
#X connect 38 0 57 0;
#X connect 39 0 40 1;
#X connect 40 0 41 0;
#X connect 41 0 57 0;
#X connect 42 0 43 1;
#X connect 43 0 44 0;
#X connect 44 0 57 0;
#X connect 45 0 46 1;
#X connect 46 0 47 0;
#X connect 47 0 57 0;
#X connect 48 0 49 1;
#X connect 49 0 50 0;
#X connect 50 0 57 0;
#X connect 51 0 52 1;
#X connect 52 0 53 0;
#X connect 53 0 57 0;
#X connect 54 0 0 0;
#X connect 55 0 56 0;
#X connect 56 0 4 0;
#X coords 0 -1 1 1 260 40 1 100 100;
