#N canvas 160 58 1112 677 10;
#X obj 100 100 cnv 15 300 40 empty empty empty 20 12 0 14 -136339 -66577
0;
#X obj 103 104 cnv 15 35 15 empty empty time_in 0 8 0 8 -159808 -262144
0;
#X obj 102 122 cnv 15 39 15 empty empty trig_out 0 8 0 8 -13330 -262144
0;
#X obj 143 120 hradio 16 1 0 16 empty empty empty 0 -8 0 10 -262144
-1 -1 11;
#X obj 21 351 spigot;
#X obj 143 102 tgl 15 0 empty empty empty 17 7 0 10 -262144 -1 -1 0
1;
#X obj 20 386 bng 15 250 50 0 empty empty empty 17 7 0 10 -262144 -1
-1;
#X obj 65 349 spigot;
#X obj 159 102 tgl 15 0 empty empty empty 17 7 0 10 -262144 -1 -1 0
1;
#X obj 62 384 bng 15 250 50 0 empty empty empty 17 7 0 10 -262144 -1
-1;
#X obj 110 348 spigot;
#X obj 175 102 tgl 15 0 empty empty empty 17 7 0 10 -262144 -1 -1 0
1;
#X obj 109 383 bng 15 250 50 0 empty empty empty 17 7 0 10 -262144
-1 -1;
#X obj 154 346 spigot;
#X obj 191 102 tgl 15 0 empty empty empty 17 7 0 10 -262144 -1 -1 0
1;
#X obj 153 381 bng 15 250 50 0 empty empty empty 17 7 0 10 -262144
-1 -1;
#X obj 199 345 spigot;
#X obj 207 102 tgl 15 0 empty empty empty 17 7 0 10 -262144 -1 -1 0
1;
#X obj 198 380 bng 15 250 50 0 empty empty empty 17 7 0 10 -262144
-1 -1;
#X obj 243 343 spigot;
#X obj 223 102 tgl 15 0 empty empty empty 17 7 0 10 -262144 -1 -1 0
1;
#X obj 242 378 bng 15 250 50 0 empty empty empty 17 7 0 10 -262144
-1 -1;
#X obj 288 342 spigot;
#X obj 239 102 tgl 15 0 empty empty empty 17 7 0 10 -262144 -1 -1 0
1;
#X obj 287 377 bng 15 250 50 0 empty empty empty 17 7 0 10 -262144
-1 -1;
#X obj 334 342 spigot;
#X obj 255 102 tgl 15 0 empty empty empty 17 7 0 10 -262144 -1 -1 0
1;
#X obj 331 375 bng 15 250 50 0 empty empty empty 17 7 0 10 -262144
-1 -1;
#X obj 93 48 inlet;
#X obj 40 283 sel 0 1 2 3 4 5 6 7 8 9 10 11 12 13 14 15, f 105;
#X obj 381 342 spigot;
#X obj 271 102 tgl 15 0 empty empty empty 17 7 0 10 -262144 -1 -1 0
1;
#X obj 383 378 bng 15 250 50 0 empty empty empty 17 7 0 10 -262144
-1 -1;
#X obj 432 340 spigot;
#X obj 287 102 tgl 15 0 empty empty empty 17 7 0 10 -262144 -1 -1 0
1;
#X obj 427 376 bng 15 250 50 0 empty empty empty 17 7 0 10 -262144
-1 -1;
#X obj 479 339 spigot;
#X obj 303 102 tgl 15 0 empty empty empty 17 7 0 10 -262144 -1 -1 0
1;
#X obj 472 375 bng 15 250 50 0 empty empty empty 17 7 0 10 -262144
-1 -1;
#X obj 525 336 spigot;
#X obj 319 102 tgl 15 0 empty empty empty 17 7 0 10 -262144 -1 -1 0
1;
#X obj 516 373 bng 15 250 50 0 empty empty empty 17 7 0 10 -262144
-1 -1;
#X obj 570 335 spigot;
#X obj 335 102 tgl 15 0 empty empty empty 17 7 0 10 -262144 -1 -1 0
1;
#X obj 561 372 bng 15 250 50 0 empty empty empty 17 7 0 10 -262144
-1 -1;
#X obj 614 333 spigot;
#X obj 367 102 tgl 15 0 empty empty empty 17 7 0 10 -262144 -1 -1 0
1;
#X obj 605 370 bng 15 250 50 0 empty empty empty 17 7 0 10 -262144
-1 -1;
#X obj 659 332 spigot;
#X obj 383 102 tgl 15 0 empty empty empty 17 7 0 10 -262144 -1 -1 0
1;
#X obj 650 369 bng 15 250 50 0 empty empty empty 17 7 0 10 -262144
-1 -1;
#X obj 703 330 spigot;
#X obj 351 102 tgl 15 0 empty empty empty 17 7 0 10 -262144 -1 -1 0
1;
#X obj 694 367 bng 15 250 50 0 empty empty empty 17 7 0 10 -262144
-1 -1;
#X obj 332 450 outlet;
#X floatatom 105 182 5 0 0 0 - - -;
#X connect 3 0 55 0;
#X connect 4 0 6 0;
#X connect 5 0 4 1;
#X connect 6 0 54 0;
#X connect 7 0 9 0;
#X connect 8 0 7 1;
#X connect 9 0 54 0;
#X connect 10 0 12 0;
#X connect 11 0 10 1;
#X connect 12 0 54 0;
#X connect 13 0 15 0;
#X connect 14 0 13 1;
#X connect 15 0 54 0;
#X connect 16 0 18 0;
#X connect 17 0 16 1;
#X connect 18 0 54 0;
#X connect 19 0 21 0;
#X connect 20 0 19 1;
#X connect 21 0 54 0;
#X connect 22 0 24 0;
#X connect 23 0 22 1;
#X connect 24 0 54 0;
#X connect 25 0 27 0;
#X connect 26 0 25 1;
#X connect 27 0 54 0;
#X connect 28 0 3 0;
#X connect 29 0 4 0;
#X connect 29 1 7 0;
#X connect 29 2 10 0;
#X connect 29 3 13 0;
#X connect 29 4 16 0;
#X connect 29 5 19 0;
#X connect 29 6 22 0;
#X connect 29 7 25 0;
#X connect 29 8 30 0;
#X connect 29 9 33 0;
#X connect 29 10 36 0;
#X connect 29 11 39 0;
#X connect 29 12 42 0;
#X connect 29 13 45 0;
#X connect 29 14 48 0;
#X connect 29 15 51 0;
#X connect 30 0 32 0;
#X connect 31 0 30 1;
#X connect 32 0 54 0;
#X connect 33 0 35 0;
#X connect 34 0 33 1;
#X connect 35 0 54 0;
#X connect 36 0 38 0;
#X connect 37 0 36 1;
#X connect 38 0 54 0;
#X connect 39 0 41 0;
#X connect 40 0 39 1;
#X connect 41 0 54 0;
#X connect 42 0 44 0;
#X connect 43 0 42 1;
#X connect 44 0 54 0;
#X connect 45 0 47 0;
#X connect 46 0 48 1;
#X connect 47 0 54 0;
#X connect 48 0 50 0;
#X connect 49 0 51 1;
#X connect 50 0 54 0;
#X connect 51 0 53 0;
#X connect 52 0 45 1;
#X connect 53 0 54 0;
#X connect 55 0 29 0;
#X coords 0 -1 1 1 300 40 1 100 100;
