#N canvas 735 221 543 494 10;
#X obj 348 359 osc~;
#X obj 347 325 +~;
#X obj 364 281 *~;
#X obj 366 404 outlet~;
#X obj 107 105 cnv 15 30 20 empty empty cFreq 0 12 0 8 -204786 -66577
0;
#X obj 146 105 cnv 15 30 20 empty empty mult~ 0 12 0 8 -261682 -66577
0;
#X obj 185 105 cnv 15 30 20 empty empty index 0 12 0 8 -233017 -66577
0;
#X obj 353 247 osc~;
#X obj 322 193 *~, f 5;
#X obj 416 226 *~;
#X obj 315 106 inlet~;
#X obj 361 107 inlet~;
#X obj 133 163 inlet;
#X obj 271 133 sig~;
#X obj 272 95 inlet;
#X obj 50 274 float \$1;
#X floatatom 50 295 5 0 0 0 - - -;
#X obj 47 242 bng 15 250 50 0 empty empty empty 17 7 0 10 -262144 -1
-1;
#X floatatom 133 184 5 0 0 0 - - -;
#X connect 0 0 3 0;
#X connect 1 0 0 0;
#X connect 2 0 1 1;
#X connect 7 0 2 0;
#X connect 8 0 7 0;
#X connect 8 0 9 0;
#X connect 9 0 2 1;
#X connect 10 0 8 1;
#X connect 11 0 9 1;
#X connect 12 0 18 0;
#X connect 13 0 8 0;
#X connect 13 0 1 0;
#X connect 14 0 13 0;
#X connect 15 0 16 0;
#X connect 17 0 15 0;
#X connect 18 0 13 0;
#X coords 0 -1 1 1 120 30 2 100 100;
