#N canvas 683 58 679 674 10;
#X obj 362 344 line~;
#X obj 346 375 *~;
#X obj 132 124 bng 15 250 50 0 empty empty empty 17 7 0 10 -262144
-1 -1;
#X obj 111 143 vsl 20 128 0 10000 0 0 empty empty A 4 -9 0 10 -261682
-1 -1 200 1;
#X obj 314 290 pack f;
#X msg 340 314 1 \$1;
#X obj 328 226 + 0;
#X obj 153 142 vsl 20 128 0 10000 0 0 empty empty D 4 -9 0 10 -261682
-1 -1 400 1;
#X obj 380 263 del;
#X obj 193 142 vsl 20 128 0 10000 0 0 empty empty R 4 -9 0 10 -261682
-1 -1 1400 1;
#X msg 379 313 \$1 \$2;
#X obj 381 284 pack f f;
#X obj 253 39 inlet~;
#X text 117 429 ADR envelope - Basic David Williams 2019;
#X obj 346 437 outlet~;
#X obj 309 39 inlet;
#X obj 364 43 inlet;
#X obj 405 44 inlet;
#X obj 447 43 inlet;
#X floatatom 109 278 5 0 0 0 - - -;
#X floatatom 148 278 5 0 0 0 - - -;
#X floatatom 186 278 5 0 0 0 - - -;
#X obj 112 105 cnv 15 100 15 empty empty L__T__A__D__R 0 8 0 12 -228856
-66577 0;
#X connect 0 0 1 1;
#X connect 1 0 14 0;
#X connect 2 0 4 0;
#X connect 2 0 6 0;
#X connect 2 0 8 0;
#X connect 3 0 6 1;
#X connect 3 0 19 0;
#X connect 4 0 5 0;
#X connect 5 0 0 0;
#X connect 6 0 4 0;
#X connect 7 0 8 1;
#X connect 7 0 20 0;
#X connect 8 0 11 0;
#X connect 9 0 11 1;
#X connect 9 0 21 0;
#X connect 10 0 0 0;
#X connect 11 0 10 0;
#X connect 12 0 1 0;
#X connect 15 0 2 0;
#X connect 16 0 3 0;
#X connect 17 0 7 0;
#X connect 18 0 9 0;
#X coords 0 -1 1 1 120 200 2 100 100;
