#N canvas 89 72 1224 692 10;
#X obj 522 114 notein;
#X obj 517 212 stripnote;
#X obj 513 281 mtof;
#X obj 656 302 pack f f f f;
#X obj 655 377 vline~;
#X obj 610 408 *~;
#X obj 567 471 outlet~;
#X msg 653 337 1 \$2 \, \$4 \$3 \$2;
#X msg 757 338 0 \$2;
#X obj 103 104 vsl 15 100 0 500 0 0 empty empty empty 0 -9 0 10 -262144
-1 -1 0 1;
#X obj 119 104 vsl 15 100 0 1000 0 0 empty empty empty 0 -9 0 10 -262144
-1 -1 0 1;
#X obj 135 104 vsl 15 100 0 1 0 0 empty empty empty 0 -9 0 10 -262144
-1 -1 0 1;
#X obj 151 104 vsl 15 100 0 1000 0 0 empty empty empty 0 -9 0 10 -262144
-1 -1 0 1;
#X floatatom 648 249 5 0 0 0 - - -;
#X floatatom 691 249 5 0 0 0 - - -;
#X floatatom 729 249 5 0 0 0 - - -;
#X floatatom 774 249 5 0 0 0 - - -;
#X obj 766 305 pack f f;
#X obj 763 279 sel 0;
#X floatatom 477 169 5 0 0 0 - - -;
#X floatatom 484 241 5 0 0 0 - - -;
#X floatatom 530 166 5 0 0 0 - - -;
#X obj 558 282 inlet~;
#X obj 472 328 outlet;
#X obj 709 184 inlet;
#X connect 0 0 1 0;
#X connect 0 0 19 0;
#X connect 0 1 1 1;
#X connect 0 1 18 0;
#X connect 0 1 21 0;
#X connect 1 0 2 0;
#X connect 1 0 20 0;
#X connect 1 0 3 0;
#X connect 2 0 23 0;
#X connect 3 0 7 0;
#X connect 4 0 5 1;
#X connect 5 0 6 0;
#X connect 7 0 4 0;
#X connect 8 0 4 0;
#X connect 9 0 13 0;
#X connect 10 0 14 0;
#X connect 11 0 15 0;
#X connect 12 0 16 0;
#X connect 13 0 3 1;
#X connect 14 0 3 2;
#X connect 15 0 3 3;
#X connect 16 0 17 1;
#X connect 17 0 8 0;
#X connect 18 0 17 0;
#X connect 22 0 5 0;
#X connect 24 0 3 0;
#X connect 24 0 18 0;
#X coords 0 -1 1 1 68 110 2 100 100;
