#N canvas 549 133 542 449 10;
#X text 3 7 taken from Miller S.Puckette's ADSR example http://msp.ucsd.edu/techniques/v0.11/book-html/node69.html
;
#X obj 81 66 inlet;
#X obj 81 103 sel 0;
#X msg 80 134 stop;
#X obj 164 65 moses;
#X obj 165 93 t b b;
#X obj 224 127 t b;
#X obj 298 124 inlet;
#X obj 348 126 inlet;
#X obj 391 125 inlet;
#X obj 440 126 inlet;
#X text 11 191 ATTACK:;
#X obj 113 187 f \$1;
#X obj 112 213 pack 0 \$2;
#X msg 72 212 0;
#X text 239 191 DECAY:;
#X obj 250 221 del \$2;
#X obj 249 245 f \$4;
#X obj 303 279 pack 0 \$3;
#X obj 302 251 * \$1;
#X obj 250 276 * 0.01;
#X obj 483 124 inlet;
#X obj 419 224 pack 0 \$5;
#X text 443 254 RELEASE: ramp to zero;
#X text 296 106 level;
#X text 343 106 attack;
#X text 388 104 decay;
#X text 428 103 sustain;
#X text 478 102 release;
#X obj 278 337 line~;
#X text 76 48 trigger;
#X text 152 49 to attack:;
#X text 202 64 if negative \, zero output;
#X obj 300 378 outlet~;
#X connect 1 0 2 0;
#X connect 2 0 3 0;
#X connect 2 0 22 0;
#X connect 2 1 4 0;
#X connect 3 0 16 0;
#X connect 4 0 5 0;
#X connect 4 1 6 0;
#X connect 5 0 6 0;
#X connect 5 1 14 0;
#X connect 6 0 12 0;
#X connect 6 0 16 0;
#X connect 7 0 12 1;
#X connect 7 0 19 1;
#X connect 8 0 13 1;
#X connect 8 0 16 1;
#X connect 9 0 18 1;
#X connect 10 0 17 1;
#X connect 12 0 13 0;
#X connect 13 0 29 0;
#X connect 14 0 29 0;
#X connect 16 0 17 0;
#X connect 17 0 20 0;
#X connect 18 0 29 0;
#X connect 19 0 18 0;
#X connect 20 0 19 0;
#X connect 21 0 22 1;
#X connect 22 0 29 0;
#X connect 29 0 33 0;
