#N canvas 599 161 481 441 10;
#X obj 93 190 print;
#X obj 178 77 unpackOSC;
#X obj 212 157 unpack f;
#X floatatom 149 225 5 0 0 0 - - -;
#X obj 153 365 hsl 128 15 0 1000 0 0 empty empty empty -2 -8 0 10 -262144
-1 -1 0 1;
#X obj 196 117 routeOSC /test;
#X floatatom 97 317 5 0 0 0 - - -;
#X obj 182 278 +;
#X floatatom 186 308 5 0 0 0 - - -;
#X obj 177 46 udpreceive 3456;
#X connect 1 0 0 0;
#X connect 1 0 5 0;
#X connect 2 0 3 0;
#X connect 3 0 7 0;
#X connect 3 0 7 1;
#X connect 5 0 2 0;
#X connect 7 0 8 0;
#X connect 8 0 4 0;
#X connect 9 0 1 0;
