#N canvas 580 89 625 466 10;
#X obj 115 15 inlet;
#X obj 123 359 osc~;
#X floatatom 28 156 5 0 0 0 - - -;
#X obj 77 120 mtof;
#X obj 61 83 + \$1;
#X msg 50 42 0;
#X obj 63 229 osc~;
#X obj 34 348 +~;
#X obj 72 309 *~;
#X obj 164 387 *~;
#X obj 183 435 outlet~;
#X obj 319 271 adsr2 0.5 10 50 100 200;
#X msg 98 276 500;
#X obj 63 202 * 2;
#X connect 0 0 5 0;
#X connect 0 0 12 0;
#X connect 0 0 11 0;
#X connect 1 0 9 0;
#X connect 2 0 13 0;
#X connect 2 0 7 0;
#X connect 3 0 2 0;
#X connect 4 0 3 0;
#X connect 5 0 4 0;
#X connect 6 0 8 0;
#X connect 7 0 1 0;
#X connect 8 0 7 1;
#X connect 9 0 10 0;
#X connect 11 0 9 1;
#X connect 12 0 8 1;
#X connect 13 0 6 0;
