#N canvas 705 211 450 300 10;
#X obj 213 52 inlet;
#X obj 146 234 outlet;
#X msg 208 150 1;
#X msg 281 144 0;
#X obj 120 118 inlet;
#X obj 151 186 spigot;
#X obj 225 104 sel \$1;
#X connect 0 0 6 0;
#X connect 2 0 5 1;
#X connect 3 0 5 1;
#X connect 4 0 5 0;
#X connect 5 0 1 0;
#X connect 6 0 2 0;
#X connect 6 1 3 0;
