#N canvas 210 186 1210 561 10;
#X obj 417 291 hsl 128 15 -50 0 0 0 empty empty empty -2 -8 0 10 -260097
-1 -1 11824 1;
#X obj 570 292 hsl 128 15 0 50 0 0 empty empty empty -2 -8 0 10 -4034
-1 -1 876 1;
#X obj 520 140 hsl 128 15 0 100 0 0 empty empty empty -2 -8 0 10 -4032
-1 -1 876 1;
#X obj 623 264 *;
#X obj 618 206 select 1;
#X text 439 59 CROSSFADER David Williams 21.03.2019;
#X floatatom 566 393 5 0 0 0 - - -, f 5;
#X obj 410 422 clip 0 1;
#X obj 565 419 clip 0 1;
#X floatatom 410 444 5 0 0 0 - - -, f 5;
#X floatatom 565 441 5 0 0 0 - - -, f 5;
#X floatatom 569 325 5 0 0 0 - - -, f 5;
#X msg 629 236 0.5;
#X floatatom 465 184 5 0 0 0 - - -, f 5;
#X obj 456 212 * -1;
#X floatatom 456 242 5 0 0 0 - - -, f 5;
#X floatatom 414 319 5 0 0 0 - - -, f 5;
#X obj 414 340 + 50;
#X floatatom 414 364 5 0 0 0 - - -, f 5;
#X obj 566 363 * 0.02;
#X obj 416 390 * 0.02;
#X text 658 131 <-- slider one goes from 0 to 100;
#X text 678 181 <-- if greater than 50 \, reduce the values (basic
scale);
#X text 641 419 <--ignore values we don't want i.e minus numbers with
clip;
#X floatatom 694 269 5 0 0 0 - - -, f 5;
#X text 715 293 <-- right slider goes from 0-50;
#X text 189 290 left slider goes from -50-0 -->;
#X text 624 364 <-- multiply by 0.02 to get values from 0-1;
#X text 15 211 Do a bit of maths to reverse the values for the left
channel (reverse \, then add \, then clip);
#X obj 620 183 > 50;
#X obj 517 87 inlet;
#X obj 402 470 line~;
#X obj 402 504 outlet~;
#X obj 564 503 outlet~;
#X obj 563 481 line~;
#X connect 0 0 16 0;
#X connect 1 0 11 0;
#X connect 2 0 3 0;
#X connect 2 0 29 0;
#X connect 3 0 1 0;
#X connect 3 0 13 0;
#X connect 3 0 24 0;
#X connect 4 0 12 0;
#X connect 6 0 8 0;
#X connect 7 0 9 0;
#X connect 8 0 10 0;
#X connect 9 0 31 0;
#X connect 9 0 31 1;
#X connect 10 0 34 0;
#X connect 10 0 34 1;
#X connect 11 0 19 0;
#X connect 12 0 3 1;
#X connect 13 0 14 0;
#X connect 14 0 15 0;
#X connect 15 0 0 0;
#X connect 16 0 17 0;
#X connect 17 0 18 0;
#X connect 18 0 20 0;
#X connect 19 0 6 0;
#X connect 20 0 7 0;
#X connect 29 0 4 0;
#X connect 30 0 2 0;
#X connect 31 0 32 0;
#X connect 34 0 33 0;
