#N canvas 281 58 969 674 10;
#X obj 251 271 *~;
#X obj 251 307 +~;
#X obj 327 180 swap 1;
#X obj 329 210 -;
#X obj 331 243 pack f 50;
#X obj 412 244 pack f 50;
#X obj 333 280 line~;
#X obj 413 276 line~;
#X obj 503 84 * 2000;
#X obj 501 111 pack f 50;
#X obj 482 334 *~;
#X obj 555 264 pack f 50;
#X obj 557 286 line~;
#X obj 564 333 *~;
#X obj 106 117 vsl 10 100 0 1 0 0 \$0-mix-send2 \$0-mix-send2 Mix 0
-9 0 8 -262144 -1 -1 4950 1;
#X obj 126 117 vsl 10 100 0 1 0 0 \$0-delaytime-send2 \$0-delaytime-send2
time 0 -9 0 8 -262144 -1 -1 1100 1;
#X obj 147 117 vsl 10 100 0 1 0 0 \$0-feedback-send2 \$0-feedback-send2
Fb 0 -9 0 8 -262144 -1 -1 8600 1;
#X obj 505 151 line~ \$1 100;
#X text 28 512 I can't take any credit for this - copied directly from
a tutotorial on https://www.youtube.com/watch?v=z5nxbPenEIs&feature=youtu.be
It's a really great sounding delay though!;
#X obj 252 59 inlet~;
#X obj 244 367 outlet~;
#X obj 313 81 r~ \$0-feedback2;
#X obj 328 153 r \$0-mix-send2;
#X obj 503 60 r \$0-delaytime-send2;
#X obj 553 235 r \$0-feedback-send2;
#X obj 565 372 s~ \$0-feedback2;
#X obj 74 389 cnv 15 100 60 empty empty empty 20 12 0 14 -233017 -66577
0;
#X obj 290 117 delwrite~ \$0-delsig2 2000;
#X obj 515 203 vd~ \$0-delsig2;
#X obj 653 477 loadbang;
#X msg 613 502 0.5;
#X msg 648 502 0.2;
#X msg 681 502 0.5;
#X text 455 479 load with some initial values >;
#X obj 546 557 s \$0-mix-send2;
#X obj 665 555 s \$0-delaytime-send2;
#X obj 761 534 s \$0-feedback-send2;
#X obj 694 431 inlet;
#X obj 770 431 inlet;
#X obj 732 431 inlet;
#X connect 0 0 1 0;
#X connect 1 0 20 0;
#X connect 2 0 3 0;
#X connect 2 1 3 1;
#X connect 3 0 4 0;
#X connect 4 0 6 0;
#X connect 5 0 7 0;
#X connect 6 0 0 1;
#X connect 7 0 10 1;
#X connect 8 0 9 0;
#X connect 9 0 17 0;
#X connect 10 0 1 1;
#X connect 11 0 12 0;
#X connect 12 0 13 1;
#X connect 13 0 25 0;
#X connect 17 0 28 0;
#X connect 19 0 0 0;
#X connect 19 0 27 0;
#X connect 21 0 27 0;
#X connect 22 0 2 0;
#X connect 22 0 5 0;
#X connect 23 0 8 0;
#X connect 24 0 11 0;
#X connect 28 0 10 0;
#X connect 28 0 13 0;
#X connect 29 0 32 0;
#X connect 29 0 31 0;
#X connect 29 0 30 0;
#X connect 30 0 34 0;
#X connect 31 0 35 0;
#X connect 32 0 36 0;
#X connect 37 0 34 0;
#X connect 38 0 36 0;
#X connect 39 0 35 0;
#X coords 0 -1 1 1 63 125 2 100 100;
