#N canvas 28 58 760 710 10;
#X obj 178 150 list fromsymbol;
#X obj 111 49 bng 15 250 50 0 empty empty empty 17 7 0 10 -262144 -1
-1;
#X floatatom 74 330 5 0 0 0 - - -;
#X obj 123 295 + 1;
#X obj 74 297 float;
#X obj 75 246 t b;
#X msg 102 185 0;
#X obj 178 113 symbol c:/directory/subdirectory/file.nam;
#X obj 138 336 == 47;
#X obj 74 366 spigot;
#X floatatom 74 399 5 0 0 0 - - -;
#X obj 176 447 list split;
#X obj 204 479 list tosymbol;
#X symbolatom 204 510 0 0 0 0 - - -;
#X obj 111 86 t b b b b;
#N canvas 439 373 258 281 ingox-list_drip 0;
#X obj 42 39 inlet;
#X obj 42 149 list store;
#X obj 42 83 until;
#X obj 42 105 f;
#X obj 72 105 + 1;
#X msg 42 127 get \$1 1;
#X obj 85 84 0;
#X obj 42 171 outlet;
#X obj 109 171 outlet;
#X obj 42 61 t b b a;
#X connect 0 0 9 0;
#X connect 1 0 7 0;
#X connect 1 1 8 0;
#X connect 1 1 2 1;
#X connect 2 0 3 0;
#X connect 3 0 5 0;
#X connect 3 0 4 0;
#X connect 4 0 3 1;
#X connect 5 0 1 0;
#X connect 6 0 3 1;
#X connect 9 0 2 0;
#X connect 9 1 6 0;
#X connect 9 2 1 1;
#X restore 178 182 pd ingox-list_drip;
#X text 232 276 take from user @ingot on https://forum.pdpatchrepo.info/search/filenames
;
#X obj 205 546 outlet;
#X obj 229 19 inlet;
#X connect 0 0 15 0;
#X connect 0 0 11 0;
#X connect 1 0 14 0;
#X connect 2 0 9 0;
#X connect 3 0 4 1;
#X connect 4 0 3 0;
#X connect 4 0 2 0;
#X connect 5 0 4 0;
#X connect 6 0 4 1;
#X connect 7 0 0 0;
#X connect 8 0 9 1;
#X connect 9 0 10 0;
#X connect 10 0 11 1;
#X connect 11 1 12 0;
#X connect 12 0 13 0;
#X connect 13 0 17 0;
#X connect 14 2 7 0;
#X connect 14 3 6 0;
#X connect 15 0 5 0;
#X connect 15 0 8 0;
#X connect 18 0 7 0;
#X connect 18 0 1 0;
