#N canvas 60 228 1073 653 10;
#X obj 186 100 mtof;
#X obj 199 390 *~;
#X floatatom 228 368 5 0 0 0 - - -;
#X obj 196 282 *~, f 6;
#X floatatom 168 37 5 0 0 0 - - -;
#X obj 186 75 t f b;
#X obj 199 424 gain;
#X obj 83 361 dsp;
#N canvas 366 247 670 441 notes 0;
#X obj 166 149 mod 8;
#X obj 169 101 f 1;
#X obj 170 123 +;
#X floatatom 166 170 5 0 0 0 - - -;
#X obj 173 32 tgl 15 0 empty empty empty 17 7 0 10 -262144 -1 -1 1
1;
#X obj 374 142 table notes;
#X obj 257 235 tabread notes;
#X floatatom 263 270 5 0 0 0 - - -;
#X obj 225 309 +;
#X floatatom 225 330 5 0 0 0 - - -;
#X obj 225 350 outlet;
#X msg 391 80 \; notes 0 12 -2 4 10 -4 5 7 8;
#X msg 200 266 60;
#X obj 131 20 inlet;
#X obj 171 59 metro 250;
#X connect 0 0 2 1;
#X connect 0 0 3 0;
#X connect 1 0 2 0;
#X connect 2 0 0 0;
#X connect 3 0 6 0;
#X connect 4 0 11 0;
#X connect 4 0 14 0;
#X connect 6 0 7 0;
#X connect 7 0 8 1;
#X connect 8 0 9 0;
#X connect 9 0 10 0;
#X connect 12 0 8 0;
#X connect 13 0 4 0;
#X connect 14 0 1 0;
#X connect 14 0 12 0;
#X restore 838 210 pd notes;
#X obj 838 240 s notes;
#X obj 169 12 r notes;
#X obj 840 183 tgl 15 0 empty empty empty 17 7 0 10 -262144 -1 -1 1
1;
#X obj 161 232 clone operator 8;
#X obj 322 217 s_env, f 14;
#X floatatom 207 168 5 0 0 0 - - -;
#X floatatom 257 183 5 0 0 0 - - -;
#X floatatom 405 173 5 0 0 0 - - -;
#X floatatom 346 172 5 0 0 0 - - -;
#X floatatom 368 191 5 0 0 0 - - -;
#X floatatom 224 132 5 0 0 0 - - -;
#X msg 94 148 next \$1;
#X connect 0 0 20 0;
#X connect 1 0 6 0;
#X connect 2 0 1 1;
#X connect 3 0 1 0;
#X connect 4 0 5 0;
#X connect 5 0 0 0;
#X connect 5 1 13 0;
#X connect 8 0 9 0;
#X connect 10 0 4 0;
#X connect 11 0 8 0;
#X connect 12 0 3 0;
#X connect 13 0 3 1;
#X connect 14 0 12 2;
#X connect 15 0 12 3;
#X connect 16 0 13 3;
#X connect 17 0 13 1;
#X connect 18 0 13 2;
#X connect 20 0 12 1;
#X connect 20 0 12 0;
