#N canvas 255 82 609 576 10;
#X obj 142 10 osc_from_of_vidtrigs;
#X obj 149 511 dac~;
#X obj 174 441 *~;
#X obj 246 406 line;
#X msg 307 375 0;
#X obj 448 357 delay2;
#X obj 90 229 bOsc 40;
#X obj 141 230 bOsc 41;
#X obj 188 229 bOsc 42;
#X obj 238 230 bOsc 43;
#X obj 290 231 bOsc 44;
#X obj 342 231 bOsc 45;
#X obj 394 232 bOsc 47;
#X obj 447 231 bOsc 48;
#X obj 499 232 bOsc 50;
#X msg 352 363 0.1;
#X text 379 43 Note - try ading a low-pass filter to get rid of the
clipping;
#X connect 0 0 6 0;
#X connect 0 1 7 0;
#X connect 0 2 8 0;
#X connect 0 3 9 0;
#X connect 0 4 10 0;
#X connect 0 5 11 0;
#X connect 0 6 12 0;
#X connect 0 7 13 0;
#X connect 0 8 14 0;
#X connect 2 0 5 0;
#X connect 3 0 2 1;
#X connect 4 0 3 0;
#X connect 5 0 1 0;
#X connect 5 0 1 1;
#X connect 6 0 2 0;
#X connect 7 0 2 0;
#X connect 8 0 2 0;
#X connect 9 0 2 0;
#X connect 10 0 2 0;
#X connect 11 0 2 0;
#X connect 12 0 2 0;
#X connect 13 0 2 0;
#X connect 14 0 2 0;
#X connect 15 0 3 0;
