#N canvas 56 58 1310 710 10;
#X obj 108 30 inlet~;
#X obj 167 108 vsl 10 120 0 1 0 0 empty empty empty 0 -9 0 10 -260097
-1 -1 10450 1;
#X obj 298 203 *~;
#X obj 117 413 outlet~;
#X obj 211 42 inlet;
#X obj 442 127 env~;
#X floatatom 442 148 5 0 0 0 - - -;
#X obj 460 190 - 100;
#X obj 201 305 crossfader~;
#X obj 232 412 outlet~;
#X obj 486 8 inlet;
#X obj 486 29 * 100;
#X obj 114 236 hsl 30 10 0 100 0 0 empty empty L______R -10 15 0 10
-262144 -1 -1 1350 1;
#X obj 218 102 lop~ 5;
#X text 385 415 Gain/output level with with visual VU meter reference
and utilising the 'crossfader~' patch. Stereo output - L-R David Williams
2019;
#X text 535 16 < Takes inlet from 0-1 slider and scales for crossfader
input;
#X text 274 94 < lowpass filter prevents audio crackle when level is
changed;
#X obj 104 108 vu 10 120 empty empty -1 0 0 6 -66577 -1 1 0;
#X obj 514 132 env~;
#X floatatom 514 153 5 0 0 0 - - -;
#X obj 526 186 - 100;
#X obj 137 109 vu 10 120 empty empty -1 -8 0 6 -66577 -1 1 0;
#X obj 312 432 dac~;
#X obj 155 235 tgl 15 0 empty empty mute 0 22 0 8 -262144 -1 -1 1 1
;
#X obj 288 370 spigot~;
#X obj 228 371 spigot~;
#X obj 337 10 loadbang;
#X msg 349 46 0.5;
#X msg 382 45 1;
#X msg 412 45 50;
#X connect 0 0 2 0;
#X connect 1 0 13 0;
#X connect 2 0 8 0;
#X connect 4 0 1 0;
#X connect 4 0 13 0;
#X connect 5 0 6 0;
#X connect 6 0 7 0;
#X connect 7 0 17 1;
#X connect 7 0 17 0;
#X connect 8 0 5 0;
#X connect 8 0 25 0;
#X connect 8 1 18 0;
#X connect 8 1 24 0;
#X connect 10 0 11 0;
#X connect 11 0 12 0;
#X connect 12 0 8 1;
#X connect 13 0 2 1;
#X connect 18 0 19 0;
#X connect 19 0 20 0;
#X connect 20 0 21 1;
#X connect 20 0 21 0;
#X connect 23 0 24 2;
#X connect 23 0 25 2;
#X connect 24 0 9 0;
#X connect 24 0 22 1;
#X connect 25 0 3 0;
#X connect 25 0 22 0;
#X connect 26 0 27 0;
#X connect 26 0 28 0;
#X connect 26 0 29 0;
#X connect 26 0 8 1;
#X connect 27 0 1 0;
#X connect 28 0 23 0;
#X connect 29 0 12 0;
#X coords 0 -1 1 1 80 170 2 100 100;
