#N canvas 694 70 656 682 10;
#X obj 105 338 tabread4~ grainArray;
#X obj 104 315 line~;
#X obj 104 270 pack f f f;
#X obj 104 203 t f f;
#X floatatom 104 183 5 0 0 0 start - -;
#X obj 136 234 +, f 5;
#X floatatom 213 192 5 0 0 0 dur - -;
#X msg 104 294 \$1 \, \$2 \$3;
#X obj 105 381 outlet~;
#X obj 104 45 inlet;
#X obj 105 75 t f b, f 52;
#X obj 427 141 t b b;
#X obj 426 173 del 50;
#X obj 424 210 pack f 50;
#X msg 466 173 1;
#X msg 426 188 0;
#X obj 424 231 line~;
#X obj 104 358 *~, f 54;
#X obj 476 116 r grain_dur;
#X obj 476 137 - 50;
#X obj 164 209 * 44.1;
#X obj 237 252 / 1;
#X floatatom 293 194 5 0 0 0 dur - -;
#X obj 264 219 t b f;
#X obj 212 165 r grain_dur;
#X obj 311 167 r grain_speed;
#X connect 0 0 17 0;
#X connect 1 0 0 0;
#X connect 2 0 7 0;
#X connect 3 0 2 0;
#X connect 3 1 5 0;
#X connect 4 0 3 0;
#X connect 5 0 2 1;
#X connect 6 0 20 0;
#X connect 6 0 21 0;
#X connect 7 0 1 0;
#X connect 9 0 10 0;
#X connect 10 0 4 0;
#X connect 10 1 11 0;
#X connect 11 0 12 0;
#X connect 11 1 14 0;
#X connect 12 0 15 0;
#X connect 13 0 16 0;
#X connect 14 0 13 0;
#X connect 15 0 13 0;
#X connect 16 0 17 1;
#X connect 17 0 8 0;
#X connect 18 0 19 0;
#X connect 19 0 12 1;
#X connect 20 0 5 1;
#X connect 21 0 2 2;
#X connect 22 0 23 0;
#X connect 23 0 21 0;
#X connect 23 1 21 1;
#X connect 24 0 6 0;
#X connect 25 0 22 0;
