#N canvas 309 93 658 590 10;
#X obj 229 129 noise~;
#X obj 272 186 *~;
#X floatatom 381 196 5 0 0 0 - - -;
#X obj 382 281 *~ 0.99;
#X obj 380 173 expr 1000 / $f1;
#X floatatom 384 122 5 0 0 0 - - -;
#X obj 378 354 lop~ 5000;
#X obj 384 97 inlet, f 12;
#X obj 286 160 line~;
#X msg 286 130 1 \, 0 30;
#X obj 377 390 outlet~;
#X obj 286 100 inlet;
#X obj 383 229 delread4~ \$0-kar;
#X obj 258 239 delwrite~ \$0-kar 500;
#X connect 0 0 1 0;
#X connect 1 0 13 0;
#X connect 2 0 12 0;
#X connect 3 0 6 0;
#X connect 4 0 2 0;
#X connect 5 0 4 0;
#X connect 6 0 10 0;
#X connect 6 0 13 0;
#X connect 7 0 5 0;
#X connect 8 0 1 1;
#X connect 9 0 8 0;
#X connect 11 0 9 0;
#X connect 12 0 3 0;
