#N canvas 56 58 1310 710 10;
#X floatatom 318 114 5 0 0 0 - - -;
#X floatatom 151 118 5 0 0 0 speed - -;
#X floatatom 151 140 5 0 0 0 pitch - -;
#X obj 315 18 loadbang;
#X obj 343 226 /~;
#X msg 418 83 1;
#X obj 405 452 outlet~;
#X obj 460 41 bng 15 250 50 0 empty empty empty 17 7 0 10 -262144 -1
-1;
#X obj 515 316 line~;
#X obj 351 395 *~;
#X obj 510 223 pack 1 0 f;
#X floatatom 523 163 5 0 0 0 - - -;
#X msg 520 273 \$1 \, \$2 \$3;
#X obj 514 138 /;
#X msg 508 99 1000;
#X obj 460 11 inlet;
#X obj 101 102 cnv 15 50 15 empty empty bang_in 0 5 0 10 -257985 -66577
0;
#X msg 253 280 1;
#X obj 211 73 line;
#X obj 325 159 phasor~;
#X obj 393 188 phasor~;
#X obj 184 0 bng 15 250 50 0 empty empty empty 17 7 0 10 -262144 -1
-1;
#X msg 208 43 1 \, 0 5;
#X obj 294 301 op_1;
#X connect 0 0 19 0;
#X connect 1 0 13 1;
#X connect 1 0 20 0;
#X connect 2 0 21 0;
#X connect 2 0 23 2;
#X connect 3 0 5 0;
#X connect 3 0 17 0;
#X connect 3 0 22 0;
#X connect 3 0 14 0;
#X connect 4 0 23 1;
#X connect 5 0 20 1;
#X connect 7 0 10 0;
#X connect 7 0 1 0;
#X connect 7 0 5 0;
#X connect 7 0 14 0;
#X connect 8 0 9 1;
#X connect 9 0 6 0;
#X connect 10 0 12 0;
#X connect 11 0 10 2;
#X connect 12 0 8 0;
#X connect 13 0 11 0;
#X connect 14 0 13 0;
#X connect 15 0 7 0;
#X connect 17 0 1 0;
#X connect 17 0 23 0;
#X connect 18 0 0 0;
#X connect 19 0 4 0;
#X connect 20 0 4 1;
#X connect 21 0 22 0;
#X connect 22 0 18 0;
#X connect 23 0 9 0;
#X coords 0 -1 1 1 85 60 1 100 100;
