#N canvas 538 431 866 300 10;
#N canvas 587 468 621 342 knobMap 0;
#X obj 99 129 outlet;
#X obj 47 128 outlet;
#X floatatom 44 102 5 0 0 0 - - -, f 5;
#X obj 45 72 ctlin 1;
#X floatatom 102 101 5 0 0 0 - - -, f 5;
#X obj 212 128 outlet;
#X obj 160 127 outlet;
#X floatatom 157 101 5 0 0 0 - - -, f 5;
#X floatatom 215 100 5 0 0 0 - - -, f 5;
#X obj 329 126 outlet;
#X obj 277 125 outlet;
#X floatatom 274 99 5 0 0 0 - - -, f 5;
#X floatatom 332 98 5 0 0 0 - - -, f 5;
#X obj 442 125 outlet;
#X obj 390 124 outlet;
#X floatatom 387 98 5 0 0 0 - - -, f 5;
#X floatatom 445 97 5 0 0 0 - - -, f 5;
#X obj 503 126 outlet;
#X floatatom 506 98 5 0 0 0 - - -, f 5;
#X obj 102 71 ctlin 21;
#X obj 158 71 ctlin 22;
#X obj 215 70 ctlin 23;
#X obj 275 69 ctlin 24;
#X obj 332 68 ctlin 25;
#X obj 388 68 ctlin 26;
#X obj 445 67 ctlin 27;
#X obj 506 68 ctlin 28;
#X connect 2 0 1 0;
#X connect 3 0 2 0;
#X connect 4 0 0 0;
#X connect 7 0 6 0;
#X connect 8 0 5 0;
#X connect 11 0 10 0;
#X connect 12 0 9 0;
#X connect 15 0 14 0;
#X connect 16 0 13 0;
#X connect 18 0 17 0;
#X connect 19 0 4 0;
#X connect 20 0 7 0;
#X connect 21 0 8 0;
#X connect 22 0 11 0;
#X connect 23 0 12 0;
#X connect 24 0 15 0;
#X connect 25 0 16 0;
#X connect 26 0 18 0;
#X coords 0 3420 200 3410 0 0 0;
#X restore 333 88 pd knobMap, f 25;
#X obj 226 168 outlet;
#X obj 275 169 outlet;
#X obj 327 166 outlet;
#X obj 376 167 outlet;
#X obj 428 166 outlet;
#X obj 477 167 outlet;
#X obj 529 164 outlet;
#X obj 578 165 outlet;
#X obj 632 165 outlet;
#X connect 0 0 1 0;
#X connect 0 1 2 0;
#X connect 0 2 3 0;
#X connect 0 3 4 0;
#X connect 0 4 5 0;
#X connect 0 5 6 0;
#X connect 0 6 7 0;
#X connect 0 7 8 0;
#X connect 0 8 9 0;
