#N canvas 39 58 1323 674 10;
#N canvas 224 169 1219 419 LKPadToggle 0;
#X obj 8 20 notein;
#X obj 8 77 sel 40;
#X obj 8 105 bng 15 250 50 0 empty empty empty 17 7 0 10 -262144 -1
-1;
#X obj 8 48 stripnote;
#X obj 8 130 outlet;
#X obj 83 21 notein;
#X obj 83 106 bng 15 250 50 0 empty empty empty 17 7 0 10 -262144 -1
-1;
#X obj 83 49 stripnote;
#X obj 83 131 outlet;
#X obj 158 20 notein;
#X obj 158 105 bng 15 250 50 0 empty empty empty 17 7 0 10 -262144
-1 -1;
#X obj 158 48 stripnote;
#X obj 158 130 outlet;
#X obj 233 19 notein;
#X obj 233 104 bng 15 250 50 0 empty empty empty 17 7 0 10 -262144
-1 -1;
#X obj 233 47 stripnote;
#X obj 233 129 outlet;
#X obj 306 16 notein;
#X obj 306 101 bng 15 250 50 0 empty empty empty 17 7 0 10 -262144
-1 -1;
#X obj 306 44 stripnote;
#X obj 306 126 outlet;
#X obj 381 17 notein;
#X obj 381 102 bng 15 250 50 0 empty empty empty 17 7 0 10 -262144
-1 -1;
#X obj 381 45 stripnote;
#X obj 381 127 outlet;
#X obj 456 16 notein;
#X obj 456 101 bng 15 250 50 0 empty empty empty 17 7 0 10 -262144
-1 -1;
#X obj 456 44 stripnote;
#X obj 456 126 outlet;
#X obj 531 15 notein;
#X obj 531 100 bng 15 250 50 0 empty empty empty 17 7 0 10 -262144
-1 -1;
#X obj 531 43 stripnote;
#X obj 531 125 outlet;
#X obj 587 128 notein;
#X obj 588 210 bng 15 250 50 0 empty empty empty 17 7 0 10 -262144
-1 -1;
#X obj 587 156 stripnote;
#X obj 587 238 outlet;
#X obj 662 129 notein;
#X obj 662 214 bng 15 250 50 0 empty empty empty 17 7 0 10 -262144
-1 -1;
#X obj 662 157 stripnote;
#X obj 662 239 outlet;
#X obj 737 128 notein;
#X obj 737 213 bng 15 250 50 0 empty empty empty 17 7 0 10 -262144
-1 -1;
#X obj 737 156 stripnote;
#X obj 737 238 outlet;
#X obj 812 127 notein;
#X obj 812 212 bng 15 250 50 0 empty empty empty 17 7 0 10 -262144
-1 -1;
#X obj 812 155 stripnote;
#X obj 812 237 outlet;
#X obj 885 124 notein;
#X obj 885 209 bng 15 250 50 0 empty empty empty 17 7 0 10 -262144
-1 -1;
#X obj 885 152 stripnote;
#X obj 885 234 outlet;
#X obj 960 125 notein;
#X obj 960 210 bng 15 250 50 0 empty empty empty 17 7 0 10 -262144
-1 -1;
#X obj 960 153 stripnote;
#X obj 960 235 outlet;
#X obj 1035 124 notein;
#X obj 1035 209 bng 15 250 50 0 empty empty empty 17 7 0 10 -262144
-1 -1;
#X obj 1035 152 stripnote;
#X obj 1035 234 outlet;
#X obj 1110 123 notein;
#X obj 1110 208 bng 15 250 50 0 empty empty empty 17 7 0 10 -262144
-1 -1;
#X obj 1110 151 stripnote;
#X obj 1110 233 outlet;
#X obj 83 78 sel 41;
#X obj 522 288 notein;
#X floatatom 486 328 5 0 0 0 - - -;
#X floatatom 534 328 5 0 0 0 - - -;
#X floatatom 578 328 5 0 0 0 - - -;
#X obj 158 77 sel 42;
#X obj 233 76 sel 43;
#X obj 307 73 sel 48;
#X obj 381 74 sel 49;
#X obj 456 72 sel 50;
#X obj 531 72 sel 51;
#X obj 587 185 sel 36;
#X obj 662 186 sel 37;
#X obj 737 185 sel 38;
#X obj 812 184 sel 39;
#X obj 885 181 sel 44;
#X obj 960 182 sel 45;
#X obj 1035 181 sel 46;
#X obj 1110 180 sel 47, f 9;
#X text 425 211 Bottom row pads >;
#X text 646 44 < Top row pads;
#X text 373 327 Sanity Check >, f 45;
#X connect 0 0 3 0;
#X connect 0 1 3 1;
#X connect 1 0 2 0;
#X connect 2 0 4 0;
#X connect 3 0 1 0;
#X connect 5 0 7 0;
#X connect 5 1 7 1;
#X connect 6 0 8 0;
#X connect 7 0 65 0;
#X connect 9 0 11 0;
#X connect 9 1 11 1;
#X connect 10 0 12 0;
#X connect 11 0 70 0;
#X connect 13 0 15 0;
#X connect 13 1 15 1;
#X connect 14 0 16 0;
#X connect 15 0 71 0;
#X connect 17 0 19 0;
#X connect 17 1 19 1;
#X connect 18 0 20 0;
#X connect 19 0 72 0;
#X connect 21 0 23 0;
#X connect 21 1 23 1;
#X connect 22 0 24 0;
#X connect 23 0 73 0;
#X connect 25 0 27 0;
#X connect 25 1 27 1;
#X connect 26 0 28 0;
#X connect 27 0 74 0;
#X connect 29 0 31 0;
#X connect 29 1 31 1;
#X connect 30 0 32 0;
#X connect 31 0 75 0;
#X connect 33 0 35 0;
#X connect 33 1 35 1;
#X connect 34 0 36 0;
#X connect 35 0 76 0;
#X connect 37 0 39 0;
#X connect 37 1 39 1;
#X connect 38 0 40 0;
#X connect 39 0 77 0;
#X connect 41 0 43 0;
#X connect 41 1 43 1;
#X connect 42 0 44 0;
#X connect 43 0 78 0;
#X connect 45 0 47 0;
#X connect 45 1 47 1;
#X connect 46 0 48 0;
#X connect 47 0 79 0;
#X connect 49 0 51 0;
#X connect 49 1 51 1;
#X connect 50 0 52 0;
#X connect 51 0 80 0;
#X connect 53 0 55 0;
#X connect 53 1 55 1;
#X connect 54 0 56 0;
#X connect 55 0 81 0;
#X connect 57 0 59 0;
#X connect 57 1 59 1;
#X connect 58 0 60 0;
#X connect 59 0 82 0;
#X connect 61 0 63 0;
#X connect 61 1 63 1;
#X connect 62 0 64 0;
#X connect 63 0 83 0;
#X connect 65 0 6 0;
#X connect 66 0 67 0;
#X connect 66 1 68 0;
#X connect 66 2 69 0;
#X connect 70 0 10 0;
#X connect 71 0 14 0;
#X connect 72 0 18 0;
#X connect 73 0 22 0;
#X connect 74 0 26 0;
#X connect 75 0 30 0;
#X connect 76 0 34 0;
#X connect 77 0 38 0;
#X connect 78 0 42 0;
#X connect 79 0 46 0;
#X connect 80 0 50 0;
#X connect 81 0 54 0;
#X connect 82 0 58 0;
#X connect 83 0 62 0;
#X coords 0 0 20 1 0 0 0;
#X restore 672 61 pd LKPadToggle;
#X obj 111 394 cnv 15 100 60 empty empty empty 20 12 0 14 -233017 -66577
0;
#X obj 102 140 tgl 15 0 empty empty empty 17 7 0 10 -262144 -1 -1 0
1;
#X obj 121 140 tgl 15 0 empty empty empty 17 7 0 10 -262144 -1 -1 0
1;
#X obj 142 140 tgl 15 0 empty empty empty 17 7 0 10 -262144 -1 -1 0
1;
#X obj 162 140 tgl 15 0 empty empty empty 17 7 0 10 -262144 -1 -1 0
1;
#X obj 182 140 tgl 15 0 empty empty empty 17 7 0 10 -262144 -1 -1 0
1;
#X obj 201 140 tgl 15 0 empty empty empty 17 7 0 10 -262144 -1 -1 0
1;
#X obj 222 140 tgl 15 0 empty empty empty 17 7 0 10 -262144 -1 -1 0
1;
#X obj 242 140 tgl 15 0 empty empty empty 17 7 0 10 -262144 -1 -1 0
1;
#X obj 102 227 tgl 15 0 empty empty empty 17 7 0 10 -262144 -1 -1 0
1;
#X obj 121 227 tgl 15 0 empty empty empty 17 7 0 10 -262144 -1 -1 0
1;
#X obj 142 227 tgl 15 0 empty empty empty 17 7 0 10 -262144 -1 -1 0
1;
#X obj 162 227 tgl 15 0 empty empty empty 17 7 0 10 -262144 -1 -1 0
1;
#X obj 182 227 tgl 15 0 empty empty empty 17 7 0 10 -262144 -1 -1 0
1;
#X obj 201 227 tgl 15 0 empty empty empty 17 7 0 10 -262144 -1 -1 0
1;
#X obj 223 227 tgl 15 0 empty empty empty 17 7 0 10 -262144 -1 -1 0
1;
#X obj 242 227 tgl 15 0 empty empty empty 17 7 0 10 -262144 -1 -1 0
1;
#X obj 406 51 metro;
#X obj 278 138 tgl 20 0 empty empty empty 17 7 0 10 -262144 -1 -1 1
1;
#X obj 418 103 + 1;
#X floatatom 423 136 5 0 0 0 - - -;
#X msg 417 80 1;
#X obj 423 156 % 8;
#X obj 100 162 hradio 20 1 1 8 empty empty empty 20 -8 0 15 -262144
-1 -1 3;
#X floatatom 605 390 5 0 0 0 - - -;
#X floatatom 646 390 5 0 0 0 - - -;
#X floatatom 688 390 5 0 0 0 - - -;
#X floatatom 729 390 5 0 0 0 - - -;
#X floatatom 772 392 5 0 0 0 - - -;
#X floatatom 813 392 5 0 0 0 - - -;
#X floatatom 855 392 5 0 0 0 - - -;
#X floatatom 902 391 5 0 0 0 - - -;
#X obj 590 336 *;
#X obj 647 330 *;
#X obj 689 331 *;
#X obj 726 333 *;
#X obj 773 333 *;
#X obj 814 332 *;
#X obj 856 333 *;
#X obj 903 331 *;
#X obj 606 360 == 1;
#X obj 647 359 == 2;
#X obj 689 360 == 3;
#X obj 730 359 == 4;
#X obj 772 362 == 5;
#X obj 814 361 == 6;
#X obj 856 362 == 7;
#X obj 903 360 == 8;
#X obj 449 213 + 1;
#X obj 715 439 sel 1;
#X obj 105 117 hsl 150 20 0 2000 0 0 empty empty empty -2 -8 0 10 -260097
-1 -1 5200 1;
#X floatatom 950 387 5 0 0 0 - - -;
#X floatatom 991 387 5 0 0 0 - - -;
#X floatatom 1033 387 5 0 0 0 - - -;
#X floatatom 1077 385 5 0 0 0 - - -;
#X floatatom 1121 386 5 0 0 0 - - -;
#X floatatom 1158 389 5 0 0 0 - - -;
#X floatatom 1200 389 5 0 0 0 - - -;
#X floatatom 1247 388 5 0 0 0 - - -;
#X obj 941 331 *;
#X obj 992 327 *;
#X obj 1034 328 *;
#X obj 1074 328 *;
#X obj 1122 327 *;
#X obj 1159 329 *;
#X obj 1201 330 *;
#X obj 1248 328 *;
#X obj 951 357 == 1;
#X obj 992 356 == 2;
#X obj 1034 357 == 3;
#X obj 1078 354 == 4;
#X obj 1121 356 == 5;
#X obj 1159 358 == 6;
#X obj 1201 359 == 7;
#X obj 1248 357 == 8;
#X obj 1060 436 sel 1;
#X obj 1120 75 metro;
#X obj 1121 129 + 1;
#X floatatom 1126 162 5 0 0 0 - - -;
#X msg 1120 106 1;
#X obj 1100 187 % 8;
#X obj 102 249 hradio 20 1 1 8 empty empty empty 20 -8 0 15 -262144
-1 -1 3;
#X obj 1126 244 + 1, f 5;
#X obj 277 227 tgl 20 0 empty empty empty 17 7 0 10 -262144 -1 -1 1
1;
#X obj 104 198 hsl 150 20 0 2000 0 0 empty empty empty -2 -8 0 10 -260097
-1 -1 5200 1;
#X obj 720 540 outlet;
#X obj 1078 545 outlet;
#X text 101 101 speed top row;
#X text 259 116 on/off;
#X text 270 209 on/off;
#X text 100 183 speed bottom row;
#X floatatom 271 164 5 0 0 0 - - -;
#X floatatom 271 253 5 0 0 0 - - -;
#X floatatom 333 396 5 0 0 0 - - -;
#X obj 104 273 tgl 15 0 empty empty empty 17 7 0 10 -262144 -1 -1 1
1;
#X obj 402 535 spigot;
#X msg 388 504 \$1;
#X floatatom 384 571 5 0 0 0 - - -;
#X text 127 273 link/unlink metro;
#X obj 549 503 spigot;
#X msg 535 472 0;
#X obj 510 431 sel 1;
#X msg 18 224 0;
#X obj 543 559 bng 15 250 50 0 empty empty empty 17 7 0 10 -262144
-1 -1;
#X text 100 292 top row;
#X text 253 293 bottom row;
#X msg 690 480 1;
#X msg 1040 464 1;
#X msg 746 498 0;
#X msg 1090 465 0;
#X connect 0 0 2 0;
#X connect 0 1 3 0;
#X connect 0 2 4 0;
#X connect 0 3 5 0;
#X connect 0 4 6 0;
#X connect 0 5 7 0;
#X connect 0 6 8 0;
#X connect 0 7 9 0;
#X connect 0 8 10 0;
#X connect 0 9 11 0;
#X connect 0 10 12 0;
#X connect 0 11 13 0;
#X connect 0 12 14 0;
#X connect 0 13 15 0;
#X connect 0 14 16 0;
#X connect 0 15 17 0;
#X connect 2 0 33 1;
#X connect 3 0 34 1;
#X connect 4 0 35 1;
#X connect 5 0 36 1;
#X connect 6 0 37 1;
#X connect 7 0 38 1;
#X connect 8 0 39 1;
#X connect 9 0 40 1;
#X connect 10 0 60 1;
#X connect 11 0 61 1;
#X connect 12 0 62 1;
#X connect 13 0 63 1;
#X connect 14 0 64 1;
#X connect 15 0 65 1;
#X connect 16 0 66 1;
#X connect 17 0 67 1;
#X connect 18 0 22 0;
#X connect 19 0 18 0;
#X connect 19 0 84 0;
#X connect 20 0 21 0;
#X connect 21 0 20 1;
#X connect 21 0 23 0;
#X connect 22 0 20 0;
#X connect 23 0 24 0;
#X connect 24 0 49 0;
#X connect 25 0 50 0;
#X connect 26 0 50 0;
#X connect 27 0 50 0;
#X connect 28 0 50 0;
#X connect 29 0 50 0;
#X connect 30 0 50 0;
#X connect 31 0 50 0;
#X connect 32 0 50 0;
#X connect 33 0 41 0;
#X connect 34 0 42 0;
#X connect 35 0 43 0;
#X connect 36 0 44 0;
#X connect 37 0 45 0;
#X connect 38 0 46 0;
#X connect 39 0 47 0;
#X connect 40 0 48 0;
#X connect 41 0 25 0;
#X connect 42 0 26 0;
#X connect 43 0 27 0;
#X connect 44 0 28 0;
#X connect 45 0 29 0;
#X connect 46 0 30 0;
#X connect 47 0 31 0;
#X connect 48 0 32 0;
#X connect 49 0 33 0;
#X connect 49 0 34 0;
#X connect 49 0 35 0;
#X connect 49 0 37 0;
#X connect 49 0 38 0;
#X connect 49 0 39 0;
#X connect 49 0 40 0;
#X connect 49 0 36 0;
#X connect 50 0 107 0;
#X connect 50 1 109 0;
#X connect 51 0 18 1;
#X connect 51 0 92 0;
#X connect 51 0 97 0;
#X connect 52 0 76 0;
#X connect 53 0 76 0;
#X connect 54 0 76 0;
#X connect 55 0 76 0;
#X connect 56 0 76 0;
#X connect 57 0 76 0;
#X connect 58 0 76 0;
#X connect 59 0 76 0;
#X connect 60 0 68 0;
#X connect 61 0 69 0;
#X connect 62 0 70 0;
#X connect 63 0 71 0;
#X connect 64 0 72 0;
#X connect 65 0 73 0;
#X connect 66 0 74 0;
#X connect 67 0 75 0;
#X connect 68 0 52 0;
#X connect 69 0 53 0;
#X connect 70 0 54 0;
#X connect 71 0 55 0;
#X connect 72 0 56 0;
#X connect 73 0 57 0;
#X connect 74 0 58 0;
#X connect 75 0 59 0;
#X connect 76 0 108 0;
#X connect 76 1 110 0;
#X connect 77 0 80 0;
#X connect 78 0 79 0;
#X connect 79 0 78 1;
#X connect 79 0 81 0;
#X connect 80 0 78 0;
#X connect 81 0 82 0;
#X connect 82 0 83 0;
#X connect 82 0 94 0;
#X connect 83 0 60 0;
#X connect 83 0 61 0;
#X connect 83 0 62 0;
#X connect 83 0 64 0;
#X connect 83 0 65 0;
#X connect 83 0 66 0;
#X connect 83 0 67 0;
#X connect 83 0 63 0;
#X connect 84 0 77 0;
#X connect 85 0 77 1;
#X connect 85 0 93 0;
#X connect 95 0 96 1;
#X connect 95 0 100 1;
#X connect 95 0 102 0;
#X connect 96 0 98 0;
#X connect 97 0 96 0;
#X connect 98 0 85 0;
#X connect 100 0 104 0;
#X connect 101 0 100 0;
#X connect 102 0 101 0;
#X connect 103 0 82 0;
#X connect 103 0 24 0;
#X connect 104 0 103 0;
#X connect 107 0 86 0;
#X connect 108 0 87 0;
#X coords 0 -1 1 1 220 210 2 100 100;
