#N canvas 1 51 955 246 10;
#N canvas 226 168 1219 419 LKPadToggle 0;
#X obj 8 20 notein;
#X obj 8 77 sel 40;
#X obj 8 105 bng 15 250 50 0 empty empty empty 17 7 0 10 -262144 -1
-1;
#X obj 8 48 stripnote;
#X obj 8 130 outlet;
#X obj 83 21 notein;
#X obj 83 106 bng 15 250 50 0 empty empty empty 17 7 0 10 -262144 -1
-1;
#X obj 83 49 stripnote;
#X obj 83 131 outlet;
#X obj 158 20 notein;
#X obj 158 105 bng 15 250 50 0 empty empty empty 17 7 0 10 -262144
-1 -1;
#X obj 158 48 stripnote;
#X obj 158 130 outlet;
#X obj 233 19 notein;
#X obj 233 104 bng 15 250 50 0 empty empty empty 17 7 0 10 -262144
-1 -1;
#X obj 233 47 stripnote;
#X obj 233 129 outlet;
#X obj 306 16 notein;
#X obj 306 101 bng 15 250 50 0 empty empty empty 17 7 0 10 -262144
-1 -1;
#X obj 306 44 stripnote;
#X obj 306 126 outlet;
#X obj 381 17 notein;
#X obj 381 102 bng 15 250 50 0 empty empty empty 17 7 0 10 -262144
-1 -1;
#X obj 381 45 stripnote;
#X obj 381 127 outlet;
#X obj 456 16 notein;
#X obj 456 101 bng 15 250 50 0 empty empty empty 17 7 0 10 -262144
-1 -1;
#X obj 456 44 stripnote;
#X obj 456 126 outlet;
#X obj 531 15 notein;
#X obj 531 100 bng 15 250 50 0 empty empty empty 17 7 0 10 -262144
-1 -1;
#X obj 531 43 stripnote;
#X obj 531 125 outlet;
#X obj 587 128 notein;
#X obj 588 210 bng 15 250 50 0 empty empty empty 17 7 0 10 -262144
-1 -1;
#X obj 587 156 stripnote;
#X obj 587 238 outlet;
#X obj 662 129 notein;
#X obj 662 214 bng 15 250 50 0 empty empty empty 17 7 0 10 -262144
-1 -1;
#X obj 662 157 stripnote;
#X obj 662 239 outlet;
#X obj 737 128 notein;
#X obj 737 213 bng 15 250 50 0 empty empty empty 17 7 0 10 -262144
-1 -1;
#X obj 737 156 stripnote;
#X obj 737 238 outlet;
#X obj 812 127 notein;
#X obj 812 212 bng 15 250 50 0 empty empty empty 17 7 0 10 -262144
-1 -1;
#X obj 812 155 stripnote;
#X obj 812 237 outlet;
#X obj 885 124 notein;
#X obj 885 209 bng 15 250 50 0 empty empty empty 17 7 0 10 -262144
-1 -1;
#X obj 885 152 stripnote;
#X obj 885 234 outlet;
#X obj 960 125 notein;
#X obj 960 210 bng 15 250 50 0 empty empty empty 17 7 0 10 -262144
-1 -1;
#X obj 960 153 stripnote;
#X obj 960 235 outlet;
#X obj 1035 124 notein;
#X obj 1035 209 bng 15 250 50 0 empty empty empty 17 7 0 10 -262144
-1 -1;
#X obj 1035 152 stripnote;
#X obj 1035 234 outlet;
#X obj 1110 123 notein;
#X obj 1110 208 bng 15 250 50 0 empty empty empty 17 7 0 10 -262144
-1 -1;
#X obj 1110 151 stripnote;
#X obj 1110 233 outlet;
#X obj 83 78 sel 41;
#X obj 522 288 notein;
#X floatatom 486 328 5 0 0 0 - - -, f 5;
#X floatatom 534 328 5 0 0 0 - - -, f 5;
#X floatatom 578 328 5 0 0 0 - - -, f 5;
#X obj 158 77 sel 42;
#X obj 233 76 sel 43;
#X obj 307 73 sel 48;
#X obj 381 74 sel 49;
#X obj 456 72 sel 50;
#X obj 531 72 sel 51;
#X obj 587 185 sel 36;
#X obj 662 186 sel 37;
#X obj 737 185 sel 38;
#X obj 812 184 sel 39;
#X obj 885 181 sel 44;
#X obj 960 182 sel 45;
#X obj 1035 181 sel 46;
#X obj 1110 180 sel 47, f 9;
#X text 425 211 Bottom row pads >;
#X text 646 44 < Top row pads;
#X text 373 327 Sanity Check >;
#X connect 0 0 3 0;
#X connect 0 1 3 1;
#X connect 1 0 2 0;
#X connect 2 0 4 0;
#X connect 3 0 1 0;
#X connect 5 0 7 0;
#X connect 5 1 7 1;
#X connect 6 0 8 0;
#X connect 7 0 65 0;
#X connect 9 0 11 0;
#X connect 9 1 11 1;
#X connect 10 0 12 0;
#X connect 11 0 70 0;
#X connect 13 0 15 0;
#X connect 13 1 15 1;
#X connect 14 0 16 0;
#X connect 15 0 71 0;
#X connect 17 0 19 0;
#X connect 17 1 19 1;
#X connect 18 0 20 0;
#X connect 19 0 72 0;
#X connect 21 0 23 0;
#X connect 21 1 23 1;
#X connect 22 0 24 0;
#X connect 23 0 73 0;
#X connect 25 0 27 0;
#X connect 25 1 27 1;
#X connect 26 0 28 0;
#X connect 27 0 74 0;
#X connect 29 0 31 0;
#X connect 29 1 31 1;
#X connect 30 0 32 0;
#X connect 31 0 75 0;
#X connect 33 0 35 0;
#X connect 33 1 35 1;
#X connect 34 0 36 0;
#X connect 35 0 76 0;
#X connect 37 0 39 0;
#X connect 37 1 39 1;
#X connect 38 0 40 0;
#X connect 39 0 77 0;
#X connect 41 0 43 0;
#X connect 41 1 43 1;
#X connect 42 0 44 0;
#X connect 43 0 78 0;
#X connect 45 0 47 0;
#X connect 45 1 47 1;
#X connect 46 0 48 0;
#X connect 47 0 79 0;
#X connect 49 0 51 0;
#X connect 49 1 51 1;
#X connect 50 0 52 0;
#X connect 51 0 80 0;
#X connect 53 0 55 0;
#X connect 53 1 55 1;
#X connect 54 0 56 0;
#X connect 55 0 81 0;
#X connect 57 0 59 0;
#X connect 57 1 59 1;
#X connect 58 0 60 0;
#X connect 59 0 82 0;
#X connect 61 0 63 0;
#X connect 61 1 63 1;
#X connect 62 0 64 0;
#X connect 63 0 83 0;
#X connect 65 0 6 0;
#X connect 66 0 67 0;
#X connect 66 1 68 0;
#X connect 66 2 69 0;
#X connect 70 0 10 0;
#X connect 71 0 14 0;
#X connect 72 0 18 0;
#X connect 73 0 22 0;
#X connect 74 0 26 0;
#X connect 75 0 30 0;
#X connect 76 0 34 0;
#X connect 77 0 38 0;
#X connect 78 0 42 0;
#X connect 79 0 46 0;
#X connect 80 0 50 0;
#X connect 81 0 54 0;
#X connect 82 0 58 0;
#X connect 83 0 62 0;
#X coords 0 0 20 1 0 0 0;
#X restore 347 47 pd LKPadToggle, f 35;
#X obj 69 132 outlet;
#X obj 120 133 outlet;
#X obj 171 134 outlet;
#X obj 225 135 outlet;
#X obj 278 134 outlet;
#X obj 329 135 outlet;
#X obj 379 136 outlet;
#X obj 430 137 outlet;
#X obj 478 164 outlet;
#X obj 529 165 outlet;
#X obj 580 166 outlet;
#X obj 634 167 outlet;
#X obj 687 166 outlet;
#X obj 738 167 outlet;
#X obj 788 168 outlet;
#X obj 839 169 outlet;
#X connect 0 0 1 0;
#X connect 0 1 2 0;
#X connect 0 2 3 0;
#X connect 0 3 4 0;
#X connect 0 4 5 0;
#X connect 0 5 6 0;
#X connect 0 6 7 0;
#X connect 0 7 8 0;
#X connect 0 8 9 0;
#X connect 0 9 10 0;
#X connect 0 10 11 0;
#X connect 0 11 12 0;
#X connect 0 12 13 0;
#X connect 0 13 14 0;
#X connect 0 14 15 0;
#X connect 0 15 16 0;
