#N canvas 477 282 385 309 10;
#X obj 20 15 inlet;
#X obj 17 211 outlet;
#X obj 35 133 / 127;
#X obj 93 45 hsl 128 15 0 127 0 0 empty empty empty -2 -8 0 10 -262144
-1 -1 0 1;
#X floatatom 39 163 5 0 0 0 - - -;
#X obj 107 183 hsl 128 15 0 1 0 0 empty empty empty -2 -8 0 10 -262144
-1 -1 0 1;
#X connect 0 0 2 0;
#X connect 0 0 3 0;
#X connect 2 0 4 0;
#X connect 3 0 2 0;
#X connect 4 0 5 0;
#X connect 5 0 1 0;
