#N canvas 4 58 675 706 10;
#X obj 101 102 cnv 15 134 96 empty empty empty 20 12 0 14 -159808 -66577
0;
#X obj 133 174 knob 20 20 -24 24 0 0 empty empty detune -3 -6 0 6 2.27814e+07
0 2.27814e+07 594 1;
#X obj 19 147 loadbang;
#X floatatom 155 175 5 0 0 0 - - -;
#X obj 103 113 bng 20 250 50 0 \$0-load_file empty load 1 -6 0 8 -261234
-1 -262144;
#X obj 103 145 bng 20 250 50 0 empty empty save 1 -6 0 8 -4032 -1 -262144
;
#X obj 129 121 cnv 15 90 40 empty empty empty 20 12 0 14 -262144 -66577
0;
#N canvas 0 50 450 250 (subpatch) 0;
#X array \$0-file 11096 float 4;
#X coords 0 1 11095 -1 90 40 2 0 0;
#X restore 129 121 graph;
#X obj 292 154 openpanel;
#X obj 292 103 r \$0-load_file;
#X obj 292 130 bng 15 250 50 0 empty empty empty 17 7 0 10 -262144
-1 -1;
#X obj 292 199 pack s s;
#X obj 378 145 f \$0;
#X floatatom 378 167 5 0 0 0 - - -;
#X obj 416 167 s \$0-code;
#X text 289 86 open panel/ load file section;
#X text 361 128 make unique code for each instance;
#X obj 292 260 soundfiler;
#X msg 292 239 read -resize \$1 \$2;
#X text 298 216 read/resize for soundfiler object;
#X obj 362 259 bng 15 250 50 0 empty empty empty 17 7 0 10 -262144
-1 -1;
#X floatatom 292 282 5 0 0 0 - - -;
#X obj 380 190 makefilename %d-file;
#X obj 192 239 filename-split;
#X obj 130 104 cnv 1 100 15 empty empty empty 20 12 0 14 -262144 -66577
0;
#X symbolatom 129 104 0 0 0 0 - - -;
#X msg 306 488 \$1 \, \$2 \$3;
#X text 381 369 playback sample;
#X obj 184 373 samplerate~;
#X obj 163 371 bng 15 250 50 0 empty empty empty 17 7 0 10 -262144
-1 -1;
#X text 106 325 calculate playback speed;
#X obj 169 416 /;
#X floatatom 169 437 5 0 0 0 - - -;
#X obj 379 545 line~;
#X obj 379 569 tabread4~ \$0-file;
#X obj 195 174 tgl 20 0 empty empty rev 2 -3 0 8 -257985 -1 -262144
0 1;
#X text 317 472 normal;
#X obj 372 476 == 0;
#X msg 259 152 0;
#X msg 487 472 \$2 \, \$1 \$3;
#X text 505 451 reverse;
#X obj 452 471 == 1;
#X obj 418 512 spigot;
#X obj 371 513 spigot;
#X obj 467 494 tgl 15 0 empty empty empty 17 7 0 10 -262144 -1 -1 0
1;
#X obj 396 494 tgl 15 0 empty empty empty 17 7 0 10 -262144 -1 -1 1
1;
#X msg 324 392 bang;
#X obj 397 417 pack 0 f f;
#X msg 361 393 0;
#X msg 19 198 1;
#X obj 74 439 * -0.0577562;
#X obj 74 460 exp;
#X floatatom 74 481 5 0 0 0 - - -;
#X obj 184 394 / 1000;
#X obj 111 536 *;
#X obj 74 502 t b f;
#X floatatom 111 558 5 0 0 0 - - -;
#X text 1 398 do some math for detuning;
#X obj 110 204 int;
#X obj 379 606 outlet~;
#X obj 313 357 inlet;
#X text 302 339 trigger in;
#X obj 61 262 s \$0-detune;
#X obj 292 303 s \$0-sampLength;
#X obj 96 345 r \$0-sampLength;
#X obj 362 278 s \$0-sBang;
#X obj 193 345 r \$0-sBang;
#X obj 74 418 r \$0-detune;
#X obj 393 393 r \$0-sampLength;
#X obj 112 594 s \$0-time;
#X obj 490 393 r \$0-time;
#X obj 200 203 s \$0-rev;
#X obj 372 456 r \$0-rev;
#X obj 452 451 r \$0-rev;
#X obj 488 337 inlet;
#X text 482 312 detune;
#X connect 1 0 58 0;
#X connect 2 0 49 0;
#X connect 3 0 62 0;
#X connect 8 0 11 0;
#X connect 8 0 23 0;
#X connect 9 0 10 0;
#X connect 10 0 8 0;
#X connect 10 0 12 0;
#X connect 10 0 38 0;
#X connect 11 0 18 0;
#X connect 12 0 13 0;
#X connect 13 0 14 0;
#X connect 13 0 22 0;
#X connect 17 0 21 0;
#X connect 18 0 17 0;
#X connect 18 0 20 0;
#X connect 20 0 21 0;
#X connect 20 0 65 0;
#X connect 21 0 63 0;
#X connect 22 0 11 1;
#X connect 23 0 25 0;
#X connect 26 0 43 0;
#X connect 28 0 53 0;
#X connect 29 0 31 0;
#X connect 31 0 32 0;
#X connect 32 0 54 1;
#X connect 33 0 34 0;
#X connect 34 0 59 0;
#X connect 35 0 71 0;
#X connect 37 0 45 0;
#X connect 38 0 35 0;
#X connect 39 0 42 0;
#X connect 41 0 44 0;
#X connect 42 0 33 0;
#X connect 43 0 33 0;
#X connect 44 0 42 1;
#X connect 45 0 43 1;
#X connect 46 0 47 0;
#X connect 47 0 26 0;
#X connect 47 0 39 0;
#X connect 48 0 47 0;
#X connect 49 0 1 0;
#X connect 50 0 51 0;
#X connect 51 0 52 0;
#X connect 52 0 55 0;
#X connect 53 0 31 1;
#X connect 54 0 56 0;
#X connect 55 0 54 0;
#X connect 55 1 54 0;
#X connect 56 0 69 0;
#X connect 58 0 3 0;
#X connect 60 0 46 0;
#X connect 64 0 31 0;
#X connect 66 0 28 0;
#X connect 66 0 29 0;
#X connect 67 0 50 0;
#X connect 68 0 47 1;
#X connect 70 0 47 2;
#X connect 72 0 37 0;
#X connect 73 0 41 0;
#X connect 74 0 1 0;
#X coords 0 -1 1 1 135 100 1 100 100;
