#N canvas 56 370 1304 710 10;
#X obj 105 105 gain;
#X obj 1042 50 ctlin;
#X floatatom 1016 104 5 0 0 0 - - -;
#X floatatom 1065 117 5 0 0 0 - - -;
#X floatatom 1074 78 5 0 0 0 - - -;
#X obj 375 588 / 127;
#X floatatom 375 603 5 0 0 0 - - -;
#X obj 376 633 / 127;
#X floatatom 376 649 5 0 0 0 - - -;
#X obj 376 665 inlet~;
#X obj 375 541 / 127;
#X floatatom 375 556 5 0 0 0 - - -;
#X obj 416 649 sel 1;
#X obj 416 666 tgl 15 0 empty empty empty 17 7 0 10 -262144 -1 -1 0
1;
#X obj 185 105 gain;
#X obj 455 588 / 127;
#X floatatom 455 603 5 0 0 0 - - -;
#X obj 456 633 / 127;
#X floatatom 456 649 5 0 0 0 - - -;
#X obj 456 665 inlet~;
#X obj 455 541 / 127;
#X floatatom 455 556 5 0 0 0 - - -;
#X obj 496 649 sel 1;
#X obj 496 666 tgl 15 0 empty empty empty 17 7 0 10 -262144 -1 -1 0
1;
#X obj 265 105 gain;
#X obj 535 588 / 127;
#X floatatom 535 603 5 0 0 0 - - -;
#X obj 536 633 / 127;
#X floatatom 536 649 5 0 0 0 - - -;
#X obj 536 665 inlet~;
#X obj 535 541 / 127;
#X floatatom 535 556 5 0 0 0 - - -;
#X obj 576 649 sel 1;
#X obj 576 666 tgl 15 0 empty empty empty 17 7 0 10 -262144 -1 -1 0
1;
#X obj 345 105 gain;
#X obj 615 588 / 127;
#X floatatom 615 603 5 0 0 0 - - -;
#X obj 616 633 / 127;
#X floatatom 616 649 5 0 0 0 - - -;
#X obj 616 665 inlet~;
#X obj 615 541 / 127;
#X floatatom 615 556 5 0 0 0 - - -;
#X obj 656 649 sel 1;
#X obj 656 666 tgl 15 0 empty empty empty 17 7 0 10 -262144 -1 -1 0
1;
#X obj 425 105 gain;
#X obj 695 588 / 127;
#X floatatom 695 603 5 0 0 0 - - -;
#X obj 696 633 / 127;
#X floatatom 696 649 5 0 0 0 - - -;
#X obj 696 665 inlet~;
#X obj 695 541 / 127;
#X floatatom 695 556 5 0 0 0 - - -;
#X obj 736 649 sel 1;
#X obj 736 666 tgl 15 0 empty empty empty 17 7 0 10 -262144 -1 -1 0
1;
#X obj 505 105 gain;
#X obj 775 588 / 127;
#X floatatom 775 603 5 0 0 0 - - -;
#X obj 776 633 / 127;
#X floatatom 776 649 5 0 0 0 - - -;
#X obj 776 665 inlet~;
#X obj 775 541 / 127;
#X floatatom 775 556 5 0 0 0 - - -;
#X obj 816 649 sel 1;
#X obj 816 666 tgl 15 0 empty empty empty 17 7 0 10 -262144 -1 -1 0
1;
#X obj 585 105 gain;
#X obj 855 588 / 127;
#X floatatom 855 603 5 0 0 0 - - -;
#X obj 856 633 / 127;
#X floatatom 856 649 5 0 0 0 - - -;
#X obj 856 665 inlet~;
#X obj 855 541 / 127;
#X floatatom 855 556 5 0 0 0 - - -;
#X obj 896 649 sel 1;
#X obj 896 666 tgl 15 0 empty empty empty 17 7 0 10 -262144 -1 -1 0
1;
#X obj 665 105 gain;
#X obj 935 588 / 127;
#X floatatom 935 603 5 0 0 0 - - -;
#X obj 936 633 / 127;
#X floatatom 936 649 5 0 0 0 - - -;
#X obj 936 665 inlet~;
#X obj 935 541 / 127;
#X floatatom 935 556 5 0 0 0 - - -;
#X obj 976 649 sel 1;
#X obj 976 666 tgl 15 0 empty empty empty 17 7 0 10 -262144 -1 -1 0
1;
#X obj 569 391 dac~;
#X obj 390 391 writesf~ 2;
#X obj 305 403 f \$0;
#X obj 305 427 makefilename %d-rec.wav;
#X msg 305 448 open \$1;
#X obj 123 281 tgl 50 0 empty empty start/stop_rec -15 55 0 10 -4034
-1 -1 0 1;
#X obj 245 366 sel 1 0;
#X msg 220 411 start;
#X msg 270 414 stop;
#X obj 93 491 / 127;
#X obj 93 512 sel 1;
#X obj 174 486 / 127;
#X obj 174 507 sel 1;
#X msg 175 542 0;
#X msg 93 533 1;
#X obj 92 461 ctlin 45 1;
#X obj 173 460 ctlin 42 1;
#X obj 374 524 ctlin 48 1;
#X obj 374 571 ctlin 0 1;
#X obj 376 617 ctlin 16 1;
#X obj 456 617 ctlin 17 1;
#X obj 454 571 ctlin 1 1;
#X obj 454 524 ctlin 49 1;
#X obj 534 524 ctlin 50 1;
#X obj 535 571 ctlin 2 1;
#X obj 537 616 ctlin 18 1;
#X obj 616 617 ctlin 19 1;
#X obj 614 571 ctlin 3 1;
#X obj 614 524 ctlin 51 1;
#X obj 694 524 ctlin 52 1;
#X obj 694 571 ctlin 4 1;
#X obj 696 617 ctlin 20 1;
#X obj 776 617 ctlin 21 1;
#X obj 774 571 ctlin 5 1;
#X obj 774 524 ctlin 53 1;
#X obj 854 524 ctlin 54 1;
#X obj 854 571 ctlin 6 1;
#X obj 857 616 ctlin 22 1;
#X obj 936 617 ctlin 23 1;
#X obj 934 571 ctlin 7 1;
#X obj 934 524 ctlin 55 1;
#X connect 0 0 84 0;
#X connect 0 0 85 0;
#X connect 0 1 84 1;
#X connect 0 1 85 1;
#X connect 1 0 2 0;
#X connect 1 1 3 0;
#X connect 1 2 4 0;
#X connect 5 0 6 0;
#X connect 6 0 0 1;
#X connect 7 0 8 0;
#X connect 8 0 0 2;
#X connect 9 0 0 0;
#X connect 10 0 11 0;
#X connect 11 0 12 0;
#X connect 12 0 13 0;
#X connect 13 0 0 3;
#X connect 14 0 84 0;
#X connect 14 0 85 0;
#X connect 14 1 85 1;
#X connect 15 0 16 0;
#X connect 16 0 14 1;
#X connect 17 0 18 0;
#X connect 18 0 14 2;
#X connect 19 0 14 0;
#X connect 20 0 21 0;
#X connect 21 0 22 0;
#X connect 22 0 23 0;
#X connect 23 0 14 3;
#X connect 24 0 84 0;
#X connect 24 0 84 1;
#X connect 24 0 85 0;
#X connect 24 1 85 1;
#X connect 25 0 26 0;
#X connect 26 0 24 1;
#X connect 27 0 28 0;
#X connect 28 0 24 2;
#X connect 29 0 24 0;
#X connect 30 0 31 0;
#X connect 31 0 32 0;
#X connect 32 0 33 0;
#X connect 33 0 24 3;
#X connect 34 0 84 0;
#X connect 34 0 84 1;
#X connect 34 0 85 0;
#X connect 34 1 84 1;
#X connect 34 1 85 1;
#X connect 35 0 36 0;
#X connect 36 0 34 1;
#X connect 37 0 38 0;
#X connect 38 0 34 2;
#X connect 39 0 34 0;
#X connect 40 0 41 0;
#X connect 41 0 42 0;
#X connect 42 0 43 0;
#X connect 43 0 34 3;
#X connect 44 0 84 0;
#X connect 44 0 85 0;
#X connect 44 1 84 1;
#X connect 44 1 85 1;
#X connect 45 0 46 0;
#X connect 46 0 44 1;
#X connect 47 0 48 0;
#X connect 48 0 44 2;
#X connect 49 0 44 0;
#X connect 50 0 51 0;
#X connect 51 0 52 0;
#X connect 52 0 53 0;
#X connect 53 0 44 3;
#X connect 54 0 84 0;
#X connect 54 0 85 0;
#X connect 54 1 84 1;
#X connect 54 1 85 1;
#X connect 55 0 56 0;
#X connect 56 0 54 1;
#X connect 57 0 58 0;
#X connect 58 0 54 2;
#X connect 59 0 54 0;
#X connect 60 0 61 0;
#X connect 61 0 62 0;
#X connect 62 0 63 0;
#X connect 63 0 54 3;
#X connect 64 0 84 0;
#X connect 64 0 85 0;
#X connect 64 1 84 1;
#X connect 64 1 85 1;
#X connect 65 0 66 0;
#X connect 66 0 64 1;
#X connect 67 0 68 0;
#X connect 68 0 64 2;
#X connect 69 0 64 0;
#X connect 70 0 71 0;
#X connect 71 0 72 0;
#X connect 72 0 73 0;
#X connect 73 0 64 3;
#X connect 74 0 84 0;
#X connect 74 0 85 0;
#X connect 74 1 84 1;
#X connect 74 1 85 1;
#X connect 75 0 76 0;
#X connect 76 0 74 1;
#X connect 77 0 78 0;
#X connect 78 0 74 2;
#X connect 79 0 74 0;
#X connect 80 0 81 0;
#X connect 81 0 82 0;
#X connect 82 0 83 0;
#X connect 83 0 74 3;
#X connect 86 0 87 0;
#X connect 87 0 88 0;
#X connect 88 0 85 0;
#X connect 89 0 90 0;
#X connect 90 0 91 0;
#X connect 90 0 86 0;
#X connect 90 1 92 0;
#X connect 91 0 85 0;
#X connect 92 0 85 0;
#X connect 93 0 94 0;
#X connect 94 0 98 0;
#X connect 95 0 96 0;
#X connect 96 0 97 0;
#X connect 97 0 89 0;
#X connect 98 0 89 0;
#X connect 99 0 93 0;
#X connect 100 0 95 0;
#X connect 101 0 10 0;
#X connect 102 0 5 0;
#X connect 103 0 7 0;
#X connect 104 0 17 0;
#X connect 105 0 15 0;
#X connect 106 0 20 0;
#X connect 107 0 30 0;
#X connect 108 0 25 0;
#X connect 109 0 27 0;
#X connect 110 0 37 0;
#X connect 111 0 35 0;
#X connect 112 0 40 0;
#X connect 113 0 50 0;
#X connect 114 0 45 0;
#X connect 115 0 47 0;
#X connect 116 0 57 0;
#X connect 117 0 55 0;
#X connect 118 0 60 0;
#X connect 119 0 70 0;
#X connect 120 0 65 0;
#X connect 121 0 67 0;
#X connect 122 0 77 0;
#X connect 123 0 75 0;
#X connect 124 0 80 0;
#X coords 0 -1 1 1 650 250 2 100 100;
