#N canvas 60 58 799 710 10;
#X obj 198 396 inlet~;
#X obj 255 397 inlet~;
#X obj 309 397 inlet~;
#X obj 364 396 inlet~;
#X obj 416 396 inlet~;
#X obj 473 397 inlet~;
#X obj 527 397 inlet~;
#X obj 580 397 inlet~;
#X obj 135 799 outlet~;
#X obj 436 798 outlet~;
#X obj 529 211 cnv 15 100 60 empty empty empty 20 12 0 14 -233017 -66577
0;
#X obj 193 108 vsl 15 80 0 1 0 0 empty empty empty 0 -9 0 10 -262130
-1 -1 7900 1;
#X obj 231 109 vsl 15 80 0 1 0 0 empty empty empty 0 -9 0 10 -262130
-1 -1 0 1;
#X obj 271 110 vsl 15 80 0 1 0 0 empty empty empty 0 -9 0 10 -262130
-1 -1 0 1;
#X obj 310 109 vsl 15 80 0 1 0 0 empty empty empty 0 -9 0 10 -262130
-1 -1 0 1;
#X obj 351 110 vsl 15 80 0 1 0 0 empty empty empty 0 -9 0 10 -262130
-1 -1 0 1;
#X obj 390 109 vsl 15 80 0 1 0 0 empty empty empty 0 -9 0 10 -262130
-1 -1 0 1;
#X obj 428 109 vsl 15 80 0 1 0 0 empty empty empty 0 -9 0 10 -262130
-1 -1 0 1;
#X obj 466 109 vsl 15 80 0 1 0 0 empty empty empty 0 -9 0 10 -262130
-1 -1 0 1;
#X obj 183 197 hsl 30 15 0 100 0 0 empty empty empty -2 -8 0 10 -262144
-1 -1 1600 1;
#X obj 103 134 cnv 15 80 20 empty empty vol_+/- 20 12 0 14 -262144
-159808 0;
#X obj 103 193 cnv 15 60 20 empty empty pan_l/r 20 12 0 12 -262144
-4034 0;
#X obj 223 197 hsl 30 15 0 100 0 0 empty empty empty -2 -8 0 10 -262144
-1 -1 800 1;
#X obj 263 197 hsl 30 15 0 100 0 0 empty empty empty -2 -8 0 10 -262144
-1 -1 1300 1;
#X obj 304 197 hsl 30 15 0 100 0 0 empty empty empty -2 -8 0 10 -262144
-1 -1 2900 1;
#X obj 344 197 hsl 30 15 0 100 0 0 empty empty empty -2 -8 0 10 -262144
-1 -1 1500 1;
#X obj 384 197 hsl 30 15 0 100 0 0 empty empty empty -2 -8 0 10 -262144
-1 -1 1300 1;
#X obj 423 197 hsl 30 15 0 100 0 0 empty empty empty -2 -8 0 10 -262144
-1 -1 2900 1;
#X obj 463 197 hsl 30 15 0 100 0 0 empty empty empty -2 -8 0 10 -262144
-1 -1 900 1;
#X obj 231 503 *~;
#X obj 265 540 *~;
#X obj 304 567 *~;
#X obj 340 594 *~;
#X obj 377 571 *~;
#X obj 414 550 *~;
#X obj 455 529 *~;
#X obj 498 514 *~;
#X obj 23 633 crossfader;
#X obj 28 697 *~;
#X obj 61 700 *~;
#X obj 111 698 *~;
#X obj 144 701 *~;
#X obj 200 698 *~;
#X obj 233 701 *~;
#X obj 279 694 *~;
#X obj 312 697 *~;
#X obj 360 691 *~;
#X obj 393 694 *~;
#X obj 443 686 *~;
#X obj 476 689 *~;
#X obj 526 684 *~;
#X obj 559 687 *~;
#X obj 617 689 *~;
#X obj 650 692 *~;
#X obj 105 633 crossfader;
#X obj 184 635 crossfader;
#X obj 266 635 crossfader;
#X obj 354 635 crossfader;
#X obj 436 635 crossfader;
#X obj 515 637 crossfader;
#X obj 597 637 crossfader;
#X obj 102 231 cnv 15 50 10 empty empty l_out 20 12 0 8 -262144 -258113
0;
#X obj 439 229 cnv 15 50 10 empty empty r_out 20 12 0 8 -262144 -258113
0;
#N canvas 981 336 272 263 siglop 0;
#X obj 127 166 sig~;
#X obj 128 195 lop~ 1;
#X obj 138 12 inlet;
#X obj 129 231 outlet~;
#X obj 15 31 inlet;
#X obj 29 81 == 0;
#X obj 125 62 t b f;
#X obj 126 120 *;
#X connect 0 0 1 0;
#X connect 1 0 3 0;
#X connect 2 0 6 0;
#X connect 4 0 5 0;
#X connect 5 0 7 0;
#X connect 6 0 7 0;
#X connect 6 1 7 1;
#X connect 7 0 0 0;
#X restore 147 311 pd siglop;
#X obj 114 216 cnv 15 60 20 empty empty mute 20 12 0 12 -262144 -45076
0;
#X obj 198 219 tgl 15 0 empty empty empty 17 7 0 10 -262144 -1 -1 0
1;
#X obj 235 218 tgl 15 0 empty empty empty 17 7 0 10 -262144 -1 -1 0
1;
#X obj 273 219 tgl 15 0 empty empty empty 17 7 0 10 -262144 -1 -1 0
1;
#X obj 314 219 tgl 15 0 empty empty empty 17 7 0 10 -262144 -1 -1 0
1;
#X obj 353 219 tgl 15 0 empty empty empty 17 7 0 10 -262144 -1 -1 0
1;
#X obj 392 220 tgl 15 0 empty empty empty 17 7 0 10 -262144 -1 -1 0
1;
#X obj 431 220 tgl 15 0 empty empty empty 17 7 0 10 -262144 -1 -1 0
1;
#X obj 470 219 tgl 15 0 empty empty empty 17 7 0 10 -262144 -1 -1 0
1;
#N canvas 981 336 272 263 siglop 0;
#X obj 127 166 sig~;
#X obj 128 195 lop~ 1;
#X obj 138 12 inlet;
#X obj 129 231 outlet~;
#X obj 15 31 inlet;
#X obj 29 81 == 0;
#X obj 125 62 t b f;
#X obj 126 120 *;
#X connect 0 0 1 0;
#X connect 1 0 3 0;
#X connect 2 0 6 0;
#X connect 4 0 5 0;
#X connect 5 0 7 0;
#X connect 6 0 7 0;
#X connect 6 1 7 1;
#X connect 7 0 0 0;
#X restore 228 311 pd siglop;
#N canvas 981 336 272 263 siglop 0;
#X obj 127 166 sig~;
#X obj 128 195 lop~ 1;
#X obj 138 12 inlet;
#X obj 129 231 outlet~;
#X obj 15 31 inlet;
#X obj 29 81 == 0;
#X obj 125 62 t b f;
#X obj 126 120 *;
#X connect 0 0 1 0;
#X connect 1 0 3 0;
#X connect 2 0 6 0;
#X connect 4 0 5 0;
#X connect 5 0 7 0;
#X connect 6 0 7 0;
#X connect 6 1 7 1;
#X connect 7 0 0 0;
#X restore 300 311 pd siglop;
#N canvas 981 336 272 263 siglop 0;
#X obj 127 166 sig~;
#X obj 128 195 lop~ 1;
#X obj 138 12 inlet;
#X obj 129 231 outlet~;
#X obj 15 31 inlet;
#X obj 29 81 == 0;
#X obj 125 62 t b f;
#X obj 126 120 *;
#X connect 0 0 1 0;
#X connect 1 0 3 0;
#X connect 2 0 6 0;
#X connect 4 0 5 0;
#X connect 5 0 7 0;
#X connect 6 0 7 0;
#X connect 6 1 7 1;
#X connect 7 0 0 0;
#X restore 381 311 pd siglop;
#N canvas 981 336 272 263 siglop 0;
#X obj 127 166 sig~;
#X obj 128 195 lop~ 1;
#X obj 138 12 inlet;
#X obj 129 231 outlet~;
#X obj 15 31 inlet;
#X obj 29 81 == 0;
#X obj 125 62 t b f;
#X obj 126 120 *;
#X connect 0 0 1 0;
#X connect 1 0 3 0;
#X connect 2 0 6 0;
#X connect 4 0 5 0;
#X connect 5 0 7 0;
#X connect 6 0 7 0;
#X connect 6 1 7 1;
#X connect 7 0 0 0;
#X restore 456 311 pd siglop;
#N canvas 981 336 272 263 siglop 0;
#X obj 127 166 sig~;
#X obj 128 195 lop~ 1;
#X obj 138 12 inlet;
#X obj 129 231 outlet~;
#X obj 15 31 inlet;
#X obj 29 81 == 0;
#X obj 125 62 t b f;
#X obj 126 120 *;
#X connect 0 0 1 0;
#X connect 1 0 3 0;
#X connect 2 0 6 0;
#X connect 4 0 5 0;
#X connect 5 0 7 0;
#X connect 6 0 7 0;
#X connect 6 1 7 1;
#X connect 7 0 0 0;
#X restore 537 311 pd siglop;
#N canvas 981 336 272 263 siglop 0;
#X obj 127 166 sig~;
#X obj 128 195 lop~ 1;
#X obj 138 12 inlet;
#X obj 129 231 outlet~;
#X obj 15 31 inlet;
#X obj 29 81 == 0;
#X obj 125 62 t b f;
#X obj 126 120 *;
#X connect 0 0 1 0;
#X connect 1 0 3 0;
#X connect 2 0 6 0;
#X connect 4 0 5 0;
#X connect 5 0 7 0;
#X connect 6 0 7 0;
#X connect 6 1 7 1;
#X connect 7 0 0 0;
#X restore 609 311 pd siglop;
#N canvas 981 336 272 263 siglop 0;
#X obj 127 166 sig~;
#X obj 128 195 lop~ 1;
#X obj 138 12 inlet;
#X obj 129 231 outlet~;
#X obj 15 31 inlet;
#X obj 29 81 == 0;
#X obj 125 62 t b f;
#X obj 126 120 *;
#X connect 0 0 1 0;
#X connect 1 0 3 0;
#X connect 2 0 6 0;
#X connect 4 0 5 0;
#X connect 5 0 7 0;
#X connect 6 0 7 0;
#X connect 6 1 7 1;
#X connect 7 0 0 0;
#X restore 690 311 pd siglop;
#X connect 0 0 29 0;
#X connect 1 0 30 0;
#X connect 2 0 31 0;
#X connect 3 0 32 0;
#X connect 4 0 33 0;
#X connect 5 0 34 0;
#X connect 6 0 35 0;
#X connect 7 0 36 0;
#X connect 11 0 63 1;
#X connect 12 0 73 1;
#X connect 13 0 74 1;
#X connect 14 0 75 1;
#X connect 15 0 76 1;
#X connect 16 0 77 1;
#X connect 17 0 78 1;
#X connect 18 0 79 1;
#X connect 19 0 37 0;
#X connect 22 0 54 0;
#X connect 23 0 55 0;
#X connect 24 0 56 0;
#X connect 25 0 57 0;
#X connect 26 0 58 0;
#X connect 27 0 59 0;
#X connect 28 0 60 0;
#X connect 29 0 38 0;
#X connect 29 0 39 0;
#X connect 30 0 40 0;
#X connect 30 0 41 0;
#X connect 31 0 42 0;
#X connect 31 0 43 0;
#X connect 32 0 44 0;
#X connect 32 0 45 0;
#X connect 33 0 46 0;
#X connect 33 0 47 0;
#X connect 34 0 48 0;
#X connect 34 0 49 0;
#X connect 35 0 50 0;
#X connect 35 0 51 0;
#X connect 36 0 52 0;
#X connect 36 0 53 0;
#X connect 37 0 38 1;
#X connect 37 1 39 1;
#X connect 38 0 8 0;
#X connect 39 0 9 0;
#X connect 40 0 8 0;
#X connect 41 0 9 0;
#X connect 42 0 8 0;
#X connect 43 0 9 0;
#X connect 44 0 8 0;
#X connect 45 0 9 0;
#X connect 46 0 8 0;
#X connect 47 0 9 0;
#X connect 48 0 8 0;
#X connect 49 0 9 0;
#X connect 50 0 8 0;
#X connect 51 0 9 0;
#X connect 52 0 8 0;
#X connect 53 0 9 0;
#X connect 54 0 40 1;
#X connect 54 1 41 1;
#X connect 55 0 42 1;
#X connect 55 1 43 1;
#X connect 56 0 44 1;
#X connect 56 1 45 1;
#X connect 57 0 46 1;
#X connect 57 1 47 1;
#X connect 58 0 48 1;
#X connect 58 1 49 1;
#X connect 59 0 50 1;
#X connect 59 1 51 1;
#X connect 60 0 52 1;
#X connect 60 1 53 1;
#X connect 63 0 29 1;
#X connect 65 0 63 0;
#X connect 66 0 73 0;
#X connect 67 0 74 0;
#X connect 68 0 75 0;
#X connect 69 0 76 0;
#X connect 70 0 77 0;
#X connect 71 0 78 0;
#X connect 72 0 79 0;
#X connect 73 0 30 1;
#X connect 74 0 31 1;
#X connect 75 0 32 1;
#X connect 76 0 33 1;
#X connect 77 0 34 1;
#X connect 78 0 35 1;
#X connect 79 0 36 1;
#X coords 0 -1 1 1 400 150 1 100 100;
