#N canvas 60 58 681 710 10;
#X obj 228 236 bng 15 250 50 0 empty empty empty 17 7 0 10 -262144
-1 -1;
#X obj 258 427 line;
#X obj 335 423 line, f 5;
#X obj 280 456 sel 1;
#X floatatom 257 477 5 0 0 0 - - -;
#X floatatom 336 447 5 0 0 0 - - -;
#X obj 478 524 line;
#X floatatom 478 548 5 0 0 0 - - -;
#X obj 245 556 sig~;
#X obj 316 512 pipe;
#X msg 217 514 flush, f 7;
#X floatatom 314 562 5 0 0 0 - - -;
#X obj 243 583 lop~ 100;
#X floatatom 101 181 0 0 0 0 - - -;
#X obj 355 249 pack f f f f;
#X floatatom 125 182 5 0 0 0 - - -;
#X floatatom 161 181 5 0 0 0 - - -;
#X floatatom 195 181 5 0 0 0 - - -;
#X msg 342 280 \$1;
#X msg 379 289 \$2;
#X msg 412 290 \$3;
#X msg 579 334 \$4;
#X floatatom 334 311 5 0 0 0 - - -;
#X obj 269 348 pack 0 1 f;
#X msg 250 403 \$1 \, \$2 \$3;
#X floatatom 374 312 5 0 0 0 - - -;
#X obj 344 348 pack 1 f f;
#X msg 342 388 \$1 \, \$2 \$3;
#X floatatom 412 311 5 0 0 0 - - -;
#X floatatom 579 357 5 0 0 0 - - -;
#X msg 443 291 \$2;
#X floatatom 476 352 5 0 0 0 - - -;
#X obj 478 418 spigot;
#X obj 583 180 sel 1;
#X obj 584 121 line;
#X obj 586 150 tgl 15 0 empty empty empty 17 7 0 10 -262144 -1 -1 0
1;
#X floatatom 480 439 5 0 0 0 - - -;
#X obj 512 353 == 0;
#X floatatom 520 377 5 0 0 0 - - -;
#X obj 478 468 pack f f 0 f;
#X msg 478 498 \$2 \, \$3 \$4;
#X obj 523 417 sel 1;
#X obj 180 588 *~;
#X msg 583 96 1 \, 0 1000;
#X obj 367 479 sel;
#X obj 367 512 bng 15 250 50 0 empty empty empty 17 7 0 10 -262144
-1 -1;
#X obj 126 520 inlet~;
#X obj 180 609 outlet~;
#X obj 106 105 vsl 15 70 0 200 0 0 empty empty empty 0 -9 0 10 -262144
-1 -1 100 1;
#X obj 136 104 vsl 15 70 0 0.9 0 0 empty empty empty 0 -9 0 10 -262144
-1 -1 5400 1;
#X obj 167 104 vsl 15 70 0 500 0 0 empty empty empty 0 -9 0 10 -262144
-1 -1 4400 1;
#X obj 201 104 vsl 15 70 0 500 0 0 empty empty empty 0 -9 0 10 -262144
-1 -1 6900 1;
#X obj 329 134 inlet;
#X connect 0 0 10 0;
#X connect 0 0 23 0;
#X connect 0 0 13 0;
#X connect 1 0 3 0;
#X connect 1 0 4 0;
#X connect 2 0 5 0;
#X connect 3 0 26 0;
#X connect 4 0 9 0;
#X connect 5 0 9 0;
#X connect 5 0 44 0;
#X connect 6 0 7 0;
#X connect 7 0 11 0;
#X connect 8 0 12 0;
#X connect 9 0 11 0;
#X connect 10 0 9 0;
#X connect 11 0 8 0;
#X connect 12 0 42 1;
#X connect 13 0 14 0;
#X connect 14 0 18 0;
#X connect 14 0 19 0;
#X connect 14 0 20 0;
#X connect 14 0 21 0;
#X connect 14 0 30 0;
#X connect 15 0 14 1;
#X connect 16 0 14 2;
#X connect 17 0 14 3;
#X connect 18 0 22 0;
#X connect 19 0 25 0;
#X connect 20 0 28 0;
#X connect 21 0 29 0;
#X connect 22 0 23 2;
#X connect 23 0 24 0;
#X connect 24 0 1 0;
#X connect 25 0 26 1;
#X connect 25 0 44 1;
#X connect 26 0 27 0;
#X connect 27 0 2 0;
#X connect 28 0 26 2;
#X connect 29 0 39 3;
#X connect 30 0 31 0;
#X connect 31 0 32 0;
#X connect 31 0 39 1;
#X connect 32 0 36 0;
#X connect 34 0 35 0;
#X connect 35 0 33 0;
#X connect 36 0 39 1;
#X connect 37 0 32 1;
#X connect 37 0 38 0;
#X connect 38 0 41 0;
#X connect 39 0 40 0;
#X connect 40 0 6 0;
#X connect 41 0 39 0;
#X connect 42 0 47 0;
#X connect 43 0 34 0;
#X connect 44 0 45 0;
#X connect 45 0 39 0;
#X connect 46 0 42 0;
#X connect 48 0 13 0;
#X connect 49 0 15 0;
#X connect 50 0 16 0;
#X connect 51 0 17 0;
#X connect 52 0 0 0;
#X coords 0 -1 1 1 130 100 2 100 100;
