#N canvas 161 103 1145 518 10;
#X obj 360 32 ctlin;
#X floatatom 332 75 5 0 0 0 - - -;
#X floatatom 514 71 5 0 0 0 - - -;
#X floatatom 397 77 5 0 0 0 - - -;
#X obj 473 369 sel 43;
#X obj 423 369 == 127;
#X obj 434 397 tgl 15 0 empty empty empty 17 7 0 10 -262144 -1 -1 0
1;
#X obj 430 425 spigot;
#X obj 117 134 tgl 15 0 empty empty empty 17 7 0 10 -262144 -1 -1 0
1;
#X obj 528 369 == 127;
#X obj 527 395 tgl 15 0 empty empty empty 17 7 0 10 -262144 -1 -1 0
1;
#X obj 535 425 spigot;
#X obj 133 134 tgl 15 0 empty empty empty 17 7 0 10 -262144 -1 -1 0
1;
#X obj 578 369 sel 44;
#X obj 627 373 == 127;
#X obj 626 399 tgl 15 0 empty empty empty 17 7 0 10 -262144 -1 -1 0
1;
#X obj 634 429 spigot;
#X obj 149 134 tgl 15 0 empty empty empty 17 7 0 10 -262144 -1 -1 0
1;
#X obj 677 373 sel 42;
#X obj 724 374 == 127;
#X obj 723 400 tgl 15 0 empty empty empty 17 7 0 10 -262144 -1 -1 0
1;
#X obj 731 430 spigot;
#X obj 165 134 tgl 15 0 empty empty empty 17 7 0 10 -262144 -1 -1 0
1;
#X obj 774 374 sel 41;
#X obj 820 374 == 127;
#X obj 819 400 tgl 15 0 empty empty empty 17 7 0 10 -262144 -1 -1 0
1;
#X obj 827 430 spigot;
#X obj 181 134 tgl 15 0 empty empty empty 17 7 0 10 -262144 -1 -1 0
1;
#X obj 870 374 sel 45;
#X obj 326 217 outlet;
#X obj 370 218 outlet;
#X obj 414 218 outlet;
#X obj 458 219 outlet;
#X obj 502 220 outlet;
#X obj 410 280 == 127;
#X obj 409 306 tgl 15 0 empty empty empty 17 7 0 10 -262144 -1 -1 0
1;
#X obj 417 336 spigot;
#X obj 636 257 == 127;
#X obj 635 283 tgl 15 0 empty empty empty 17 7 0 10 -262144 -1 -1 0
1;
#X obj 643 313 spigot;
#X obj 731 256 == 127;
#X obj 730 282 tgl 15 0 empty empty empty 17 7 0 10 -262144 -1 -1 0
1;
#X obj 738 312 spigot;
#X obj 833 257 == 127;
#X obj 832 283 tgl 15 0 empty empty empty 17 7 0 10 -262144 -1 -1 0
1;
#X obj 840 313 spigot;
#X obj 558 57 == 127;
#X obj 557 83 tgl 15 0 empty empty empty 17 7 0 10 -262144 -1 -1 0
1;
#X obj 565 113 spigot;
#X obj 660 58 == 127;
#X obj 659 84 tgl 15 0 empty empty empty 17 7 0 10 -262144 -1 -1 0
1;
#X obj 667 114 spigot;
#X obj 460 280 sel 46;
#X obj 686 257 sel 60;
#X obj 781 256 sel 61;
#X obj 883 257 sel 62;
#X obj 608 57 sel 58;
#X obj 710 58 sel 59;
#X obj 149 118 tgl 15 0 empty empty empty 17 7 0 10 -262144 -1 -1 0
1;
#X obj 165 118 tgl 15 0 empty empty empty 17 7 0 10 -262144 -1 -1 0
1;
#X obj 181 118 tgl 15 0 empty empty empty 17 7 0 10 -262144 -1 -1 0
1;
#X obj 117 118 tgl 15 0 empty empty empty 17 7 0 10 -262144 -1 -1 0
1;
#X obj 15 312 outlet;
#X obj 62 313 outlet;
#X obj 118 353 outlet;
#X obj 166 355 outlet;
#X obj 211 355 outlet;
#X obj 258 352 outlet;
#X obj 117 102 tgl 15 0 empty empty empty 17 7 0 10 -262144 -1 -1 0
1;
#X obj 133 102 tgl 15 0 empty empty empty 17 7 0 10 -262144 -1 -1 0
1;
#X connect 0 0 1 0;
#X connect 0 1 2 0;
#X connect 0 2 3 0;
#X connect 1 0 5 0;
#X connect 1 0 9 0;
#X connect 1 0 14 0;
#X connect 1 0 19 0;
#X connect 1 0 24 0;
#X connect 1 0 34 0;
#X connect 1 0 37 0;
#X connect 1 0 40 0;
#X connect 1 0 43 0;
#X connect 1 0 46 0;
#X connect 1 0 49 0;
#X connect 2 0 4 0;
#X connect 2 0 13 0;
#X connect 2 0 18 0;
#X connect 2 0 23 0;
#X connect 2 0 28 0;
#X connect 2 0 52 0;
#X connect 2 0 53 0;
#X connect 2 0 54 0;
#X connect 2 0 55 0;
#X connect 2 0 56 0;
#X connect 2 0 57 0;
#X connect 4 0 7 0;
#X connect 5 0 6 0;
#X connect 6 0 7 1;
#X connect 7 0 8 0;
#X connect 8 0 29 0;
#X connect 9 0 10 0;
#X connect 10 0 11 1;
#X connect 11 0 12 0;
#X connect 12 0 30 0;
#X connect 13 0 11 0;
#X connect 14 0 15 0;
#X connect 15 0 16 1;
#X connect 16 0 17 0;
#X connect 17 0 31 0;
#X connect 18 0 16 0;
#X connect 19 0 20 0;
#X connect 20 0 21 1;
#X connect 21 0 22 0;
#X connect 22 0 32 0;
#X connect 23 0 21 0;
#X connect 24 0 25 0;
#X connect 25 0 26 1;
#X connect 26 0 27 0;
#X connect 27 0 33 0;
#X connect 28 0 26 0;
#X connect 34 0 35 0;
#X connect 35 0 36 1;
#X connect 36 0 61 0;
#X connect 37 0 38 0;
#X connect 38 0 39 1;
#X connect 39 0 58 0;
#X connect 40 0 41 0;
#X connect 41 0 42 1;
#X connect 42 0 59 0;
#X connect 43 0 44 0;
#X connect 44 0 45 1;
#X connect 45 0 60 0;
#X connect 46 0 47 0;
#X connect 47 0 48 1;
#X connect 48 0 68 0;
#X connect 49 0 50 0;
#X connect 50 0 51 1;
#X connect 51 0 69 0;
#X connect 52 0 36 0;
#X connect 53 0 39 0;
#X connect 54 0 42 0;
#X connect 55 0 45 0;
#X connect 56 0 48 0;
#X connect 57 0 51 0;
#X connect 58 0 65 0;
#X connect 59 0 66 0;
#X connect 60 0 67 0;
#X connect 61 0 64 0;
#X connect 68 0 62 0;
#X connect 69 0 63 0;
#X coords 0 -1 1 1 120 60 2 100 100;
