#N canvas 694 70 656 682 10;
#X obj 86 70 unpackOSC;
#X obj 29 124 unpack f;
#X floatatom 29 146 5 0 0 0 - - -;
#X obj 86 49 udpreceive 34567;
#X obj 29 101 routeOSC /aX /aY;
#X obj 86 123 unpack f;
#X floatatom 86 145 5 0 0 0 - - -;
#X obj 226 72 unpackOSC;
#X obj 226 50 udpreceive 12345;
#X obj 265 116 routeOSC /tile/0 /tile/1 /tile/2 /tile/3 /tile/4 /tile/5
/tile/6 /tile/7 /tile/8;
#X obj 213 165 packOSC;
#X obj 193 318 udpsend;
#X floatatom 304 170 5 0 0 0 - - -;
#X text 411 356 // 192.168.1.10;
#X msg 236 262 connect 192.168.1.10 34567;
#X connect 0 0 4 0;
#X connect 1 0 2 0;
#X connect 3 0 0 0;
#X connect 4 0 1 0;
#X connect 4 1 5 0;
#X connect 5 0 6 0;
#X connect 7 0 9 0;
#X connect 7 0 10 0;
#X connect 8 0 7 0;
#X connect 9 0 12 0;
#X connect 10 0 11 0;
#X connect 14 0 11 0;
