#N canvas 431 151 670 625 10;
#X obj 234 48 unpackOSC;
#X obj 234 86 routeOSC /test;
#X obj 234 13 udpreceive 9999;
#X floatatom 79 245 5 0 0 0 - - -, f 5;
#X obj 87 290 osc~;
#X obj 85 355 dac~;
#X obj 234 127 unpack 0;
#X obj 238 180 trigger f f f;
#X floatatom 299 302 5 0 0 0 - - -, f 5;
#X floatatom 390 302 5 0 0 0 - - -, f 5;
#X floatatom 345 303 5 0 0 0 - - -, f 5;
#X obj 303 340 +;
#X obj 350 407 +;
#X floatatom 311 380 5 0 0 0 - - -, f 5;
#X floatatom 353 446 5 0 0 0 - - -, f 5;
#X floatatom 354 511 5 0 0 0 - - -, f 5;
#X obj 288 248 pipe 1 2 3 100;
#X obj 358 475 / 3;
#X connect 0 0 1 0;
#X connect 1 0 6 0;
#X connect 2 0 0 0;
#X connect 3 0 4 0;
#X connect 4 0 5 0;
#X connect 6 0 7 0;
#X connect 7 0 16 0;
#X connect 7 1 16 1;
#X connect 7 2 16 2;
#X connect 8 0 11 0;
#X connect 9 0 12 1;
#X connect 10 0 11 1;
#X connect 11 0 13 0;
#X connect 12 0 14 0;
#X connect 13 0 12 0;
#X connect 14 0 17 0;
#X connect 16 0 8 0;
#X connect 16 1 10 0;
#X connect 16 2 9 0;
#X connect 17 0 15 0;
