#N canvas 686 408 670 625 10;
#X obj 234 68 unpackOSC;
#X floatatom 79 245 5 0 0 0 - - -;
#X obj 87 290 osc~;
#X obj 85 355 dac~;
#X obj 234 127 unpack 0;
#X obj 238 180 trigger f f f;
#X floatatom 299 302 5 0 0 0 - - -;
#X floatatom 390 302 5 0 0 0 - - -;
#X floatatom 345 303 5 0 0 0 - - -;
#X obj 303 340 +;
#X obj 350 407 +;
#X floatatom 311 380 5 0 0 0 - - -;
#X floatatom 353 446 5 0 0 0 - - -;
#X floatatom 354 511 5 0 0 0 - - -;
#X obj 288 248 pipe 1 2 3 100;
#X obj 358 475 / 3;
#X obj 273 92 routeOSC /analog/0;
#X obj 238 23 udpreceive 9999;
#X obj 188 192 print;
#X connect 0 0 16 0;
#X connect 1 0 2 0;
#X connect 2 0 3 0;
#X connect 4 0 5 0;
#X connect 4 0 18 0;
#X connect 5 0 14 0;
#X connect 5 1 14 1;
#X connect 5 2 14 2;
#X connect 6 0 9 0;
#X connect 7 0 10 1;
#X connect 8 0 9 1;
#X connect 9 0 11 0;
#X connect 10 0 12 0;
#X connect 11 0 10 0;
#X connect 12 0 15 0;
#X connect 14 0 6 0;
#X connect 14 1 8 0;
#X connect 14 2 7 0;
#X connect 15 0 13 0;
#X connect 16 0 4 0;
#X connect 17 0 0 0;
