#N canvas 922 70 428 682 12;
#X obj 647 189 f \$0;
#X floatatom 647 211 5 0 0 0 - - -;
#X text 637 162 make unique code for each instance;
#X obj 553 326 soundfiler;
#X msg 553 305 read -resize \$1 \$2;
#X text 688 305 read/resize for soundfiler object;
#X obj 655 328 bng 15 250 50 0 empty empty empty 17 7 0 10 -262144
-1 -1;
#X floatatom 553 348 5 0 0 0 - - -;
#X obj 649 234 makefilename %d-file;
#X obj 553 369 s \$0-sampLength;
#X obj 655 347 s \$0-sBang;
#X obj 520 129 inlet path;
#X msg 188 277 \$1 \, \$2 \$3;
#X text 174 197 playback sample;
#X obj 187 313 line~;
#X obj 187 337 tabread4~ \$0-file;
#X msg 117 220 bang;
#X obj 190 245 pack 0 f f;
#X msg 154 221 0;
#X obj 187 374 outlet~;
#X obj 106 185 inlet;
#X text 95 167 trigger in;
#X obj 186 221 r \$0-sampLength;
#X obj 312 218 r \$0-time;
#X obj 674 453 samplerate~;
#X obj 653 451 bng 15 250 50 0 empty empty empty 17 7 0 10 -262144
-1 -1;
#X text 596 405 calculate playback speed;
#X obj 659 496 /;
#X floatatom 659 517 5 0 0 0 - - -;
#X obj 674 474 / 1000;
#X obj 567 422 r \$0-sampLength;
#X obj 683 425 r \$0-sBang;
#X obj 658 548 s \$0-time;
#X obj 622 122 bng 15 250 50 0 empty empty empty 17 7 0 10 -262144
-1 -1;
#X obj 530 170 t b a;
#X obj 553 265 pack s s;
#X obj 650 266 array define \$0-file;
#X obj 646 135 loadbang;
#X connect 0 0 1 0;
#X connect 1 0 8 0;
#X connect 3 0 7 0;
#X connect 4 0 3 0;
#X connect 4 0 6 0;
#X connect 6 0 7 0;
#X connect 6 0 10 0;
#X connect 7 0 9 0;
#X connect 8 0 35 1;
#X connect 8 0 36 0;
#X connect 11 0 34 0;
#X connect 12 0 14 0;
#X connect 14 0 15 0;
#X connect 15 0 19 0;
#X connect 16 0 17 0;
#X connect 17 0 12 0;
#X connect 18 0 17 0;
#X connect 20 0 16 0;
#X connect 22 0 17 1;
#X connect 23 0 17 2;
#X connect 24 0 29 0;
#X connect 25 0 27 0;
#X connect 27 0 28 0;
#X connect 28 0 32 0;
#X connect 29 0 27 1;
#X connect 30 0 27 0;
#X connect 31 0 24 0;
#X connect 31 0 25 0;
#X connect 33 0 0 0;
#X connect 34 0 0 0;
#X connect 34 1 35 0;
#X connect 35 0 4 0;
#X connect 37 0 0 0;
