#N canvas 4 58 1358 706 10;
#X obj 227 352 soundPlay;
#X obj 428 649 dac~;
#X floatatom 272 635 5 0 0 0 - - -;
#X obj 432 354 soundPlay;
#X obj 633 651 dac~;
#X floatatom 477 637 5 0 0 0 - - -;
#X obj 641 355 soundPlay;
#X obj 842 652 dac~;
#X floatatom 686 638 5 0 0 0 - - -;
#X obj 847 361 soundPlay;
#X obj 1047 654 dac~;
#X floatatom 891 640 5 0 0 0 - - -;
#X obj 158 300 osc~ 100;
#X obj 422 320 osc~ 110;
#X obj 634 320 osc~ 115;
#X obj 217 20 LKPadGrid;
#X obj 231 276 bng 15 250 50 0 empty empty empty 17 7 0 10 -262144
-1 -1;
#X obj 237 303 tgl 15 0 empty empty empty 17 7 0 10 -262144 -1 -1 1
1;
#X obj 230 247 sel 1;
#X obj 480 4 LKPadGrid;
#X obj 499 259 bng 15 250 50 0 empty empty empty 17 7 0 10 -262144
-1 -1;
#X obj 505 286 tgl 15 0 empty empty empty 17 7 0 10 -262144 -1 -1 1
1;
#X obj 498 230 sel 1;
#X obj 717 4 LKPadGrid;
#X obj 736 259 bng 15 250 50 0 empty empty empty 17 7 0 10 -262144
-1 -1;
#X obj 742 286 tgl 15 0 empty empty empty 17 7 0 10 -262144 -1 -1 1
1;
#X obj 735 230 sel 1;
#X obj 972 10 LKPadGrid;
#X obj 991 265 bng 15 250 50 0 empty empty empty 17 7 0 10 -262144
-1 -1;
#X obj 997 292 tgl 15 0 empty empty empty 17 7 0 10 -262144 -1 -1 1
1;
#X obj 990 236 sel 1;
#X obj 1173 281 sinOut;
#X obj 372 604 lop~ 220;
#X obj 583 610 lop~ 220;
#X obj 323 257 sinOut;
#X obj 545 272 sinOut;
#X obj 764 254 sinOut;
#X obj 898 254 sinOut;
#X obj 73 506 delay2;
#X obj 1110 460 delay2;
#X obj 750 601 lop~ 220;
#X obj 992 617 lop~ 220;
#X obj 59 209 sinOut;
#X obj 831 312 osc~ 440;
#X connect 0 0 2 0;
#X connect 0 1 32 0;
#X connect 3 0 5 0;
#X connect 3 1 33 0;
#X connect 6 0 8 0;
#X connect 6 1 40 0;
#X connect 9 0 11 0;
#X connect 9 1 41 0;
#X connect 12 0 0 0;
#X connect 13 0 3 0;
#X connect 14 0 6 0;
#X connect 15 0 18 0;
#X connect 15 1 0 2;
#X connect 16 0 17 0;
#X connect 17 0 0 1;
#X connect 18 0 16 0;
#X connect 19 0 22 0;
#X connect 19 1 3 2;
#X connect 20 0 21 0;
#X connect 21 0 3 1;
#X connect 22 0 20 0;
#X connect 23 0 26 0;
#X connect 23 1 6 2;
#X connect 24 0 25 0;
#X connect 25 0 6 1;
#X connect 26 0 24 0;
#X connect 27 0 30 0;
#X connect 27 1 9 2;
#X connect 28 0 29 0;
#X connect 29 0 9 1;
#X connect 30 0 28 0;
#X connect 31 0 9 5;
#X connect 31 0 6 5;
#X connect 31 0 3 5;
#X connect 32 0 1 1;
#X connect 32 0 1 0;
#X connect 32 0 38 0;
#X connect 33 0 4 0;
#X connect 33 0 4 1;
#X connect 33 0 38 0;
#X connect 34 0 0 7;
#X connect 35 0 3 7;
#X connect 36 0 6 7;
#X connect 37 0 9 7;
#X connect 38 0 1 0;
#X connect 39 0 10 1;
#X connect 40 0 7 0;
#X connect 40 0 7 1;
#X connect 40 0 39 0;
#X connect 41 0 10 0;
#X connect 41 0 10 1;
#X connect 41 0 39 0;
#X connect 42 0 0 4;
#X connect 43 0 9 0;
