#N canvas 4 58 1358 675 10;
#X obj 230 219 samplePlay;
#X obj 446 220 samplePlay;
#X obj 661 218 samplePlay;
#X obj 877 219 samplePlay;
#X obj 133 -21 LKPadGrid;
#X obj 991 -36 LKPadGrid;
#X obj 624 640 dac~;
#X floatatom 614 131 5 0 0 0 - - -;
#X obj 541 161 *;
#X obj 417 11 sinOut;
#X obj 512 8 sinOut;
#X obj 609 7 sinOut;
#X obj 702 7 sinOut;
#X obj 1156 453 delay2;
#X obj 94 435 delay2;
#X floatatom 838 555 10 0 0 0 - - -;
#X connect 0 0 14 0;
#X connect 1 0 14 0;
#X connect 1 1 7 0;
#X connect 2 0 13 0;
#X connect 2 1 15 0;
#X connect 3 0 13 0;
#X connect 4 0 0 0;
#X connect 4 1 1 0;
#X connect 5 0 2 0;
#X connect 5 1 3 0;
#X connect 9 0 0 2;
#X connect 10 0 1 2;
#X connect 11 0 2 2;
#X connect 12 0 3 2;
#X connect 13 0 6 1;
#X connect 14 0 6 0;
