#N canvas 694 70 656 682 10;
#X obj 23 200 line~;
#X obj 19 132 bng 15 250 50 0 empty empty empty 17 7 0 10 -262144 -1
-1;
#X floatatom 237 152 5 0 0 0 - - -;
#X obj 23 225 *~;
#X obj 26 251 *~;
#X obj 26 278 *~;
#X obj 27 305 *~;
#X obj 26 324 outlet~;
#X obj 237 127 * 1000;
#X obj 20 172 pack 1 \$1;
#X msg 124 66 5;
#X msg 154 66 10;
#X obj 87 172 pack 0 \$3;
#X obj 87 140 del \$2;
#X obj 19 103 inlet trig;
#X obj 86 102 inlet attack;
#X obj 168 101 inlet dcay;
#X obj 237 101 inlet release;
#X msg 183 67 5;
#X obj 137 19 loadbang;
#X text 278 58 <-- initial values;
#X connect 0 0 3 0;
#X connect 0 0 3 1;
#X connect 1 0 9 0;
#X connect 1 0 13 0;
#X connect 2 0 12 1;
#X connect 3 0 4 0;
#X connect 3 0 4 1;
#X connect 4 0 5 0;
#X connect 4 0 5 1;
#X connect 5 0 6 0;
#X connect 5 0 6 1;
#X connect 6 0 7 0;
#X connect 8 0 2 0;
#X connect 9 0 0 0;
#X connect 12 0 0 0;
#X connect 13 0 12 0;
#X connect 14 0 1 0;
#X connect 15 0 9 1;
#X connect 16 0 13 1;
#X connect 17 0 8 0;
#X connect 19 0 10 0;
#X connect 19 0 11 0;
#X connect 19 0 18 0;
