#N canvas 528 239 450 416 10;
#X obj 161 164 line~;
#X obj 132 65 bng 15 250 50 0 empty empty empty 17 7 0 10 -262144 -1
-1;
#X obj 237 118 pack 0 500;
#X floatatom 315 83 5 0 0 0 - - -;
#X obj 238 89 del 10;
#X obj 171 200 *~;
#X obj 174 226 *~;
#X obj 174 253 *~;
#X obj 175 280 *~;
#X floatatom 271 49 5 0 0 0 - - -;
#X obj 145 117 pack 1 5;
#X floatatom 185 71 5 0 0 0 - - -;
#X obj 164 338 outlet~;
#X obj 92 19 inlet;
#X obj 142 18 inlet;
#X obj 239 13 inlet;
#X obj 315 21 inlet, f 6;
#X connect 0 0 5 0;
#X connect 0 0 5 1;
#X connect 1 0 4 0;
#X connect 1 0 10 0;
#X connect 2 0 0 0;
#X connect 3 0 2 1;
#X connect 4 0 2 0;
#X connect 5 0 6 0;
#X connect 5 0 6 1;
#X connect 6 0 7 0;
#X connect 6 0 7 1;
#X connect 7 0 8 0;
#X connect 7 0 8 1;
#X connect 8 0 12 0;
#X connect 9 0 4 1;
#X connect 10 0 0 0;
#X connect 11 0 10 1;
#X connect 13 0 1 0;
#X connect 14 0 11 0;
#X connect 15 0 9 0;
#X connect 16 0 3 0;
