#N canvas 0 58 1366 674 10;
#X obj 599 62 openpanel;
#X obj 599 39 bng 15 250 50 0 empty empty empty 17 7 0 10 -262144 -1
-1;
#X obj 582 207 soundfiler;
#N canvas 60 90 712 363 (subpatch) 0;
#X array \$0-file 11096 float 2;
#X coords 0 1 11096 -1 100 50 2 0 0;
#X restore 192 143 graph;
#X symbolatom 523 238 60 0 0 0 - - -;
#X obj 1164 599 *~;
#X obj 1201 575 hsl 128 15 0 1 0 0 empty \$0-output_volume empty -2
-8 0 10 -262144 -1 -1 8183 1;
#X obj 604 263 bng 15 250 50 0 empty empty empty 17 7 0 10 -262144
-1 -1;
#X obj 1165 527 line~;
#X msg 1163 501 \$1 \, \$2 \$3;
#X floatatom 1230 435 10 0 0 0 - - -;
#X obj 732 278 bng 15 250 50 0 empty empty empty 17 7 0 10 -262144
-1 -1;
#X obj 1160 473 pack f f f;
#X floatatom 1053 434 10 0 0 0 - - -;
#X floatatom 521 260 10 0 0 0 - - -;
#X obj 160 295 hsl 128 15 0 11096 0 0 \$0-slider_out2 \$0-slider_range2
sample_end -2 -8 0 8 -262144 -1 -1 3200 1;
#X msg 867 469 bang;
#X floatatom 888 499 5 0 0 0 - - -;
#X obj 868 522 f;
#X obj 161 331 hsl 128 15 0 251.61 0 0 \$0-range_out \$0-sample_speed_range
time -2 -8 0 8 -262144 -1 -1 800 1;
#X msg 1041 230 bang;
#X floatatom 1083 231 5 0 0 0 - - -;
#X obj 1063 254 f;
#X floatatom 1167 256 10 0 0 0 - - -;
#X obj 1067 189 bng 15 250 50 0 empty empty empty 17 7 0 10 -262144
-1 -1;
#X obj 159 257 hsl 128 15 0 11096 0 0 \$0-slider_out1 \$0-slider_range1
sample_start -2 -8 0 8 -262144 -1 -1 2400 1;
#X floatatom 1143 433 10 0 0 0 - - -;
#X obj 120 148 bng 15 250 50 0 \$0-open_file empty open_file 17 7 1
10 -258113 -1 -1;
#X obj 1105 642 outlet~;
#X obj 137 218 hsl 150 15 0 1 0 0 \$0-output_volume \$0-level_in output_level
-2 -8 1 10 -262130 -1 -1 9600 1;
#X obj 278 14 inlet;
#X msg 503 514 bang;
#X floatatom 517 546 5 0 0 0 - - -;
#X obj 500 571 f;
#X obj 321 14 inlet;
#X obj 363 14 inlet;
#X obj 406 14 inlet;
#X obj 256 53 s \$0-slider_range1;
#X obj 310 79 s \$0-slider_range2;
#X obj 363 105 s \$0-sample_speed_range;
#X floatatom 218 241 10 0 0 0 - #0-slider_out1 -;
#X floatatom 217 204 10 0 0 0 - #0-output_volume -;
#X floatatom 217 279 10 0 0 0 - #0-slider_out2 -;
#X floatatom 219 315 10 0 0 0 - #0-range_out -;
#X floatatom 119 168 7 0 0 0 - - -;
#X floatatom 226 358 10 0 0 0 max_time #0-max_time #0-time_send;
#X obj 406 133 s \$0-max_time;
#X obj 448 13 inlet;
#X obj 599 11 r \$0-open_file;
#X obj 1164 552 tabread4~ \$0-file;
#X obj 766 31 f \$0;
#X floatatom 767 56 5 0 0 0 - - -;
#X obj 761 83 makefilename %d-file;
#X obj 624 107 pack s s;
#X msg 597 162 read -resize \$1 \$2;
#X obj 1148 179 r \$0-time_send;
#X obj 651 543 makefilename %d-slider_range1;
#X obj 994 143 makefilename %d-sample_speed_range;
#X obj 1053 292 pack s 0 0;
#X msg 1052 317 \; \$1 range \$2 \$3;
#X obj 1148 369 print;
#X obj 839 40 s \$0-code;
#X obj 482 613 pack s 0 0;
#X obj 407 442 makefilename %d-slider_range2;
#X obj 400 392 r \$0-code;
#X floatatom 402 419 5 0 0 0 - - -;
#X msg 483 636 \; \$1 range \$2 \$3;
#X obj 648 489 r \$0-code;
#X floatatom 650 516 5 0 0 0 - - -;
#X obj 868 565 pack s 0 0;
#X msg 868 593 \; \$1 range \$2 \$3;
#X obj 493 12 inlet;
#X obj 479 72 s \$0-level_in;
#X text 142 105 t ss se ti mt ol;
#X text 105 381 audio out;
#X obj 31 505 /;
#X obj 76 479 samplerate~;
#X floatatom 72 505 5 0 0 0 - - -;
#X obj 16 452 bng 15 250 50 0 empty empty empty 17 7 0 10 -262144 -1
-1;
#X floatatom 30 538 5 0 0 0 - - -;
#X obj 38 575 * 1000;
#X floatatom 74 603 5 0 0 0 - - -;
#X obj 168 472 /;
#X obj 194 424 bng 15 250 50 0 empty empty empty 17 7 0 10 -262144
-1 -1;
#X obj 164 504 * 1000;
#X floatatom 165 525 5 0 0 0 - - -;
#X obj 229 455 /;
#X obj 222 505 * 1000;
#X floatatom 222 526 5 0 0 0 - - -;
#X floatatom 271 481 5 0 0 0 - - -;
#X obj 180 549 -;
#X floatatom 266 552 5 0 0 0 - - -;
#X obj 250 584 < 0;
#X obj 198 599 spigot;
#X obj 204 627 * -1;
#X floatatom 204 648 5 0 0 0 - - -;
#X obj 282 580 > 0;
#X obj 279 607 spigot;
#X floatatom 281 639 5 0 0 0 - - -;
#X text 316 538 Timestretching!;
#X obj 120 257 tgl 15 0 empty empty t_stretch -10 -5 0 8 -262144 -1
-1 1 1;
#X obj 356 586 spigot;
#X obj 96 623 spigot;
#X obj 115 327 tgl 15 0 empty empty fix_time -8 -5 0 8 -262144 -1 -1
1 1;
#X obj 1195 638 outlet;
#X text 216 383 sample length;
#X connect 0 0 4 0;
#X connect 0 0 53 0;
#X connect 0 0 78 0;
#X connect 1 0 0 0;
#X connect 1 0 50 0;
#X connect 2 0 14 0;
#X connect 5 0 28 0;
#X connect 6 0 5 1;
#X connect 7 0 14 0;
#X connect 7 0 16 0;
#X connect 7 0 31 0;
#X connect 7 0 65 0;
#X connect 7 0 68 0;
#X connect 8 0 49 0;
#X connect 9 0 8 0;
#X connect 10 0 12 2;
#X connect 11 0 10 0;
#X connect 11 0 14 0;
#X connect 11 0 25 0;
#X connect 12 0 9 0;
#X connect 13 0 12 0;
#X connect 14 0 44 0;
#X connect 14 0 62 2;
#X connect 14 0 69 2;
#X connect 14 0 75 0;
#X connect 14 0 104 0;
#X connect 15 0 26 0;
#X connect 15 0 83 0;
#X connect 16 0 18 0;
#X connect 16 0 17 0;
#X connect 17 0 18 1;
#X connect 18 0 69 1;
#X connect 19 0 10 0;
#X connect 20 0 22 0;
#X connect 20 0 58 0;
#X connect 21 0 22 1;
#X connect 22 0 58 1;
#X connect 23 0 24 0;
#X connect 23 0 58 2;
#X connect 24 0 20 0;
#X connect 25 0 13 0;
#X connect 25 0 86 0;
#X connect 25 0 83 0;
#X connect 26 0 12 1;
#X connect 30 0 11 0;
#X connect 31 0 33 0;
#X connect 31 0 32 0;
#X connect 32 0 33 1;
#X connect 33 0 62 1;
#X connect 34 0 37 0;
#X connect 35 0 38 0;
#X connect 36 0 39 0;
#X connect 42 0 82 0;
#X connect 47 0 46 0;
#X connect 48 0 1 0;
#X connect 49 0 5 0;
#X connect 50 0 51 0;
#X connect 51 0 52 0;
#X connect 51 0 57 0;
#X connect 51 0 61 0;
#X connect 52 0 53 1;
#X connect 53 0 54 0;
#X connect 54 0 2 0;
#X connect 54 0 7 0;
#X connect 55 0 23 0;
#X connect 55 0 24 0;
#X connect 56 0 69 0;
#X connect 56 0 16 0;
#X connect 57 0 58 0;
#X connect 58 0 59 0;
#X connect 59 0 60 0;
#X connect 62 0 66 0;
#X connect 63 0 62 0;
#X connect 63 0 31 0;
#X connect 64 0 65 0;
#X connect 65 0 63 0;
#X connect 67 0 68 0;
#X connect 68 0 56 0;
#X connect 69 0 70 0;
#X connect 71 0 72 0;
#X connect 75 0 79 0;
#X connect 76 0 77 0;
#X connect 77 0 75 1;
#X connect 77 0 82 1;
#X connect 77 0 86 1;
#X connect 78 0 76 0;
#X connect 78 0 75 0;
#X connect 79 0 80 0;
#X connect 80 0 81 0;
#X connect 81 0 102 0;
#X connect 82 0 84 0;
#X connect 83 0 82 0;
#X connect 83 0 86 0;
#X connect 84 0 85 0;
#X connect 85 0 90 0;
#X connect 86 0 87 0;
#X connect 86 0 89 0;
#X connect 87 0 88 0;
#X connect 88 0 90 1;
#X connect 90 0 91 0;
#X connect 91 0 92 0;
#X connect 91 0 93 0;
#X connect 91 0 96 0;
#X connect 91 0 97 0;
#X connect 92 0 93 1;
#X connect 93 0 94 0;
#X connect 94 0 95 0;
#X connect 95 0 101 0;
#X connect 96 0 97 1;
#X connect 97 0 98 0;
#X connect 98 0 101 0;
#X connect 100 0 101 1;
#X connect 101 0 19 0;
#X connect 102 0 46 0;
#X connect 103 0 102 1;
#X coords 0 -1 1 1 200 300 2 100 100;
