#N canvas 56 58 1310 710 10;
#X obj 101 156 bng 15 250 50 0 empty empty empty 17 7 0 10 -262144
-1 -1;
#X obj 58 422 spigot;
#X obj 101 140 tgl 15 0 empty empty empty 17 7 0 10 -262144 -1 -1 0
1;
#X obj 96 386 bng 15 250 50 0 empty empty empty 17 7 0 10 -262144 -1
-1;
#X obj 14 128 mod 4;
#X floatatom 14 148 5 0 0 0 - - -;
#X obj 18 180 sel 0;
#X obj 11 245 f 0;
#X obj 42 245 + 1;
#X floatatom 19 314 5 0 0 0 - - -;
#X obj 101 124 hradio 15 1 0 8 empty radio1 empty 0 -8 0 10 -262144
-1 -1 2;
#X obj 13 274 mod 32;
#X obj 68 315 sel 0 1 2 3 4 5 6 7 8 9 10 11 12 13 14 15 16 17 18 19
20 21 22 23 24 25 26 27 28 29 30 31, f 92;
#X floatatom 145 108 5 0 0 0 beats - -;
#X obj 566 156 bng 15 250 50 0 empty empty empty 17 7 0 10 -262144
-1 -1;
#X obj 1233 475 spigot;
#X obj 566 140 tgl 15 0 empty empty empty 17 7 0 10 -262144 -1 -1 0
1;
#X obj 1230 429 bng 15 250 50 0 empty empty empty 17 7 0 10 -262144
-1 -1;
#X obj 116 156 bng 15 250 50 0 empty empty empty 17 7 0 10 -262144
-1 -1;
#X obj 108 421 spigot;
#X obj 116 140 tgl 15 0 empty empty empty 17 7 0 10 -262144 -1 -1 0
1;
#X obj 127 387 bng 15 250 50 0 empty empty empty 17 7 0 10 -262144
-1 -1;
#X obj 131 156 bng 15 250 50 0 empty empty empty 17 7 0 10 -262144
-1 -1;
#X obj 153 419 spigot;
#X obj 131 140 tgl 15 0 empty empty empty 17 7 0 10 -262144 -1 -1 0
1;
#X obj 164 390 bng 15 250 50 0 empty empty empty 17 7 0 10 -262144
-1 -1;
#X obj 146 156 bng 15 250 50 0 empty empty empty 17 7 0 10 -262144
-1 -1;
#X obj 200 420 spigot;
#X obj 146 140 tgl 15 0 empty empty empty 17 7 0 10 -262144 -1 -1 0
1;
#X obj 208 393 bng 15 250 50 0 empty empty empty 17 7 0 10 -262144
-1 -1;
#X obj 161 156 bng 15 250 50 0 empty empty empty 17 7 0 10 -262144
-1 -1;
#X obj 242 417 spigot;
#X obj 161 140 tgl 15 0 empty empty empty 17 7 0 10 -262144 -1 -1 0
1;
#X obj 256 401 bng 15 250 50 0 empty empty empty 17 7 0 10 -262144
-1 -1;
#X obj 176 156 bng 15 250 50 0 empty empty empty 17 7 0 10 -262144
-1 -1;
#X obj 291 418 spigot;
#X obj 176 140 tgl 15 0 empty empty empty 17 7 0 10 -262144 -1 -1 0
1;
#X obj 314 401 bng 15 250 50 0 empty empty empty 17 7 0 10 -262144
-1 -1;
#X obj 191 156 bng 15 250 50 0 empty empty empty 17 7 0 10 -262144
-1 -1;
#X obj 349 417 spigot;
#X obj 191 140 tgl 15 0 empty empty empty 17 7 0 10 -262144 -1 -1 0
1;
#X obj 357 394 bng 15 250 50 0 empty empty empty 17 7 0 10 -262144
-1 -1;
#X obj 206 156 bng 15 250 50 0 empty empty empty 17 7 0 10 -262144
-1 -1;
#X obj 397 417 spigot;
#X obj 206 140 tgl 15 0 empty empty empty 17 7 0 10 -262144 -1 -1 0
1;
#X obj 402 395 bng 15 250 50 0 empty empty empty 17 7 0 10 -262144
-1 -1;
#X obj 221 156 bng 15 250 50 0 empty empty empty 17 7 0 10 -262144
-1 -1;
#X obj 448 416 spigot;
#X obj 221 140 tgl 15 0 empty empty empty 17 7 0 10 -262144 -1 -1 0
1;
#X obj 444 397 bng 15 250 50 0 empty empty empty 17 7 0 10 -262144
-1 -1;
#X obj 236 156 bng 15 250 50 0 empty empty empty 17 7 0 10 -262144
-1 -1;
#X obj 491 417 spigot;
#X obj 236 140 tgl 15 0 empty empty empty 17 7 0 10 -262144 -1 -1 0
1;
#X obj 490 394 bng 15 250 50 0 empty empty empty 17 7 0 10 -262144
-1 -1;
#X obj 251 156 bng 15 250 50 0 empty empty empty 17 7 0 10 -262144
-1 -1;
#X obj 534 417 spigot;
#X obj 251 140 tgl 15 0 empty empty empty 17 7 0 10 -262144 -1 -1 0
1;
#X obj 536 395 bng 15 250 50 0 empty empty empty 17 7 0 10 -262144
-1 -1;
#X obj 266 156 bng 15 250 50 0 empty empty empty 17 7 0 10 -262144
-1 -1;
#X obj 581 416 spigot;
#X obj 266 140 tgl 15 0 empty empty empty 17 7 0 10 -262144 -1 -1 0
1;
#X obj 584 389 bng 15 250 50 0 empty empty empty 17 7 0 10 -262144
-1 -1;
#X obj 281 156 bng 15 250 50 0 empty empty empty 17 7 0 10 -262144
-1 -1;
#X obj 626 414 spigot;
#X obj 281 140 tgl 15 0 empty empty empty 17 7 0 10 -262144 -1 -1 0
1;
#X obj 628 396 bng 15 250 50 0 empty empty empty 17 7 0 10 -262144
-1 -1;
#X obj 296 156 bng 15 250 50 0 empty empty empty 17 7 0 10 -262144
-1 -1;
#X obj 677 414 spigot;
#X obj 296 140 tgl 15 0 empty empty empty 17 7 0 10 -262144 -1 -1 0
1;
#X obj 679 395 bng 15 250 50 0 empty empty empty 17 7 0 10 -262144
-1 -1;
#X obj 311 156 bng 15 250 50 0 empty empty empty 17 7 0 10 -262144
-1 -1;
#X obj 730 411 spigot;
#X obj 311 140 tgl 15 0 empty empty empty 17 7 0 10 -262144 -1 -1 0
1;
#X obj 729 390 bng 15 250 50 0 empty empty empty 17 7 0 10 -262144
-1 -1;
#X obj 326 156 bng 15 250 50 0 empty empty empty 17 7 0 10 -262144
-1 -1;
#X obj 476 494 spigot;
#X obj 326 140 tgl 15 0 empty empty empty 17 7 0 10 -262144 -1 -1 0
1;
#X obj 472 455 bng 15 250 50 0 empty empty empty 17 7 0 10 -262144
-1 -1;
#X obj 341 156 bng 15 250 50 0 empty empty empty 17 7 0 10 -262144
-1 -1;
#X obj 522 492 spigot;
#X obj 341 140 tgl 15 0 empty empty empty 17 7 0 10 -262144 -1 -1 0
1;
#X obj 518 453 bng 15 250 50 0 empty empty empty 17 7 0 10 -262144
-1 -1;
#X obj 357 156 bng 15 250 50 0 empty empty empty 17 7 0 10 -262144
-1 -1;
#X obj 570 492 spigot;
#X obj 356 140 tgl 15 0 empty empty empty 17 7 0 10 -262144 -1 -1 0
1;
#X obj 566 453 bng 15 250 50 0 empty empty empty 17 7 0 10 -262144
-1 -1;
#X obj 372 156 bng 15 250 50 0 empty empty empty 17 7 0 10 -262144
-1 -1;
#X obj 616 490 spigot;
#X obj 371 140 tgl 15 0 empty empty empty 17 7 0 10 -262144 -1 -1 0
1;
#X obj 612 451 bng 15 250 50 0 empty empty empty 17 7 0 10 -262144
-1 -1;
#X obj 387 156 bng 15 250 50 0 empty empty empty 17 7 0 10 -262144
-1 -1;
#X obj 666 489 spigot;
#X obj 386 140 tgl 15 0 empty empty empty 17 7 0 10 -262144 -1 -1 0
1;
#X obj 662 450 bng 15 250 50 0 empty empty empty 17 7 0 10 -262144
-1 -1;
#X obj 402 156 bng 15 250 50 0 empty empty empty 17 7 0 10 -262144
-1 -1;
#X obj 712 487 spigot;
#X obj 401 140 tgl 15 0 empty empty empty 17 7 0 10 -262144 -1 -1 0
1;
#X obj 708 448 bng 15 250 50 0 empty empty empty 17 7 0 10 -262144
-1 -1;
#X obj 416 156 bng 15 250 50 0 empty empty empty 17 7 0 10 -262144
-1 -1;
#X obj 760 487 spigot;
#X obj 416 140 tgl 15 0 empty empty empty 17 7 0 10 -262144 -1 -1 0
1;
#X obj 756 448 bng 15 250 50 0 empty empty empty 17 7 0 10 -262144
-1 -1;
#X obj 431 156 bng 15 250 50 0 empty empty empty 17 7 0 10 -262144
-1 -1;
#X obj 806 485 spigot;
#X obj 431 140 tgl 15 0 empty empty empty 17 7 0 10 -262144 -1 -1 0
1;
#X obj 802 446 bng 15 250 50 0 empty empty empty 17 7 0 10 -262144
-1 -1;
#X obj 446 156 bng 15 250 50 0 empty empty empty 17 7 0 10 -262144
-1 -1;
#X obj 854 483 spigot;
#X obj 446 140 tgl 15 0 empty empty empty 17 7 0 10 -262144 -1 -1 0
1;
#X obj 850 444 bng 15 250 50 0 empty empty empty 17 7 0 10 -262144
-1 -1;
#X obj 461 156 bng 15 250 50 0 empty empty empty 17 7 0 10 -262144
-1 -1;
#X obj 900 485 spigot;
#X obj 461 140 tgl 15 0 empty empty empty 17 7 0 10 -262144 -1 -1 0
1;
#X obj 896 442 bng 15 250 50 0 empty empty empty 17 7 0 10 -262144
-1 -1;
#X obj 476 156 bng 15 250 50 0 empty empty empty 17 7 0 10 -262144
-1 -1;
#X obj 948 485 spigot;
#X obj 476 140 tgl 15 0 empty empty empty 17 7 0 10 -262144 -1 -1 0
1;
#X obj 944 442 bng 15 250 50 0 empty empty empty 17 7 0 10 -262144
-1 -1;
#X obj 491 156 bng 15 250 50 0 empty empty empty 17 7 0 10 -262144
-1 -1;
#X obj 994 483 spigot;
#X obj 491 140 tgl 15 0 empty empty empty 17 7 0 10 -262144 -1 -1 0
1;
#X obj 990 440 bng 15 250 50 0 empty empty empty 17 7 0 10 -262144
-1 -1;
#X obj 506 156 bng 15 250 50 0 empty empty empty 17 7 0 10 -262144
-1 -1;
#X obj 1044 482 spigot;
#X obj 506 140 tgl 15 0 empty empty empty 17 7 0 10 -262144 -1 -1 0
1;
#X obj 1040 439 bng 15 250 50 0 empty empty empty 17 7 0 10 -262144
-1 -1;
#X obj 521 156 bng 15 250 50 0 empty empty empty 17 7 0 10 -262144
-1 -1;
#X obj 1090 480 spigot;
#X obj 521 140 tgl 15 0 empty empty empty 17 7 0 10 -262144 -1 -1 0
1;
#X obj 1086 437 bng 15 250 50 0 empty empty empty 17 7 0 10 -262144
-1 -1;
#X obj 536 156 bng 15 250 50 0 empty empty empty 17 7 0 10 -262144
-1 -1;
#X obj 1138 480 spigot;
#X obj 536 140 tgl 15 0 empty empty empty 17 7 0 10 -262144 -1 -1 0
1;
#X obj 1134 437 bng 15 250 50 0 empty empty empty 17 7 0 10 -262144
-1 -1;
#X obj 551 156 bng 15 250 50 0 empty empty empty 17 7 0 10 -262144
-1 -1;
#X obj 1184 478 spigot;
#X obj 551 140 tgl 15 0 empty empty empty 17 7 0 10 -262144 -1 -1 0
1;
#X obj 1180 435 bng 15 250 50 0 empty empty empty 17 7 0 10 -262144
-1 -1;
#X floatatom 58 169 5 0 0 0 - - -;
#X floatatom 206 109 5 0 32 0 bars - -;
#X msg 28 215 \; radio1 number \$1;
#X msg 1010 198 \; pd create;
#X obj 102 23 inlet counter;
#X obj 197 21 inlet beats;
#X obj 283 22 inlet bars;
#X obj 391 608 outlet;
#X obj 380 590 outlet;
#X obj 403 625 outlet;
#X obj 415 641 outlet;
#X obj 428 658 outlet;
#X obj 455 641 outlet;
#X obj 466 625 outlet;
#X obj 480 608 outlet;
#X obj 496 591 outlet;
#X obj 521 607 outlet;
#X obj 535 623 outlet;
#X obj 547 640 outlet;
#X obj 565 657 outlet;
#X obj 587 640 outlet;
#X obj 602 623 outlet;
#X obj 617 607 outlet;
#X obj 637 591 outlet;
#X obj 657 608 outlet;
#X obj 672 625 outlet;
#X obj 686 641 outlet;
#X obj 704 657 outlet;
#X obj 727 641 outlet;
#X obj 746 625 outlet;
#X obj 769 609 outlet;
#X obj 793 593 outlet;
#X obj 810 610 outlet;
#X obj 830 626 outlet;
#X obj 847 642 outlet;
#X obj 865 659 outlet;
#X obj 888 642 outlet;
#X obj 901 626 outlet;
#X obj 927 609 outlet;
#X connect 0 0 146 0;
#X connect 1 0 0 0;
#X connect 2 0 1 1;
#X connect 3 0 1 0;
#X connect 4 0 5 0;
#X connect 5 0 6 0;
#X connect 6 0 7 0;
#X connect 7 0 8 0;
#X connect 7 0 11 0;
#X connect 8 0 7 1;
#X connect 9 0 10 0;
#X connect 10 0 12 0;
#X connect 10 0 138 0;
#X connect 11 0 9 0;
#X connect 12 0 3 0;
#X connect 12 1 21 0;
#X connect 12 2 25 0;
#X connect 12 3 29 0;
#X connect 12 4 33 0;
#X connect 12 5 37 0;
#X connect 12 6 41 0;
#X connect 12 7 45 0;
#X connect 12 8 49 0;
#X connect 12 9 53 0;
#X connect 12 10 57 0;
#X connect 12 11 61 0;
#X connect 12 12 65 0;
#X connect 12 13 69 0;
#X connect 12 14 73 0;
#X connect 12 15 77 0;
#X connect 12 16 81 0;
#X connect 12 17 85 0;
#X connect 12 18 89 0;
#X connect 12 19 93 0;
#X connect 12 20 97 0;
#X connect 12 21 101 0;
#X connect 12 22 105 0;
#X connect 12 23 109 0;
#X connect 12 24 113 0;
#X connect 12 25 117 0;
#X connect 12 26 121 0;
#X connect 12 27 125 0;
#X connect 12 28 129 0;
#X connect 12 29 133 0;
#X connect 12 30 137 0;
#X connect 12 31 17 0;
#X connect 13 0 4 1;
#X connect 14 0 176 0;
#X connect 15 0 14 0;
#X connect 16 0 15 1;
#X connect 17 0 15 0;
#X connect 18 0 145 0;
#X connect 19 0 18 0;
#X connect 20 0 19 1;
#X connect 21 0 19 0;
#X connect 22 0 147 0;
#X connect 23 0 22 0;
#X connect 24 0 23 1;
#X connect 25 0 23 0;
#X connect 26 0 148 0;
#X connect 27 0 26 0;
#X connect 28 0 27 1;
#X connect 29 0 27 0;
#X connect 30 0 149 0;
#X connect 31 0 30 0;
#X connect 32 0 31 1;
#X connect 33 0 31 0;
#X connect 34 0 150 0;
#X connect 35 0 34 0;
#X connect 36 0 35 1;
#X connect 37 0 35 0;
#X connect 38 0 151 0;
#X connect 39 0 38 0;
#X connect 40 0 39 1;
#X connect 41 0 39 0;
#X connect 42 0 152 0;
#X connect 43 0 42 0;
#X connect 44 0 43 1;
#X connect 45 0 43 0;
#X connect 46 0 153 0;
#X connect 47 0 46 0;
#X connect 48 0 47 1;
#X connect 49 0 47 0;
#X connect 50 0 154 0;
#X connect 51 0 50 0;
#X connect 52 0 51 1;
#X connect 53 0 51 0;
#X connect 54 0 155 0;
#X connect 55 0 54 0;
#X connect 56 0 55 1;
#X connect 57 0 55 0;
#X connect 58 0 156 0;
#X connect 59 0 58 0;
#X connect 60 0 59 1;
#X connect 61 0 59 0;
#X connect 62 0 157 0;
#X connect 63 0 62 0;
#X connect 64 0 63 1;
#X connect 65 0 63 0;
#X connect 66 0 158 0;
#X connect 67 0 66 0;
#X connect 68 0 67 1;
#X connect 69 0 67 0;
#X connect 70 0 159 0;
#X connect 71 0 70 0;
#X connect 72 0 71 1;
#X connect 73 0 71 0;
#X connect 74 0 160 0;
#X connect 75 0 74 0;
#X connect 76 0 75 1;
#X connect 77 0 75 0;
#X connect 78 0 161 0;
#X connect 79 0 78 0;
#X connect 80 0 79 1;
#X connect 81 0 79 0;
#X connect 82 0 162 0;
#X connect 83 0 82 0;
#X connect 84 0 83 1;
#X connect 85 0 83 0;
#X connect 86 0 163 0;
#X connect 87 0 86 0;
#X connect 88 0 87 1;
#X connect 89 0 87 0;
#X connect 90 0 164 0;
#X connect 91 0 90 0;
#X connect 92 0 91 1;
#X connect 93 0 91 0;
#X connect 94 0 165 0;
#X connect 95 0 94 0;
#X connect 96 0 95 1;
#X connect 97 0 95 0;
#X connect 98 0 166 0;
#X connect 99 0 98 0;
#X connect 100 0 99 1;
#X connect 101 0 99 0;
#X connect 102 0 167 0;
#X connect 103 0 102 0;
#X connect 104 0 103 1;
#X connect 105 0 103 0;
#X connect 106 0 168 0;
#X connect 107 0 106 0;
#X connect 108 0 107 1;
#X connect 109 0 107 0;
#X connect 110 0 169 0;
#X connect 111 0 110 0;
#X connect 112 0 111 1;
#X connect 113 0 111 0;
#X connect 114 0 170 0;
#X connect 115 0 114 0;
#X connect 116 0 115 1;
#X connect 117 0 115 0;
#X connect 118 0 171 0;
#X connect 119 0 118 0;
#X connect 120 0 119 1;
#X connect 121 0 119 0;
#X connect 122 0 172 0;
#X connect 123 0 122 0;
#X connect 124 0 123 1;
#X connect 125 0 123 0;
#X connect 126 0 173 0;
#X connect 127 0 126 0;
#X connect 128 0 127 1;
#X connect 129 0 127 0;
#X connect 130 0 174 0;
#X connect 131 0 130 0;
#X connect 132 0 131 1;
#X connect 133 0 131 0;
#X connect 134 0 175 0;
#X connect 135 0 134 0;
#X connect 136 0 135 1;
#X connect 137 0 135 0;
#X connect 139 0 140 0;
#X connect 139 0 11 1;
#X connect 142 0 4 0;
#X connect 143 0 13 0;
#X connect 144 0 139 0;
#X coords 0 -1 1 1 482 80 1 100 100;
