#N canvas 179 146 450 471 10;
#X floatatom 103 108 5 0 0 1 speed - -;
#X floatatom 103 128 5 0 0 1 scale - -;
#X obj 198 431 outlet~;
#X obj 16 40 inlet;
#X text 100 145 ~;
#X obj 55 39 inlet, f 6;
#X obj 266 162 osc~;
#X obj 251 43 loadbang;
#X msg 258 97 0.1;
#X msg 311 81 0.5;
#X obj 191 279 inlet~;
#X text 171 102 ~;
#X obj 207 344 *~;
#X connect 0 0 6 0;
#X connect 3 0 0 0;
#X connect 5 0 1 0;
#X connect 6 0 12 1;
#X connect 7 0 8 0;
#X connect 7 0 9 0;
#X connect 8 0 0 0;
#X connect 8 0 6 0;
#X connect 9 0 1 0;
#X connect 10 0 12 0;
#X connect 12 0 2 0;
#X coords 0 -1 1 1 85 60 2 100 100;
