#N canvas 174 231 450 437 10;
#X obj 127 291 outlet;
#X obj 249 83 metro;
#X obj 101 104 tgl 15 0 empty empty empty 17 7 0 10 -262144 -1 -1 1
1;
#X floatatom 118 106 5 0 0 0 - - -;
#X obj 243 15 loadbang;
#X msg 309 45 100;
#X obj 260 155 +;
#X msg 268 121 0.05;
#X floatatom 262 188 5 0 0 0 - - -;
#X obj 260 216 sin;
#X obj 258 254 + 1;
#X obj 257 281 / 2;
#X obj 229 315 *;
#X floatatom 117 123 5 0 0 0 - - -;
#X floatatom 116 140 5 0 0 0 - - -;
#X msg 222 57 1;
#X obj 86 14 inlet;
#X connect 1 0 7 0;
#X connect 2 0 1 0;
#X connect 3 0 1 1;
#X connect 4 0 5 0;
#X connect 4 0 2 0;
#X connect 4 0 15 0;
#X connect 5 0 3 0;
#X connect 6 0 8 0;
#X connect 7 0 6 0;
#X connect 8 0 6 1;
#X connect 8 0 9 0;
#X connect 9 0 10 0;
#X connect 10 0 11 0;
#X connect 11 0 12 0;
#X connect 12 0 14 0;
#X connect 13 0 12 1;
#X connect 14 0 0 0;
#X connect 15 0 13 0;
#X connect 16 0 3 0;
#X coords 0 -1 1 1 50 60 2 100 100;
