#N canvas 964 104 948 968 12;
#X obj 596 238 openpanel;
#X obj 599 220 bng 15 250 50 0 empty empty empty 17 7 0 10 -262144
-1 -1;
#X obj 596 315 soundfiler;
#X obj 292 875 *~;
#X obj 318 875 hsl 50 18 0 1 0 0 empty \$0-output_volume empty -2 -8
0 10 -262144 -1 -1 4900 1;
#X obj 292 839 line~;
#X obj 292 893 outlet~;
#X obj 472 73 inlet, f 6;
#X obj 598 196 r \$0-open_file;
#X obj 292 857 tabread4~ \$0-file;
#X obj 704 209 f \$0;
#X obj 702 255 makefilename %d-file;
#X obj 596 275 pack s s;
#X obj 265 557 makefilename %d-slider_range1;
#X obj 510 629 makefilename %d-sample_speed_range;
#X obj 705 228 s \$0-code;
#X obj 45 548 makefilename %d-slider_range2;
#X obj 45 528 r \$0-code;
#X obj 265 537 r \$0-code;
#X obj 58 713 /;
#X obj 58 731 * 1000;
#X obj 85 713 /;
#X obj 105 731 * 1000;
#X obj 58 749 -;
#X floatatom 58 768 5 0 0 0 - - -;
#X obj 58 785 < 0;
#X obj 58 803 spigot;
#X obj 58 821 * -1;
#X floatatom 58 839 5 0 0 0 - - -;
#X obj 80 785 > 0;
#X obj 98 803 spigot;
#X floatatom 98 821 5 0 0 0 - - -;
#X obj 57 856 spigot;
#X msg 596 295 read -resize \$1 \$2;
#X obj 510 609 r \$0-code;
#X obj 472 91 s \$0-trig;
#X obj 292 746 r \$0-trig;
#X obj 596 335 s \$0-sample_length;
#X obj 339 577 r \$0-sample_length;
#X obj 120 569 r \$0-sample_length;
#X obj 781 209 samplerate~;
#X obj 781 229 s \$0-s_rate;
#X obj 781 188 loadbang;
#X obj 79 695 r \$0-s_rate;
#X msg 292 813 \$2 \, \$3 \$4;
#X msg 292 764 trig;
#X obj 90 838 r \$0-stretch_tog;
#X obj 47 874 s \$0-s_time;
#X obj 45 569 pack 0 s 0;
#X msg 45 589 \; \$2 range \$3 \$1;
#X obj 265 577 pack 0 s 0;
#X msg 265 597 \; \$2 range \$3 \$1;
#X obj 59 659 r \$0-slider_out_start;
#X obj 79 677 r \$0-slider_out_end;
#X obj 358 728 r \$0-slider_out_start;
#X obj 358 746 r \$0-slider_out_end;
#X obj 388 765 r \$0-range_out;
#X obj 81 752 bng 15 250 50 0 empty empty empty 17 7 0 10 -262144 -1
-1;
#X text 55 637 preserve speed;
#X text 54 508 start range;
#X text 264 511 end range;
#X text 592 574 time;
#X text 290 726 playback;
#X text 600 171 open file;
#X text 746 169 get current sample rate;
#X obj 477 659 pack 0 s 0;
#X msg 477 678 \; \$2 range \$3 \$1;
#X obj 505 509 r \$0-sample_length;
#X obj 636 508 r \$0-s_rate;
#X obj 505 529 /, f 19;
#X obj 505 549 * 1000;
#X text 470 799 loop, f 7;
#X obj 475 837 sel, f 9;
#X obj 475 819 line;
#X obj 474 874 bng 15 250 50 0 empty empty empty 17 7 0 10 -262144
-1 -1;
#X obj 475 855 spigot;
#X obj 475 889 s \$0-loop;
#X obj 522 854 r \$0-loop_toggle;
#X obj 224 745 r \$0-loop;
#X text 469 52 inlets;
#X obj 103 107 cnv 15 245 145 empty empty empty 20 12 0 14 -228856
-66577 0;
#N canvas 60 90 712 363 (subpatch) 0;
#X array \$0-file 692692 float 2;
#X coords 0 1 692692 -1 100 60 2 0 0;
#X restore 239 125 graph;
#X obj 242 155 hsl 95 30 0 692692 0 0 \$0-slider_out_end \$0-slider_range2
sample_end 10 5 0 8 -262130 -258113 -1 0 1;
#X obj 242 195 hsl 95 15 0 15707.3 0 0 \$0-range_out \$0-sample_speed_range
time 10 5 0 8 -232576 -1 -1 0 1;
#X obj 242 125 hsl 95 30 0 692692 0 0 \$0-slider_out_start \$0-slider_range1
sample_start 10 5 0 8 -204800 -4034 -1 0 1;
#X obj 103 120 bng 15 250 50 0 \$0-open_file empty open_file 17 7 1
10 -4034 -258113 -1;
#X obj 595 816 hsl 50 15 0 1 0 0 \$0-output_volume \$0-level_in output_level
-2 -8 1 10 -262144 -1 -1 4900 1;
#X floatatom 166 166 10 0 0 0 - #0-output_volume -;
#X floatatom 386 374 10 0 0 0 - #0-slider_out_end -;
#X floatatom 167 125 10 0 0 0 - #0-range_out -;
#X floatatom -3 329 7 0 0 1 s_length - -;
#X floatatom 311 301 10 0 0 0 max_time #0-time #0-time_send;
#X obj 103 151 tgl 15 0 \$0-stretch_tog empty p_speed 16 7 0 8 -262144
-1 -1 0 1;
#X obj 593 755 loadbang;
#X msg 594 776 1;
#X obj 56 18 r \$0-sample_length;
#X obj 242 50 r \$0-s_time;
#X obj 103 136 tgl 15 0 \$0-loop_toggle empty loop 17 7 0 10 -204800
-1 -1 0 1;
#X obj 101 103 cnv 10 20 10 empty empty trig 2 5 0 8 -260097 -66577
0;
#X obj 102 241 cnv 10 20 10 empty empty out~ 2 5 0 8 -260097 -66577
0;
#X obj 505 585 s \$0-time;
#X obj 243 29 r \$0-time;
#X obj 292 789 pack s 0 0 0;
#X msg 526 818 \$3;
#X obj 544 889 outlet loop;
#X obj 381 236 cnv 10 40 10 empty empty loop_out 2 5 0 8 -260097 -66577
0;
#X obj 242 186 hsl 95 8 0 692692 0 0 empty \$0-slider_range2 pos 25
5 0 8 -261682 -258113 -1 0 1;
#X obj 423 837 s \$0-pos;
#X obj 243 79 r \$0-pos;
#X obj 526 68 inlet speed, f 12;
#X obj 621 69 inlet file;
#X obj 649 125 bng 15 250 50 0 empty empty empty 17 7 0 10 -262144
-1 -1;
#X obj 201 103 cnv 10 25 10 empty empty speed 2 5 0 8 -260097 -66577
0;
#X obj 323 103 cnv 10 25 10 empty empty path 2 5 0 8 -260097 -66577
0;
#X connect 0 0 12 0;
#X connect 1 0 0 0;
#X connect 1 0 10 0;
#X connect 1 0 40 0;
#X connect 2 0 37 0;
#X connect 3 0 6 0;
#X connect 4 0 3 1;
#X connect 5 0 9 0;
#X connect 7 0 35 0;
#X connect 8 0 1 0;
#X connect 9 0 3 0;
#X connect 10 0 15 0;
#X connect 10 0 11 0;
#X connect 11 0 12 1;
#X connect 12 0 33 0;
#X connect 13 0 50 1;
#X connect 14 0 65 1;
#X connect 16 0 48 1;
#X connect 17 0 16 0;
#X connect 18 0 13 0;
#X connect 19 0 20 0;
#X connect 20 0 23 0;
#X connect 21 0 22 0;
#X connect 22 0 23 1;
#X connect 22 0 57 0;
#X connect 23 0 24 0;
#X connect 24 0 25 0;
#X connect 24 0 26 0;
#X connect 24 0 29 0;
#X connect 24 0 30 0;
#X connect 25 0 26 1;
#X connect 26 0 27 0;
#X connect 27 0 28 0;
#X connect 28 0 32 0;
#X connect 29 0 30 1;
#X connect 30 0 31 0;
#X connect 31 0 32 0;
#X connect 32 0 47 0;
#X connect 33 0 2 0;
#X connect 34 0 14 0;
#X connect 36 0 45 0;
#X connect 38 0 50 0;
#X connect 39 0 48 0;
#X connect 40 0 41 0;
#X connect 42 0 40 0;
#X connect 43 0 21 1;
#X connect 43 0 19 1;
#X connect 44 0 5 0;
#X connect 44 0 73 0;
#X connect 45 0 102 0;
#X connect 46 0 32 1;
#X connect 48 0 49 0;
#X connect 50 0 51 0;
#X connect 52 0 19 0;
#X connect 53 0 21 0;
#X connect 54 0 102 1;
#X connect 55 0 102 2;
#X connect 56 0 102 3;
#X connect 57 0 23 0;
#X connect 65 0 66 0;
#X connect 67 0 69 0;
#X connect 68 0 69 1;
#X connect 69 0 70 0;
#X connect 70 0 65 0;
#X connect 70 0 100 0;
#X connect 72 0 75 0;
#X connect 73 0 72 0;
#X connect 73 0 107 0;
#X connect 74 0 76 0;
#X connect 74 0 104 0;
#X connect 75 0 74 0;
#X connect 77 0 75 1;
#X connect 78 0 102 0;
#X connect 93 0 94 0;
#X connect 94 0 86 0;
#X connect 95 0 90 0;
#X connect 95 0 82 0;
#X connect 96 0 83 0;
#X connect 101 0 83 0;
#X connect 102 0 44 0;
#X connect 102 0 103 0;
#X connect 103 0 72 1;
#X connect 108 0 106 0;
#X connect 109 0 83 0;
#X connect 110 0 12 0;
#X connect 110 0 111 0;
#X connect 111 0 10 0;
#X connect 111 0 40 0;
#X coords 0 -1 1 1 250 155 2 100 100;
