#N canvas 761 234 543 413 10;
#X obj 169 116 noise~;
#X obj 229 224 *~;
#X obj 270 109 f 250;
#X floatatom 299 85 5 0 0 0 - - -;
#X obj 268 83 bng 15 250 50 0 empty empty empty 17 7 0 10 -262144 -1
-1;
#X obj 205 270 vcf~ 3;
#X obj 216 315 outlet~;
#N canvas 60 58 450 300 vol_env 0;
#X obj 236 162 vline~;
#X obj 233 190 *~;
#X msg 236 139 1 0.5 \, 0 \$1 0.5;
#X obj 237 108 inlet;
#X obj 232 219 outlet~;
#X connect 0 0 1 0;
#X connect 0 0 1 1;
#X connect 1 0 4 0;
#X connect 2 0 0 0;
#X connect 3 0 2 0;
#X restore 237 157 pd vol_env;
#N canvas 60 58 450 300 cutoff_env 0;
#X obj 236 162 vline~;
#X obj 233 190 *~;
#X msg 236 139 1 0.5 \, 0 \$1 0.5;
#X obj 237 108 inlet;
#X obj 232 219 outlet~;
#X connect 0 0 1 0;
#X connect 0 0 1 1;
#X connect 1 0 4 0;
#X connect 2 0 0 0;
#X connect 3 0 2 0;
#X restore 304 158 pd cutoff_env;
#X obj 304 184 *~ 8000;
#X obj 303 205 +~ 100;
#X obj 355 204 +~ 300;
#N canvas 60 58 450 300 FM 0;
#X obj 145 174 osc~;
#X obj 166 218 *~;
#N canvas 60 58 450 300 FM_env 0;
#X obj 236 162 vline~;
#X obj 233 190 *~;
#X msg 236 139 1 0.5 \, 0 \$1 0.5;
#X obj 237 108 inlet;
#X obj 232 219 outlet~;
#X connect 0 0 1 0;
#X connect 0 0 1 1;
#X connect 1 0 4 0;
#X connect 2 0 0 0;
#X connect 3 0 2 0;
#X restore 204 139 pd FM_env;
#X obj 195 182 *~;
#X obj 146 131 +~;
#X obj 103 88 sig~ 150;
#X obj 174 59 osc~ 50;
#X obj 175 84 *~ 30;
#X obj 191 254 outlet~;
#X floatatom 103 63 5 0 0 0 - - -;
#X obj 103 37 inlet FM_tune;
#X obj 205 113 inlet trigger;
#X connect 0 0 1 0;
#X connect 1 0 8 0;
#X connect 2 0 3 0;
#X connect 2 0 3 1;
#X connect 3 0 1 1;
#X connect 4 0 0 0;
#X connect 5 0 4 0;
#X connect 6 0 7 0;
#X connect 7 0 4 1;
#X connect 9 0 5 0;
#X connect 10 0 9 0;
#X connect 11 0 2 0;
#X restore 127 160 pd FM;
#X floatatom 418 116 5 0 0 0 - - -;
#X obj 298 63 inlet noise_env;
#X obj 418 93 inlet filter_env;
#X obj 83 116 inlet FM_tune;
#X obj 3 7 inlet trig;
#X obj 356 183 *~ 5000;
#X obj 298 136 * 3;
#X obj 419 155 * 0.7;
#X obj 263 270 vcf~ 5;
#X obj 180 184 *~;
#X obj 180 157 hip~ 100;
#X connect 0 0 23 0;
#X connect 1 0 5 0;
#X connect 1 0 21 0;
#X connect 2 0 7 0;
#X connect 2 0 12 1;
#X connect 2 0 19 0;
#X connect 3 0 2 1;
#X connect 4 0 2 0;
#X connect 5 0 6 0;
#X connect 7 0 1 1;
#X connect 8 0 9 0;
#X connect 8 0 18 0;
#X connect 9 0 10 0;
#X connect 10 0 5 1;
#X connect 11 0 21 1;
#X connect 12 0 5 0;
#X connect 12 0 21 0;
#X connect 13 0 20 0;
#X connect 14 0 3 0;
#X connect 15 0 13 0;
#X connect 16 0 12 0;
#X connect 17 0 4 0;
#X connect 18 0 11 0;
#X connect 19 0 8 0;
#X connect 20 0 9 1;
#X connect 20 0 18 1;
#X connect 21 0 6 0;
#X connect 22 0 1 0;
#X connect 23 0 22 0;
#X connect 23 0 22 1;
#X connect 23 0 1 0;
