#N canvas 0 58 1366 674 10;
#N canvas 60 90 712 363 (subpatch) 0;
#X array \$0-file 252563 float 0;
#X coords 0 1 252562 -1 140 50 2 0 0;
#X restore 153 130 graph;
#X symbolatom 570 239 60 0 0 0 - - -;
#X obj 1069 496 *~;
#X obj 1106 472 hsl 128 15 0 1 0 0 empty \$0-output_volume empty -2
-8 0 10 -262144 -1 -1 12700 1;
#X obj 613 301 bng 15 250 50 0 empty empty empty 17 7 0 10 -262144
-1 -1;
#X obj 1070 424 line~;
#X msg 1070 397 \$1 \, \$2 \$3;
#X floatatom 1135 332 10 0 0 0 - - -;
#X obj 634 262 bng 15 250 50 0 empty empty empty 17 7 0 10 -262144
-1 -1;
#X obj 1065 370 pack f f f;
#X floatatom 958 331 10 0 0 0 - - -;
#X floatatom 526 296 10 0 0 0 - - -;
#X obj 144 251 hsl 150 10 0 0 0 0 \$0-slider_out2 \$0-slider_range2
sample_end -2 -8 0 8 -262144 -1 -1 0 1;
#X msg 817 363 bang;
#X floatatom 838 393 5 0 0 0 - - -;
#X obj 818 416 f;
#X obj 144 277 hsl 150 10 0 0 0 0 \$0-range_out \$0-sample_speed_range
time -2 -8 0 8 -262144 -1 -1 0 1;
#X msg 1040 167 bang;
#X floatatom 1082 168 5 0 0 0 - - -;
#X obj 1062 191 f;
#X floatatom 1166 193 10 0 0 0 - - -;
#X obj 1066 126 bng 15 250 50 0 empty empty empty 17 7 0 10 -262144
-1 -1;
#X obj 144 224 hsl 150 10 0 0 0 0 \$0-slider_out1 \$0-slider_range1
sample_start -2 -8 0 8 -262144 -1 -1 0 1;
#X floatatom 1048 330 10 0 0 0 - - -;
#X obj 1010 539 outlet~;
#X obj 143 197 hsl 150 10 0 1 0 0 \$0-output_volume \$0-level_in output_level
-2 -8 1 10 -262130 -1 -1 14900 0;
#X obj 211 14 inlet;
#X msg 490 376 bang;
#X floatatom 504 408 5 0 0 0 - - -;
#X obj 487 433 f;
#X obj 250 15 inlet;
#X obj 292 15 inlet;
#X obj 335 15 inlet;
#X obj 185 54 s \$0-slider_range1;
#X obj 239 80 s \$0-slider_range2;
#X obj 309 103 s \$0-sample_speed_range;
#X floatatom 233 208 10 0 0 0 - #0-slider_out1 -;
#X floatatom 233 183 10 0 0 0 - #0-output_volume -;
#X floatatom 234 235 10 0 0 0 - #0-slider_out2 -;
#X floatatom 234 261 10 0 0 0 - #0-range_out -;
#X floatatom 104 151 7 0 0 0 - - -;
#X floatatom 234 288 10 0 0 0 max_time #0-max_time #0-time_send;
#X obj 335 134 s \$0-max_time;
#X obj 377 14 inlet;
#X obj 1069 449 tabread4~ \$0-file;
#X obj 800 24 f \$0;
#X floatatom 772 50 5 0 0 0 - - -;
#X obj 725 74 makefilename %d-file;
#X obj 1174 102 r \$0-time_send;
#X obj 601 437 makefilename %d-slider_range1;
#X obj 993 80 makefilename %d-sample_speed_range;
#X obj 1052 229 pack s 0 0;
#X msg 1051 254 \; \$1 range \$2 \$3;
#X obj 1048 297 print;
#X obj 839 40 s \$0-code;
#X obj 469 475 pack s 0 0;
#X obj 268 434 makefilename %d-slider_range2;
#X obj 265 383 r \$0-code;
#X floatatom 267 410 5 0 0 0 - - -;
#X msg 470 498 \; \$1 range \$2 \$3;
#X obj 598 383 r \$0-code;
#X floatatom 600 410 5 0 0 0 - - -;
#X obj 818 459 pack s 0 0;
#X msg 818 487 \; \$1 range \$2 \$3;
#X obj 422 13 inlet;
#X obj 389 59 s \$0-level_in;
#X obj 703 58 bng 15 250 50 0 empty empty empty 17 7 0 10 -262144 -1
-1;
#X obj 649 204 tabwrite~;
#X obj 691 99 pack s;
#X obj 686 18 loadbang;
#X msg 639 89 set \$1;
#X obj 562 89 sel 1 0;
#X msg 616 120 stop;
#X obj 102 130 tgl 15 0 empty empty start/stop 17 7 0 8 -262144 -1
-1 0 1;
#X obj 483 140 realtime;
#X floatatom 486 165 5 0 0 0 - - -;
#X obj 489 194 / 1000;
#X msg 575 119 bang;
#X obj 106 8 inlet~;
#X obj 374 190 s \$0-max_time;
#X obj 167 12 inlet;
#X text 131 104 sig rec t ss se ti mt ol;
#X obj 101 422 outlet;
#X text 22 606 Mono audio-sampler/ manipulation David Williams June
2019;
#X text 835 7 for modularity \, use the unique program code as a prefix
for all of the variables;
#X text 594 518 This version uses incoming audio \, which can be sampled
and variously played around with. It looks complicated \, but that's
just because each of the sliders' range needs to be changed each time
the sample length changes - in this program \, this is acheived with
the 'realtime' function \, which tells the rest of tehe program how
long each snippet is (converted from millis to samples). The recorded
sample can then be triggered and it's playback altered - either by
changing the start/end point \, or the playback time directly. TO DO:
make the sample rate a variable \, incase a higher/ lower sample rate
is needed;
#X text 283 301 ~, f 2;
#X text 102 303 s_length;
#X obj 514 223 samplerate~;
#X obj 475 253 *;
#X msg 533 37 1;
#X text 181 314 time;
#X connect 2 0 24 0;
#X connect 3 0 2 1;
#X connect 4 0 11 0;
#X connect 4 0 13 0;
#X connect 4 0 27 0;
#X connect 4 0 58 0;
#X connect 4 0 61 0;
#X connect 5 0 44 0;
#X connect 6 0 5 0;
#X connect 7 0 9 2;
#X connect 8 0 7 0;
#X connect 8 0 11 0;
#X connect 8 0 22 0;
#X connect 9 0 6 0;
#X connect 10 0 9 0;
#X connect 11 0 40 0;
#X connect 11 0 55 2;
#X connect 11 0 62 2;
#X connect 12 0 23 0;
#X connect 13 0 15 0;
#X connect 13 0 14 0;
#X connect 14 0 15 1;
#X connect 15 0 62 1;
#X connect 16 0 7 0;
#X connect 17 0 19 0;
#X connect 17 0 51 0;
#X connect 18 0 19 1;
#X connect 19 0 51 1;
#X connect 20 0 21 0;
#X connect 20 0 51 2;
#X connect 20 0 7 0;
#X connect 21 0 17 0;
#X connect 22 0 10 0;
#X connect 23 0 9 1;
#X connect 26 0 8 0;
#X connect 27 0 29 0;
#X connect 27 0 28 0;
#X connect 28 0 29 1;
#X connect 29 0 55 1;
#X connect 30 0 33 0;
#X connect 31 0 34 0;
#X connect 32 0 35 0;
#X connect 40 0 82 0;
#X connect 43 0 42 0;
#X connect 44 0 2 0;
#X connect 45 0 46 0;
#X connect 46 0 47 0;
#X connect 46 0 50 0;
#X connect 46 0 54 0;
#X connect 47 0 68 0;
#X connect 48 0 20 0;
#X connect 48 0 21 0;
#X connect 49 0 62 0;
#X connect 49 0 13 0;
#X connect 50 0 51 0;
#X connect 51 0 52 0;
#X connect 52 0 53 0;
#X connect 55 0 59 0;
#X connect 56 0 55 0;
#X connect 56 0 27 0;
#X connect 57 0 58 0;
#X connect 58 0 56 0;
#X connect 60 0 61 0;
#X connect 61 0 49 0;
#X connect 62 0 63 0;
#X connect 64 0 65 0;
#X connect 66 0 45 0;
#X connect 66 0 68 0;
#X connect 68 0 70 0;
#X connect 69 0 66 0;
#X connect 69 0 90 0;
#X connect 70 0 67 0;
#X connect 71 0 77 0;
#X connect 71 0 74 0;
#X connect 71 1 72 0;
#X connect 71 1 74 1;
#X connect 71 1 4 0;
#X connect 72 0 67 0;
#X connect 73 0 71 0;
#X connect 73 0 66 0;
#X connect 74 0 75 0;
#X connect 75 0 76 0;
#X connect 75 0 79 0;
#X connect 76 0 89 0;
#X connect 77 0 67 0;
#X connect 77 0 88 0;
#X connect 78 0 67 0;
#X connect 80 0 73 0;
#X connect 88 0 89 1;
#X connect 89 0 11 0;
#X connect 90 0 65 0;
#X coords 0 -1 1 1 200 230 2 100 100;
