#N canvas 694 70 656 682 10;
#X obj 998 632 *~;
#X obj 1033 634 hsl 128 15 0 1 0 0 empty \$0-output_volume empty -2
-8 0 10 -262144 -1 -1 11966 1;
#X floatatom 1078 428 10 0 0 0 - - -;
#X obj 998 650 outlet~;
#X obj 244 52 s \$0-slider_range1;
#X obj 532 221 s \$0-slider_range2;
#X obj 561 202 s \$0-sample_speed_range;
#X obj 626 184 s \$0-max_time;
#X obj 997 547 tabread4~ \$0-file;
#X obj 799 145 f \$0;
#X floatatom 799 162 5 0 0 0 - - -;
#X obj 799 179 makefilename %d-file;
#X obj 1034 395 r \$0-time_send;
#X obj 492 432 makefilename %d-slider_range1;
#X obj 976 376 makefilename %d-sample_speed_range;
#X obj 835 161 s \$0-code;
#X obj 492 350 makefilename %d-slider_range2;
#X obj 491 311 r \$0-code;
#X floatatom 491 331 5 0 0 0 - - -;
#X obj 649 166 s \$0-level_in;
#X obj 717 130 bng 15 250 50 0 empty empty empty 17 7 0 10 -262144
-1 -1;
#X obj 929 279 tabwrite~;
#X obj 799 196 pack s;
#X obj 649 113 loadbang;
#X msg 799 213 set \$1;
#X obj 689 292 sel 1 0;
#X msg 937 261 stop;
#X msg 970 261 bang;
#X obj 690 341 s \$0-max_time;
#X text 361 4 Mono audio-sampler/ manipulation David Williams June
2019;
#X text 775 97 for modularity \, use the unique program code as a prefix
for all of the variables;
#X msg 649 131 1;
#N canvas 1032 43 321 688 range 0;
#X obj 134 115 inlet filename;
#X obj 226 115 inlet receive;
#X obj 245 224 outlet;
#X obj 99 235 outlet;
#X obj 168 182 pack s 0.1 0;
#X connect 0 0 4 0;
#X connect 1 0 2 0;
#X connect 1 0 4 2;
#X connect 4 0 3 0;
#X restore 977 395 pd range;
#N canvas 922 70 428 682 range 0;
#X floatatom 224 154 10 0 0 0 - - -;
#X obj 168 182 pack s 0 0;
#X obj 130 156 inlet filename;
#X obj 224 125 inlet receive;
#X obj 242 184 outlet;
#X obj 134 241 outlet;
#X connect 0 0 1 2;
#X connect 0 0 4 0;
#X connect 1 0 5 0;
#X connect 2 0 1 0;
#X connect 3 0 0 0;
#X restore 492 373 pd range;
#N canvas 1032 43 321 688 range 0;
#X floatatom 225 151 10 0 0 0 - - -;
#X obj 168 182 pack s 0 0;
#X obj 123 151 inlet filename;
#X obj 225 124 inlet receive;
#X obj 284 225 outlet;
#X obj 168 205 outlet;
#X connect 0 0 1 2;
#X connect 0 0 4 0;
#X connect 1 0 5 0;
#X connect 2 0 1 0;
#X connect 3 0 0 0;
#X restore 491 450 pd range;
#X obj 976 357 r \$0-code;
#N canvas 922 70 428 682 sampleLength 0;
#X obj 143 125 realtime;
#X floatatom 144 146 5 0 0 0 - - -;
#X obj 144 170 / 1000;
#X obj 200 178 samplerate~;
#X obj 144 196 *;
#X obj 143 78 inlet on;
#X obj 190 43 inlet off;
#X obj 214 113 bng 15 250 50 0 empty empty empty 17 7 0 10 -262144
-1 -1;
#X obj 95 259 outlet time;
#X obj 204 246 outlet sample;
#X floatatom 144 226 5 0 0 0 - - -;
#X obj 218 149 loadbang;
#X connect 0 0 1 0;
#X connect 0 0 8 0;
#X connect 1 0 2 0;
#X connect 2 0 4 0;
#X connect 3 0 4 1;
#X connect 4 0 9 0;
#X connect 4 0 10 0;
#X connect 5 0 0 0;
#X connect 6 0 0 1;
#X connect 6 0 7 0;
#X connect 7 0 3 0;
#X connect 11 0 3 0;
#X restore 690 318 pd sampleLength;
#X obj 24 31 inlet~ signal;
#X obj 107 31 inlet rec;
#X obj 244 33 inlet start;
#X obj 503 202 inlet end;
#X obj 561 184 inlet time;
#X obj 561 166 inlet max_time;
#X obj 171 32 inlet trig;
#X msg 492 391 \; \$1 range \$2 \$3;
#X msg 490 469 \; \$1 range \$2 \$3;
#X msg 1005 507 \$2 \, \$3 \$4;
#X obj 1005 488 pack s f f f;
#X obj 649 149 inlet level;
#X msg 978 416 \; \$1 range \$2 \$3;
#X obj 976 471 bng 15 250 50 0 empty empty empty 17 7 0 10 -262144
-1 -1;
#X obj 1242 525 line;
#X obj 1242 560 sel, f 13;
#X floatatom 1282 507 10 0 0 0 - - -;
#X floatatom 1242 543 15 0 0 0 - - -;
#X msg 1241 508 \$3;
#X obj 1005 526 vline~;
#X obj 716 93 sel 1;
#X obj 932 234 sel 0 1;
#X text 800 365 re-size array;
#X obj 650 520 pack f s;
#X msg 650 541 \; \$2 normalize;
#X obj 169 11 bng 15 250 50 0 empty empty empty 17 7 0 10 -262144 -1
-1;
#X text 640 475 normalize array;
#X text 486 266 re-size sliders;
#X text 685 251 re-size calculate sample length;
#X text 975 340 time slider;
#X text 978 451 playback;
#X text 1244 485 loop;
#X obj 1244 599 spigot;
#X obj 1245 620 bng 15 250 50 0 empty empty empty 17 7 0 10 -262144
-1 -1;
#X text 535 146 inlets for sliders;
#X text 842 144 set array name;
#X text 938 176 record;
#X text 408 29 Version 1.2 - tidied things up a bit with sub-patches
\, array-resized on record \, normalize and loop function added;
#X obj 1022 211 hanning~;
#X obj 1020 150 loadbang;
#X msg 1020 170 1;
#X obj 1022 231 tabsend~ \$0-hanning;
#X obj 1021 190 sig~;
#X obj 997 576 *~;
#X obj 997 603 hip~ 5;
#X obj 1124 539 vline~;
#X msg 1124 517 0 \, 64 \$4;
#N canvas 0 50 450 250 (subpatch) 0;
#X array \$0-hanning 64 float 3;
#A 0 0 0.00240764 0.00960736 0.0215298 0.0380602 0.0590394 0.0842652
0.113495 0.146447 0.182803 0.222215 0.264302 0.308658 0.354858 0.402455
0.450991 0.5 0.549009 0.597545 0.645142 0.691342 0.735698 0.777785
0.817197 0.853553 0.886505 0.915735 0.940961 0.96194 0.97847 0.990393
0.997592 1 0.997592 0.990393 0.97847 0.96194 0.940961 0.915735 0.886505
0.853553 0.817197 0.777785 0.735698 0.691342 0.645142 0.597545 0.549009
0.5 0.450991 0.402455 0.354858 0.308658 0.264302 0.222215 0.182803
0.146447 0.113495 0.0842652 0.0590394 0.0380602 0.0215298 0.00960736
0.00240764;
#X coords 0 1 64 0 50 50 1 0 0;
#X restore 1026 267 graph;
#X obj 1119 559 tabread4~ \$0-hanning;
#X obj 24 50 s~ \$0-signal;
#X obj 929 199 r~ \$0-signal;
#X obj 170 49 s \$0-trig;
#X obj 550 370 r \$0-sampLength;
#X obj 716 75 r \$0-rec;
#X obj 689 268 r \$0-rec;
#X obj 777 342 s \$0-sampLength;
#X obj 832 458 r \$0-array_name;
#X obj 801 400 r \$0-sampLength;
#X obj 1166 470 r \$0-time;
#X obj 1114 470 r \$0-end;
#X obj 1050 470 r \$0-start;
#X obj 992 470 r \$0-trig;
#X obj 1248 580 r \$0-loop_toggle;
#X obj 1246 636 s \$0-loop;
#X obj 917 469 r \$0-loop;
#X obj 932 216 r \$0-rec;
#X obj 634 499 r \$0-norm;
#X obj 695 500 r \$0-array_name;
#X obj 557 451 s \$0-s_length;
#X obj 839 196 s \$0-array_name;
#X msg 801 520 \; \$2 resize \$1;
#X obj 801 489 pack 10000 s;
#X obj 1286 618 outlet loop-bang;
#X obj 100 100 cnv 15 320 160 empty empty empty 20 12 0 14 -233017
-66577 0;
#X obj 113 183 hsl 295 25 0 192507 0 0 \$0-slider_out2 \$0-slider_range2
sample_end 100 30 0 8 -261234 -4160 -4160 11068 1;
#X obj 112 218 hsl 295 10 0.1 4365.24 0 0 \$0-range_out \$0-sample_speed_range
time -2 6 0 8 -262144 -1 -1 9500 1;
#X obj 113 158 hsl 295 25 0 192507 0 0 \$0-slider_out1 \$0-slider_range1
sample_start 100 -4 0 8 -4032 -4034 -4034 1500 1;
#X obj 115 131 hsl 295 10 0 1 0 0 \$0-output_volume \$0-level_in output_level
100 -2 1 8 -257985 -1 -1 27700 0;
#X floatatom 284 142 10 0 0 0 - #0-slider_out1 -;
#X floatatom 347 141 10 0 0 0 - #0-slider_out2 -;
#X floatatom 126 234 10 0 0 0 ms #0-range_out -;
#X floatatom 244 234 7 0 0 0 s_length - -;
#X floatatom 350 234 10 0 0 0 max_time #0-max_time #0-time_send;
#X obj 268 110 tgl 20 0 empty empty rec 3 10 0 8 -258113 -1 -257985
0 1;
#X obj 296 110 tgl 20 0 empty empty loop 0 10 0 8 -204800 -1 -1 0 1
;
#X obj 323 110 bng 20 250 50 0 empty empty norm 1 10 0 8 -262130 -4034
-1;
#X obj 296 304 s \$0-loop_toggle;
#X obj 324 285 s \$0-norm;
#X obj 111 267 s \$0-start;
#X obj 110 304 s \$0-end;
#X obj 112 286 s \$0-time;
#X obj 268 323 s \$0-rec;
#X obj 246 267 r \$0-s_length;
#X obj 100 104 cnv 10 20 10 empty empty ~ 5 5 0 14 -260097 -66577 0
;
#X obj 138 104 cnv 10 20 10 empty empty rec 2 5 0 8 -260097 -66577
0;
#X obj 177 104 cnv 10 20 10 empty empty trig 2 5 0 8 -260097 -66577
0;
#X obj 379 249 cnv 10 40 10 empty empty loop_out 2 5 0 8 -260097 -66577
0;
#X obj 101 249 cnv 10 20 10 empty empty out~ 2 5 0 8 -260097 -66577
0;
#X obj 1176 610 s \$0-pos;
#X obj 111 208 hsl 295 10 0 192507 0 0 empty \$0-slider_range2 sample_end
100 30 0 8 -261682 -4160 -4160 29400 1;
#X obj 83 327 r \$0-pos;
#X obj 8 165 r \$0-s_length;
#X obj 1 199 r \$0-time_send;
#X obj 332 464 /;
#X obj 332 482 * 1000;
#X obj 354 464 /;
#X obj 372 482 * 1000;
#X obj 332 500 -;
#X floatatom 332 519 5 0 0 0 - - -;
#X obj 332 536 < 0;
#X obj 332 554 spigot;
#X obj 332 572 * -1;
#X floatatom 332 590 5 0 0 0 - - -;
#X obj 354 536 > 0;
#X obj 372 554 spigot;
#X floatatom 372 572 5 0 0 0 - - -;
#X obj 331 607 spigot;
#X obj 364 589 r \$0-stretch_tog;
#X obj 331 625 s \$0-s_time;
#X obj 355 503 bng 15 250 50 0 empty empty empty 17 7 0 10 -262144
-1 -1;
#X text 329 388 preserve speed;
#X obj 427 118 s \$0-stretch_tog;
#X obj 351 110 tgl 20 0 empty empty p_time 0 10 0 8 -203904 -1 -1 1
1;
#X obj 333 410 r \$0-start;
#X obj 353 428 r \$0-end;
#X obj 409 433 samplerate~;
#X obj 409 413 bng 15 250 50 0 empty empty empty 17 7 0 10 -262144
-1 -1;
#X obj 1 230 r \$0-s_time;
#N canvas 60 90 712 363 (subpatch) 0;
#X array \$0-file 192507 float 4;
#X coords 0 1 192506 -1 300 50 2 0 0;
#X restore 110 158 graph;
#X connect 0 0 3 0;
#X connect 1 0 0 1;
#X connect 8 0 80 0;
#X connect 9 0 10 0;
#X connect 10 0 11 0;
#X connect 10 0 15 0;
#X connect 11 0 22 0;
#X connect 11 0 106 0;
#X connect 12 0 32 1;
#X connect 13 0 34 0;
#X connect 14 0 32 0;
#X connect 16 0 33 0;
#X connect 17 0 18 0;
#X connect 18 0 16 0;
#X connect 18 0 13 0;
#X connect 20 0 9 0;
#X connect 22 0 24 0;
#X connect 23 0 20 0;
#X connect 23 0 31 0;
#X connect 24 0 21 0;
#X connect 25 0 36 0;
#X connect 25 1 36 1;
#X connect 26 0 21 0;
#X connect 27 0 21 0;
#X connect 31 0 19 0;
#X connect 32 0 49 0;
#X connect 32 1 2 0;
#X connect 33 0 44 0;
#X connect 34 0 45 0;
#X connect 34 1 105 0;
#X connect 35 0 14 0;
#X connect 36 0 28 0;
#X connect 36 1 92 0;
#X connect 37 0 86 0;
#X connect 38 0 120 0;
#X connect 39 0 4 0;
#X connect 40 0 5 0;
#X connect 41 0 6 0;
#X connect 42 0 7 0;
#X connect 43 0 88 0;
#X connect 46 0 51 0;
#X connect 46 0 56 0;
#X connect 47 0 46 0;
#X connect 47 0 55 0;
#X connect 47 0 83 0;
#X connect 48 0 19 0;
#X connect 50 0 47 0;
#X connect 51 0 52 0;
#X connect 51 0 54 0;
#X connect 52 0 69 0;
#X connect 53 0 52 1;
#X connect 54 0 135 0;
#X connect 55 0 53 0;
#X connect 56 0 8 0;
#X connect 57 0 20 0;
#X connect 57 1 20 0;
#X connect 58 0 26 0;
#X connect 58 1 27 0;
#X connect 60 0 61 0;
#X connect 62 0 88 0;
#X connect 69 0 70 0;
#X connect 70 0 100 0;
#X connect 70 0 109 0;
#X connect 75 0 78 0;
#X connect 76 0 77 0;
#X connect 77 0 79 0;
#X connect 79 0 75 0;
#X connect 80 0 81 0;
#X connect 81 0 0 0;
#X connect 82 0 85 0;
#X connect 83 0 82 0;
#X connect 85 0 80 1;
#X connect 87 0 21 0;
#X connect 89 0 33 1;
#X connect 89 0 34 1;
#X connect 90 0 57 0;
#X connect 91 0 25 0;
#X connect 93 0 108 1;
#X connect 94 0 108 0;
#X connect 95 0 2 0;
#X connect 95 0 47 3;
#X connect 96 0 47 2;
#X connect 97 0 47 1;
#X connect 98 0 47 0;
#X connect 99 0 69 1;
#X connect 101 0 50 0;
#X connect 102 0 58 0;
#X connect 103 0 60 0;
#X connect 104 0 60 1;
#X connect 108 0 107 0;
#X connect 111 0 126 0;
#X connect 112 0 127 0;
#X connect 113 0 125 0;
#X connect 120 0 128 0;
#X connect 121 0 123 0;
#X connect 122 0 124 0;
#X connect 129 0 118 0;
#X connect 137 0 136 0;
#X connect 138 0 111 0;
#X connect 139 0 112 0;
#X connect 140 0 141 0;
#X connect 141 0 144 0;
#X connect 142 0 143 0;
#X connect 143 0 144 1;
#X connect 143 0 156 0;
#X connect 144 0 145 0;
#X connect 145 0 146 0;
#X connect 145 0 147 0;
#X connect 145 0 150 0;
#X connect 145 0 151 0;
#X connect 146 0 147 1;
#X connect 147 0 148 0;
#X connect 148 0 149 0;
#X connect 149 0 153 0;
#X connect 150 0 151 1;
#X connect 151 0 152 0;
#X connect 152 0 153 0;
#X connect 153 0 155 0;
#X connect 154 0 153 1;
#X connect 156 0 144 0;
#X connect 159 0 158 0;
#X connect 160 0 140 0;
#X connect 160 0 163 0;
#X connect 161 0 142 0;
#X connect 161 0 163 0;
#X connect 162 0 142 1;
#X connect 162 0 140 1;
#X connect 163 0 162 0;
#X connect 164 0 112 0;
#X coords 0 -1 1 1 320 160 2 100 100;
