#N canvas 878 58 450 638 10;
#X obj 142 304 outlet~;
#X obj 86 33 inlet;
#N canvas 850 107 450 454 stringVoices 0;
#X obj 156 320 phasor~;
#X obj 155 348 expr~ $v1 > $v2;
#X obj 263 283 *~ 0.4;
#X obj 263 305 +~ 0.5;
#X obj 262 261 osc~ 2.4;
#X obj 121 240 sig~;
#X obj 141 273 +~;
#X obj 181 206 osc~ 1;
#X obj 182 241 *~ 3;
#X obj 66 192 inlet;
#X obj 175 403 outlet~;
#X obj 174 84 loadbang;
#X obj 174 114 random 1000;
#X obj 175 138 * 0.005;
#X obj 175 161 + 1;
#X obj 268 154 loadbang;
#X obj 268 184 random 1000;
#X obj 269 231 + 1;
#X obj 269 208 * 0.002;
#X connect 0 0 1 0;
#X connect 1 0 10 0;
#X connect 2 0 3 0;
#X connect 3 0 1 1;
#X connect 4 0 2 0;
#X connect 5 0 6 0;
#X connect 6 0 0 0;
#X connect 7 0 8 0;
#X connect 8 0 6 1;
#X connect 9 0 5 0;
#X connect 11 0 12 0;
#X connect 12 0 13 0;
#X connect 13 0 14 0;
#X connect 14 0 7 0;
#X connect 15 0 16 0;
#X connect 16 0 18 0;
#X connect 17 0 4 0;
#X connect 18 0 17 0;
#X restore 4 171 pd stringVoices;
#X obj 141 235 *~;
#N canvas 60 58 605 424 env 0;
#X obj 219 13 inlet;
#X obj 121 275 outlet~;
#X obj 220 43 sel 0;
#X msg 207 85 0;
#X obj 247 83 / 127;
#X obj 238 157 pack 0 400;
#X floatatom 297 116 5 0 0 0 - - -;
#X obj 125 155 pack 0 400;
#X floatatom 184 114 5 0 0 0 - - -;
#X text 333 116 attack time;
#X text 105 114 decay time;
#X obj 122 190 line~;
#X obj 124 223 *~;
#X obj 124 246 *~;
#X obj 450 80 inlet;
#X obj 494 79 inlet;
#X connect 0 0 2 0;
#X connect 2 0 3 0;
#X connect 2 1 4 0;
#X connect 3 0 7 0;
#X connect 4 0 5 0;
#X connect 5 0 11 0;
#X connect 6 0 5 1;
#X connect 7 0 11 0;
#X connect 8 0 7 1;
#X connect 11 0 12 0;
#X connect 11 0 12 1;
#X connect 12 0 13 0;
#X connect 12 0 13 1;
#X connect 13 0 1 0;
#X connect 14 0 6 0;
#X connect 15 0 8 0;
#X restore 306 197 pd env;
#X obj 76 114 mtof;
#N canvas 850 107 450 454 stringVoices 0;
#X obj 156 320 phasor~;
#X obj 155 348 expr~ $v1 > $v2;
#X obj 263 283 *~ 0.4;
#X obj 263 305 +~ 0.5;
#X obj 262 261 osc~ 2.4;
#X obj 121 240 sig~;
#X obj 141 273 +~;
#X obj 181 206 osc~ 1;
#X obj 182 241 *~ 3;
#X obj 66 192 inlet;
#X obj 175 403 outlet~;
#X obj 174 84 loadbang;
#X obj 174 114 random 1000;
#X obj 175 138 * 0.005;
#X obj 175 161 + 1;
#X obj 268 154 loadbang;
#X obj 268 184 random 1000;
#X obj 269 231 + 1;
#X obj 269 208 * 0.002;
#X connect 0 0 1 0;
#X connect 1 0 10 0;
#X connect 2 0 3 0;
#X connect 3 0 1 1;
#X connect 4 0 2 0;
#X connect 5 0 6 0;
#X connect 6 0 0 0;
#X connect 7 0 8 0;
#X connect 8 0 6 1;
#X connect 9 0 5 0;
#X connect 11 0 12 0;
#X connect 12 0 13 0;
#X connect 13 0 14 0;
#X connect 14 0 7 0;
#X connect 15 0 16 0;
#X connect 16 0 18 0;
#X connect 17 0 4 0;
#X connect 18 0 17 0;
#X restore 102 170 pd stringVoices;
#N canvas 850 107 450 454 stringVoices 0;
#X obj 156 320 phasor~;
#X obj 155 348 expr~ $v1 > $v2;
#X obj 263 283 *~ 0.4;
#X obj 263 305 +~ 0.5;
#X obj 262 261 osc~ 2.4;
#X obj 121 240 sig~;
#X obj 141 273 +~;
#X obj 181 206 osc~ 1;
#X obj 182 241 *~ 3;
#X obj 66 192 inlet;
#X obj 175 403 outlet~;
#X obj 174 84 loadbang;
#X obj 174 114 random 1000;
#X obj 175 138 * 0.005;
#X obj 175 161 + 1;
#X obj 268 154 loadbang;
#X obj 268 184 random 1000;
#X obj 269 231 + 1;
#X obj 269 208 * 0.002;
#X connect 0 0 1 0;
#X connect 1 0 10 0;
#X connect 2 0 3 0;
#X connect 3 0 1 1;
#X connect 4 0 2 0;
#X connect 5 0 6 0;
#X connect 6 0 0 0;
#X connect 7 0 8 0;
#X connect 8 0 6 1;
#X connect 9 0 5 0;
#X connect 11 0 12 0;
#X connect 12 0 13 0;
#X connect 13 0 14 0;
#X connect 14 0 7 0;
#X connect 15 0 16 0;
#X connect 16 0 18 0;
#X connect 17 0 4 0;
#X connect 18 0 17 0;
#X restore 201 170 pd stringVoices;
#X obj 112 137 * 1.004;
#X obj 180 133 * 1.007;
#X obj 143 276 lop~ 5000;
#X obj 28 254 * 10;
#X obj 351 122 inlet;
#X obj 390 122 inlet;
#X text 345 97 attack - decay;
#X obj 80 71 unpack f f, f 38;
#X obj 56 96 int;
#X floatatom 121 96 5 0 0 0 - - -;
#X connect 1 0 15 0;
#X connect 2 0 3 0;
#X connect 3 0 10 0;
#X connect 4 0 3 1;
#X connect 5 0 2 0;
#X connect 5 0 8 0;
#X connect 5 0 9 0;
#X connect 5 0 11 0;
#X connect 6 0 3 0;
#X connect 7 0 3 0;
#X connect 8 0 6 0;
#X connect 9 0 7 0;
#X connect 10 0 0 0;
#X connect 11 0 10 1;
#X connect 12 0 4 1;
#X connect 13 0 4 2;
#X connect 15 0 16 0;
#X connect 15 0 17 0;
#X connect 15 1 4 0;
#X connect 16 0 5 0;
#X connect 17 0 4 0;
