#N canvas 0 58 1366 710 10;
#X obj 43 117 16step2;
#X obj 22 20 tgl 15 0 empty empty empty 17 7 0 10 -262144 -1 -1 1 1
;
#X obj 115 70 mod 16;
#X obj 41 158 miniSamp;
#X obj 181 160 16step2;
#X obj 182 201 miniSamp;
#X obj 319 202 16step2;
#X obj 318 242 miniSamp;
#X obj 43 257 gain;
#X obj 131 481 gain;
#X obj 318 354 gain;
#X obj 463 341 delay2;
#X obj 535 349 gain;
#X obj 133 51 s time;
#X obj 193 367 freeverb~;
#X msg 221 340 wet 0.1;
#X obj 246 423 delay2;
#X obj 24 43 timebase 80 4 100;
#X connect 0 0 3 0;
#X connect 1 0 17 0;
#X connect 2 0 0 0;
#X connect 2 0 4 0;
#X connect 2 0 6 0;
#X connect 3 0 8 2;
#X connect 4 0 5 0;
#X connect 5 0 14 0;
#X connect 5 0 16 0;
#X connect 5 0 9 2;
#X connect 6 0 7 0;
#X connect 7 0 10 2;
#X connect 7 0 11 0;
#X connect 11 0 12 2;
#X connect 14 0 9 2;
#X connect 14 0 16 0;
#X connect 15 0 14 0;
#X connect 16 0 9 2;
#X connect 17 1 2 0;
#X connect 17 1 13 0;
