#N canvas 64 118 504 467 10;
#X obj 65 366 outlet bangs;
#X obj 155 400 outlet time;
#X obj 108 111 inlet control;
#X obj 202 109 inlet bpm;
#X obj 271 110 inlet beats;
#X obj 369 108 inlet swing percent;
#X obj 288 31 loadbang;
#X obj 288 66 t b b b;
#X obj 123 141 sel 0;
#X msg 123 164 0;
#X obj 73 215 metro 125;
#X obj 74 243 t b b;
#X obj 214 150 f \$1;
#X obj 293 150 f \$2;
#X obj 369 145 f \$3;
#X obj 212 185 swap 60000;
#X obj 292 182 t b f;
#X obj 369 182 / 100;
#X obj 211 213 /;
#X obj 210 239 / 4;
#X obj 209 265 t f f;
#X obj 371 211 + 1;
#X obj 267 264 t b f;
#X obj 214 298 *;
#X obj 136 269 del;
#X obj 81 321 t b b;
#X obj 156 344 f 0;
#X obj 191 343 + 1;
#X text 15 15 timebase - taken from 'Designing Sound'by Andy Farnell
;
#X connect 2 0 8 0;
#X connect 2 0 10 0;
#X connect 3 0 12 0;
#X connect 4 0 13 0;
#X connect 5 0 14 0;
#X connect 6 0 7 0;
#X connect 7 0 12 0;
#X connect 7 1 13 0;
#X connect 7 2 14 0;
#X connect 8 0 9 0;
#X connect 9 0 26 1;
#X connect 10 0 11 0;
#X connect 11 0 25 0;
#X connect 11 1 24 0;
#X connect 12 0 15 0;
#X connect 13 0 16 0;
#X connect 14 0 17 0;
#X connect 15 0 18 0;
#X connect 15 1 18 1;
#X connect 16 0 19 0;
#X connect 16 1 19 1;
#X connect 17 0 21 0;
#X connect 18 0 19 0;
#X connect 19 0 20 0;
#X connect 20 0 10 1;
#X connect 20 1 23 0;
#X connect 21 0 22 0;
#X connect 22 0 23 0;
#X connect 22 1 23 1;
#X connect 23 0 24 1;
#X connect 24 0 25 0;
#X connect 25 0 0 0;
#X connect 25 1 26 0;
#X connect 26 0 27 0;
#X connect 26 0 1 0;
#X connect 27 0 26 1;
