#N canvas 152 232 688 430 10;
#X obj 65 57 loadbang;
#X msg 65 101 read -resize \$1 a_sample;
#X obj 65 125 soundfiler;
#X msg 65 78 open beat.wav;
#X floatatom 65 148 10 0 0 0 - - -, f 10;
#N canvas 0 50 450 250 (subpatch) 0;
#X array a_sample 163153 float 2;
#X coords 0 1 163153 -1 200 140 1;
#X restore 259 32 graph;
#X obj 511 105 tabplay~ a_sample;
#X obj 501 59 bng 15 250 50 0 empty empty empty 17 7 0 10 -262144 -1
-1;
#X obj 519 147 dac~;
#N canvas 469 253 572 435 isPower 0;
#X obj 180 60 bng 15 250 50 0 empty empty empty 17 7 0 10 -262144 -1
-1;
#X obj 180 93 tgl 15 0 empty empty empty 17 7 0 10 -262144 -1 -1 0
1;
#X obj 180 113 metro 1;
#X obj 227 158 + 1;
#X msg 260 115 1;
#X obj 186 202 t b f;
#X obj 188 255 pow;
#X msg 188 226 2;
#X obj 189 283 + 3;
#X obj 189 319 moses;
#X msg 256 365 \; stopcalc 0;
#X obj 267 59 r stopcalc;
#X obj 107 266 outlet;
#X floatatom 226 283 10 0 0 0 - #0-filelength -, f 10;
#X floatatom 154 365 10 0 0 0 - - -, f 10;
#X obj 185 157 i 1;
#X connect 0 0 1 0;
#X connect 1 0 2 0;
#X connect 2 0 15 0;
#X connect 3 0 15 1;
#X connect 4 0 15 1;
#X connect 5 0 7 0;
#X connect 5 1 6 1;
#X connect 6 0 8 0;
#X connect 7 0 6 0;
#X connect 8 0 9 0;
#X connect 9 0 14 0;
#X connect 9 1 10 0;
#X connect 11 0 4 0;
#X connect 11 0 1 0;
#X connect 13 0 9 1;
#X connect 14 0 12 0;
#X connect 15 0 3 0;
#X connect 15 0 5 0;
#X restore 87 230 pd isPower;
#X floatatom 87 252 10 0 0 0 - - -, f 10;
#X obj 64 170 s \$0-filelength;
#X connect 0 0 3 0;
#X connect 1 0 2 0;
#X connect 2 0 4 0;
#X connect 3 0 1 0;
#X connect 4 0 11 0;
#X connect 6 0 8 0;
#X connect 6 0 8 1;
#X connect 7 0 6 0;
#X connect 9 0 10 0;
