#N canvas 56 58 1310 710 10;
#X obj 284 239 osc~;
#X obj 283 205 +~;
#X obj 300 161 *~;
#X obj 284 276 outlet~;
#X obj 101 105 cnv 15 30 20 empty empty cFreq 0 12 0 8 -204786 -66577
0;
#X obj 134 105 cnv 15 30 20 empty empty modin~ 0 12 0 8 -261682 -66577
0;
#X obj 168 106 cnv 15 30 20 empty empty amt 0 12 0 8 -233017 -66577
0;
#X obj 355 110 inlet~;
#X obj 250 158 sig~;
#X obj 250 112 inlet;
#X obj 301 111 inlet~;
#X connect 0 0 3 0;
#X connect 1 0 0 0;
#X connect 2 0 1 1;
#X connect 7 0 2 1;
#X connect 8 0 1 0;
#X connect 9 0 8 0;
#X connect 10 0 2 0;
#X coords 0 -1 1 1 100 30 2 100 100;
