#N canvas 60 210 619 554 10;
#N canvas 721 235 641 450 fromArduino 1;
#X obj 368 27 route 2 3 4;
#X obj 104 32 arduino 0;
#X obj 104 1 loadbang;
#X obj 104 49 route analog digital;
#N canvas 692 146 450 340 setAnalog 0;
#X msg 52 126 0 \$1;
#X msg 102 126 1 \$1;
#X msg 152 126 2 \$1;
#X msg 202 126 3 \$1;
#X msg 252 126 4 \$1;
#X msg 302 126 5 \$1;
#X msg 48 211 set analogIns \$1 \$2 \, bang;
#X msg 123 242 analogIns 3 1;
#X obj 51 97 tgl 15 0 empty empty empty 17 7 0 10 -262144 -1 -1 1 1
;
#X obj 102 99 tgl 15 0 empty empty empty 17 7 0 10 -262144 -1 -1 1
1;
#X obj 151 100 tgl 15 0 empty empty empty 17 7 0 10 -262144 -1 -1 1
1;
#X obj 200 100 tgl 15 0 empty empty empty 17 7 0 10 -262144 -1 -1 1
1;
#X obj 251 102 tgl 15 0 empty empty empty 17 7 0 10 -262144 -1 -1 0
1;
#X obj 300 103 tgl 15 0 empty empty empty 17 7 0 10 -262144 -1 -1 0
1;
#X obj 172 44 inlet;
#X text 331 100 <---connect to these to use the other analog pins;
#X obj 123 274 outlet;
#X connect 0 0 6 0;
#X connect 1 0 6 0;
#X connect 2 0 6 0;
#X connect 3 0 6 0;
#X connect 4 0 6 0;
#X connect 5 0 6 0;
#X connect 6 0 7 0;
#X connect 7 0 16 0;
#X connect 8 0 0 0;
#X connect 9 0 1 0;
#X connect 10 0 2 0;
#X connect 11 0 3 0;
#X connect 12 0 4 0;
#X connect 13 0 5 0;
#X connect 14 0 8 0;
#X connect 14 0 9 0;
#X connect 14 0 10 0;
#X connect 14 0 11 0;
#X restore 104 17 pd setAnalog;
#N canvas 60 58 982 513 setPinMode 0;
#X msg 355 148 pinMode 2 input;
#X msg 355 169 pinMode 3 input;
#X msg 355 189 pinMode 4 input;
#X msg 461 149 pinMode 14 analog;
#X msg 462 170 pinMode 15 analog;
#X msg 460 190 pinMode 16 analog;
#X obj 399 65 inlet;
#X text 580 217 <--- add messages here when using more pins (analog/
digital);
#X obj 426 279 outlet;
#X msg 282 245 pinMode 5 output;
#X msg 282 264 pinMode 6 output;
#X msg 281 284 pinMode 7 output;
#X msg 280 322 pinMode 8 output;
#X text 290 220 green LEDs;
#X text 294 304 red LED;
#X connect 0 0 8 0;
#X connect 1 0 8 0;
#X connect 2 0 8 0;
#X connect 3 0 8 0;
#X connect 4 0 8 0;
#X connect 5 0 8 0;
#X connect 6 0 0 0;
#X connect 6 0 1 0;
#X connect 6 0 2 0;
#X connect 6 0 3 0;
#X connect 6 0 4 0;
#X connect 6 0 5 0;
#X connect 6 0 9 0;
#X connect 6 0 10 0;
#X connect 6 0 11 0;
#X connect 6 0 12 0;
#X connect 9 0 8 0;
#X connect 10 0 8 0;
#X connect 11 0 8 0;
#X connect 12 0 8 0;
#X restore 180 17 pd setPinMode;
#X obj 100 100 cnv 15 240 190 empty empty empty 20 12 0 14 -261234
-66577 0;
#X obj 134 214 tgl 50 0 empty empty empty 17 7 0 10 -204786 -1 -1 0
1;
#X obj 109 108 vsl 50 100 0 1 0 0 empty empty empty 0 -9 0 10 -262144
-1 -1 0 1;
#X obj 196 214 tgl 50 0 empty empty empty 17 7 0 10 -204786 -1 -1 0
1;
#X obj 165 108 vsl 50 100 0 1 0 0 empty empty empty 0 -9 0 10 -262144
-1 -1 0 1;
#X obj 256 214 tgl 50 0 empty empty empty 17 7 0 10 -204786 -1 -1 0
1;
#X obj 221 108 vsl 50 100 0 1 0 0 empty empty empty 0 -9 0 10 -262144
-1 -1 0 1;
#X obj 12 330 outlet pot1;
#X obj 84 330 outlet pot2;
#X obj 157 330 outlet pot3;
#X obj 326 329 outlet toggle1;
#X obj 417 329 outlet toggle2;
#X obj 509 329 outlet toggle3;
#X obj 278 107 vsl 50 100 0 1 0 0 empty empty empty 0 -9 0 10 -262144
-1 -1 0 1;
#N canvas 60 58 541 300 leds 0;
#X msg 130 111 digital 5 \$1;
#X msg 215 110 digital 6 \$1;
#X msg 298 111 digital 7 \$1;
#X msg 396 111 digital 8 \$1;
#X obj 397 82 tgl 15 0 empty empty empty 17 7 0 10 -262144 -1 -1 1
1;
#X obj 396 60 loadbang;
#X text 400 37 red LED;
#X text 213 47 green LEDs;
#X obj 130 87 inlet;
#X obj 215 87 inlet;
#X obj 298 87 inlet;
#X obj 136 156 outlet;
#X obj 183 156 outlet;
#X obj 231 156 outlet;
#X obj 278 156 outlet;
#X connect 0 0 11 0;
#X connect 1 0 12 0;
#X connect 2 0 13 0;
#X connect 3 0 14 0;
#X connect 4 0 3 0;
#X connect 5 0 4 0;
#X connect 8 0 0 0;
#X connect 9 0 1 0;
#X connect 10 0 2 0;
#X restore 371 226 pd leds;
#X obj 88 68 route 0 1 2 3;
#N canvas 715 58 651 710 buttons 0;
#X obj 44 13 inlet;
#X obj 89 14 inlet;
#X obj 132 13 inlet;
#X obj 53 352 outlet;
#X obj 100 352 outlet;
#X obj 149 352 outlet;
#X obj 59 304 tgl 15 0 empty empty empty 17 7 0 10 -262144 -1 -1 0
1;
#X obj 101 305 tgl 15 0 empty empty empty 17 7 0 10 -262144 -1 -1 0
1;
#X obj 147 301 tgl 15 0 empty empty empty 17 7 0 10 -262144 -1 -1 0
1;
#X obj 54 170 tgl 15 0 empty empty empty 17 7 0 10 -262144 -1 -1 0
1;
#X obj 95 170 tgl 15 0 empty empty empty 17 7 0 10 -262144 -1 -1 0
1;
#X obj 143 171 tgl 15 0 empty empty empty 17 7 0 10 -262144 -1 -1 0
1;
#X obj 62 208 sel 1;
#X obj 101 208 sel 1;
#X obj 141 209 sel 1;
#X obj 39 106 del 50;
#X obj 84 108 del 50;
#X obj 129 110 del 50;
#X connect 0 0 15 0;
#X connect 1 0 16 0;
#X connect 2 0 17 0;
#X connect 6 0 3 0;
#X connect 7 0 4 0;
#X connect 8 0 5 0;
#X connect 9 0 12 0;
#X connect 10 0 13 0;
#X connect 11 0 14 0;
#X connect 12 0 6 0;
#X connect 13 0 7 0;
#X connect 14 0 8 0;
#X connect 15 0 9 0;
#X connect 16 0 10 0;
#X connect 17 0 11 0;
#X restore 368 94 pd buttons;
#X obj 232 330 outlet pot4;
#X obj 438 139 loadbang;
#X msg 440 172 0;
#X connect 0 0 22 2;
#X connect 0 1 22 1;
#X connect 0 2 22 0;
#X connect 1 0 3 0;
#X connect 2 0 4 0;
#X connect 2 0 5 0;
#X connect 3 0 21 0;
#X connect 3 1 0 0;
#X connect 4 0 1 0;
#X connect 5 0 1 0;
#X connect 7 0 20 0;
#X connect 7 0 16 0;
#X connect 8 0 13 0;
#X connect 9 0 20 1;
#X connect 9 0 17 0;
#X connect 10 0 14 0;
#X connect 11 0 20 2;
#X connect 11 0 18 0;
#X connect 12 0 15 0;
#X connect 19 0 23 0;
#X connect 20 0 1 0;
#X connect 20 1 1 0;
#X connect 20 2 1 0;
#X connect 20 3 1 0;
#X connect 21 0 8 0;
#X connect 21 1 10 0;
#X connect 21 2 12 0;
#X connect 21 3 19 0;
#X connect 22 0 7 0;
#X connect 22 1 9 0;
#X connect 22 2 11 0;
#X connect 24 0 25 0;
#X connect 25 0 7 0;
#X connect 25 0 9 0;
#X connect 25 0 11 0;
#X coords 0 -1 1 1 240 200 1 100 100;
#X restore 100 100 pd fromArduino;
#X obj 3 364 outlet pot1;
#X obj 75 364 outlet pot2;
#X obj 148 364 outlet pot3;
#X obj 329 357 outlet toggle1;
#X obj 420 357 outlet toggle2;
#X obj 512 357 outlet toggle3;
#X text 346 101 <--pduino/serial comms setup in here;
#X obj 101 277 cnv 15 15 15 empty empty p1 2 6 0 10 -261234 -66577
0;
#X obj 135 278 cnv 15 15 15 empty empty p2 2 6 0 10 -261234 -66577
0;
#X obj 174 278 cnv 15 15 15 empty empty p3 2 6 0 10 -261234 -66577
0;
#X obj 253 277 cnv 15 15 15 empty empty t1 2 6 0 10 -261234 -66577
0;
#X obj 291 277 cnv 15 15 15 empty empty t2 2 6 0 10 -261234 -66577
0;
#X obj 325 277 cnv 15 15 15 empty empty t3 2 6 0 10 -261234 -66577
0;
#X obj 214 278 cnv 15 15 15 empty empty p4 2 6 0 10 -261234 -66577
0;
#X obj 221 365 outlet pot4;
#X connect 0 0 1 0;
#X connect 0 1 2 0;
#X connect 0 2 3 0;
#X connect 0 3 15 0;
#X connect 0 4 4 0;
#X connect 0 5 5 0;
#X connect 0 6 6 0;
#X coords 0 -1 1 1 240 200 1 100 100;
