#N canvas 361 58 1001 710 10;
#X obj 192 144 adc~;
#X obj 418 681 dac~;
#X obj 119 296 loadbang;
#X msg 117 335 \; pd dsp 1;
#X obj 404 605 bob~;
#X obj 435 605 vcf~;
#X obj 359 421 hsl 128 15 1 2000 0 0 empty empty empty -2 -8 0 10 -262144
-1 -1 0 1;
#X obj 470 546 hsl 128 15 1 10 0 0 empty empty empty -2 -8 0 10 -262144
-1 -1 0 1;
#X obj 374 390 * 2000;
#X obj 499 521 * 10;
#X obj 350 460 sig~;
#X obj 503 574 sig~;
#X floatatom 280 373 5 0 0 0 - - -;
#X obj 230 397 *~;
#X obj 328 12 pduino_4pots_3buttons;
#X obj 505 345 DISTORT_pi;
#X msg 569 312 1;
#X obj 569 285 loadbang;
#X obj 231 222 *~ 2;
#X obj 477 310 bob~;
#X obj 685 323 monoLoop;
#X obj 303 290 *~, f 4;
#X msg 273 346 2;
#X obj 772 220 sel 0 1;
#X msg 774 254 0;
#X msg 805 254 1;
#X connect 0 0 18 0;
#X connect 0 1 18 0;
#X connect 2 0 3 0;
#X connect 2 0 22 0;
#X connect 4 0 1 0;
#X connect 4 0 1 1;
#X connect 4 0 20 0;
#X connect 5 1 1 0;
#X connect 5 1 1 1;
#X connect 5 1 20 0;
#X connect 6 0 10 0;
#X connect 7 0 11 0;
#X connect 7 0 5 2;
#X connect 7 0 19 2;
#X connect 8 0 6 0;
#X connect 9 0 7 0;
#X connect 10 0 4 1;
#X connect 10 0 5 1;
#X connect 10 0 19 1;
#X connect 11 0 4 2;
#X connect 12 0 13 1;
#X connect 13 0 1 0;
#X connect 13 0 1 1;
#X connect 14 0 15 3;
#X connect 14 1 8 0;
#X connect 14 2 9 0;
#X connect 14 3 21 1;
#X connect 14 4 20 1;
#X connect 14 5 20 2;
#X connect 14 6 23 0;
#X connect 15 0 4 0;
#X connect 15 0 5 0;
#X connect 16 0 15 1;
#X connect 16 0 15 2;
#X connect 17 0 16 0;
#X connect 18 0 21 0;
#X connect 18 0 13 0;
#X connect 18 0 20 0;
#X connect 19 0 15 0;
#X connect 20 0 1 0;
#X connect 20 0 1 1;
#X connect 21 0 19 0;
#X connect 21 0 15 0;
#X connect 22 0 12 0;
#X connect 23 0 24 0;
#X connect 23 1 25 0;
#X connect 24 0 20 3;
#X connect 25 0 20 3;
