#N canvas 3 56 1001 857 10;
#X obj 351 0 pduino_pots_buttons;
#X obj 163 225 adc~;
#X obj 426 757 dac~;
#N canvas 494 325 1228 648 drywet 0;
#X obj 417 291 hsl 128 15 -50 0 0 0 empty empty empty -2 -8 0 10 -260097
-1 -1 12700 1;
#X obj 570 292 hsl 128 15 0 50 0 0 empty empty empty -2 -8 0 10 -4034
-1 -1 0 1;
#X obj 520 140 hsl 128 15 0 100 0 0 empty empty empty -2 -8 0 10 -4032
-1 -1 6350 1;
#X obj 623 264 *;
#X obj 618 206 select 1;
#X text 439 59 CROSSFADER David Williams 21.03.2019;
#X floatatom 566 393 5 0 0 0 - - -, f 5;
#X floatatom 569 325 5 0 0 0 - - -, f 5;
#X msg 629 236 0.5;
#X floatatom 465 184 5 0 0 0 - - -, f 5;
#X obj 456 212 * -1;
#X floatatom 456 242 5 0 0 0 - - -, f 5;
#X floatatom 414 319 5 0 0 0 - - -, f 5;
#X obj 414 340 + 50;
#X floatatom 414 364 5 0 0 0 - - -, f 5;
#X obj 566 363 * 0.02;
#X obj 416 390 * 0.02;
#X text 658 131 <-- slider one goes from 0 to 100;
#X text 678 181 <-- if greater than 50 \, reduce the values (basic
scale);
#X text 641 419 <--ignore values we don't want i.e minus numbers with
clip;
#X floatatom 694 269 5 0 0 0 - - -, f 5;
#X text 715 293 <-- right slider goes from 0-50;
#X text 189 290 left slider goes from -50-0 -->;
#X text 624 364 <-- multiply by 0.02 to get values from 0-1;
#X text 15 211 Do a bit of maths to reverse the values for the left
channel (reverse \, then add \, then clip);
#X obj 620 183 > 50;
#X obj 517 87 inlet;
#X obj 405 555 outlet~;
#X obj 564 560 outlet~;
#X obj 256 416 inlet~;
#X obj 323 505 *~;
#X obj 527 500 *~;
#X obj 654 533 snapshot~;
#X obj 631 446 tgl 15 0 empty empty empty 17 7 0 10 -262144 -1 -1 0
1;
#X obj 635 491 metro 50;
#X floatatom 651 568 10 0 0 0 - - -, f 10;
#X floatatom 416 411 5 0 0 0 - - -, f 5;
#X obj 564 437 lop~ 10;
#X obj 415 454 lop~ 10;
#X obj 392 84 loadbang;
#X msg 407 113 50;
#X obj 506 110 * 100;
#X connect 0 0 12 0;
#X connect 1 0 7 0;
#X connect 2 0 3 0;
#X connect 2 0 25 0;
#X connect 3 0 1 0;
#X connect 3 0 9 0;
#X connect 3 0 20 0;
#X connect 4 0 8 0;
#X connect 6 0 37 0;
#X connect 7 0 15 0;
#X connect 8 0 3 1;
#X connect 9 0 10 0;
#X connect 10 0 11 0;
#X connect 11 0 0 0;
#X connect 12 0 13 0;
#X connect 13 0 14 0;
#X connect 14 0 16 0;
#X connect 15 0 6 0;
#X connect 16 0 36 0;
#X connect 25 0 4 0;
#X connect 26 0 41 0;
#X connect 29 0 30 0;
#X connect 29 0 31 0;
#X connect 30 0 27 0;
#X connect 31 0 28 0;
#X connect 31 0 32 0;
#X connect 32 0 35 0;
#X connect 33 0 34 0;
#X connect 34 0 32 0;
#X connect 36 0 38 0;
#X connect 37 0 31 1;
#X connect 38 0 30 1;
#X connect 39 0 40 0;
#X connect 40 0 2 0;
#X connect 41 0 2 0;
#X restore 217 337 pd drywet;
#X obj 206 31 loadbang;
#X msg 204 70 \; pd dsp 1;
#X obj 507 342 DISTORT;
#X msg 570 284 0.3;
#X msg 526 296 10;
#X floatatom 264 275 5 0 0 0 - - -, f 5;
#X obj 395 676 bob~;
#X obj 426 676 vcf~;
#X obj 553 242 loadbang;
#X obj 359 421 hsl 128 15 1 2000 0 0 empty empty empty -2 -8 0 10 -262144
-1 -1 0 1;
#X obj 470 546 hsl 128 15 1 10 0 0 empty empty empty -2 -8 0 10 -262144
-1 -1 0 1;
#X obj 374 390 * 2000;
#X obj 499 521 * 10;
#X obj 350 460 sig~;
#X obj 503 574 sig~;
#X obj 316 280 sel 0 1;
#X msg 304 328 2;
#X msg 336 326 8;
#X floatatom 279 371 5 0 0 0 - - -, f 5;
#X obj 230 397 *~;
#X connect 0 0 9 0;
#X connect 0 2 15 0;
#X connect 0 3 16 0;
#X connect 1 0 3 0;
#X connect 1 1 3 0;
#X connect 3 0 23 0;
#X connect 3 1 6 0;
#X connect 4 0 5 0;
#X connect 6 0 10 0;
#X connect 6 0 11 0;
#X connect 9 0 3 1;
#X connect 10 0 2 0;
#X connect 10 0 2 1;
#X connect 11 1 2 0;
#X connect 11 1 2 1;
#X connect 12 0 8 0;
#X connect 12 0 7 0;
#X connect 13 0 17 0;
#X connect 14 0 18 0;
#X connect 14 0 11 2;
#X connect 15 0 13 0;
#X connect 16 0 14 0;
#X connect 17 0 10 1;
#X connect 17 0 11 1;
#X connect 18 0 10 2;
#X connect 19 0 20 0;
#X connect 19 1 21 0;
#X connect 20 0 22 0;
#X connect 21 0 22 0;
#X connect 22 0 23 1;
#X connect 23 0 2 0;
#X connect 23 0 2 1;
#X connect 23 0 10 0;
#X connect 23 0 11 0;
