#N canvas 507 115 746 557 10;
#X obj 194 156 arduino;
#X msg 108 130 pinMode 18 analog;
#X msg 222 81 5 \$1;
#X msg 222 105 set analogIns \$1 \$2 \, bang;
#X msg 222 129 analogIns 5 1;
#X msg 222 59 1;
#X obj 175 25 loadbang;
#X obj 185 181 route analog;
#X obj 195 205 route 5;
#X floatatom 195 228 5 0 0 0 - - -;
#X obj 195 252 * 5;
#X floatatom 195 275 5 0 0 0 - - -;
#X floatatom 156 336 5 0 0 0 - - -;
#X obj 194 412 packOSC;
#X obj 193 359 sel 1;
#X obj 199 485 udpsend;
#X msg 45 442 connect 127.0.0.1 12345;
#X obj 194 316 change;
#X msg 190 383 send /test shutdown;
#X obj 195 294 < 4.5;
#X connect 0 0 7 0;
#X connect 1 0 0 0;
#X connect 2 0 3 0;
#X connect 3 0 4 0;
#X connect 4 0 0 0;
#X connect 5 0 2 0;
#X connect 6 0 5 0;
#X connect 6 0 1 0;
#X connect 6 0 16 0;
#X connect 7 0 8 0;
#X connect 8 0 9 0;
#X connect 9 0 10 0;
#X connect 10 0 11 0;
#X connect 11 0 19 0;
#X connect 12 0 14 0;
#X connect 13 0 15 0;
#X connect 14 0 18 0;
#X connect 16 0 15 0;
#X connect 17 0 12 0;
#X connect 18 0 13 0;
#X connect 19 0 17 0;
